<svg width="38" height="130" viewBox="0 0 38 130" fill="none" xmlns="http://www.w3.org/2000/svg">
<path d="M36.88 48H1V129.63H36.88V48Z" fill="#424242"/>
<path d="M10.8398 53.9502V54.4702H13.6898V55.8702H9.33984V50.6602H13.6898V52.0602H10.8398V52.5602H13.6898V53.9602H10.8398V53.9502Z" fill="#E71D73"/>
<path d="M18.5198 52.4899L17.3998 55.8599H15.8198L17.7698 50.6499H19.2698L21.2198 55.8599H19.6398L18.5198 52.4899Z" fill="#E71D73"/>
<path d="M23.8798 51.32C24.4198 50.8 25.0598 50.54 25.8098 50.54C26.5698 50.54 27.2098 50.8 27.7498 51.32C28.2798 51.84 28.5498 52.47 28.5498 53.19C28.5498 53.93 28.2798 54.56 27.7498 55.08C27.2198 55.6 26.5698 55.86 25.8098 55.86C25.0698 55.86 24.4198 55.6 23.8798 55.08C23.3398 54.56 23.0698 53.93 23.0698 53.19C23.0698 52.47 23.3398 51.84 23.8798 51.32ZM24.9298 52.29C24.6798 52.53 24.5598 52.83 24.5598 53.2C24.5598 53.55 24.6798 53.85 24.9298 54.1C25.1798 54.35 25.4698 54.47 25.8098 54.47C26.1498 54.47 26.4398 54.35 26.6798 54.1C26.9198 53.85 27.0398 53.55 27.0398 53.2C27.0398 52.83 26.9198 52.53 26.6798 52.29C26.4398 52.05 26.1498 51.93 25.8098 51.93C25.4698 51.93 25.1798 52.05 24.9298 52.29Z" fill="#E71D73"/>
<path d="M22.6597 54.4302V55.8702H21.2197V50.6602H22.6597V53.3502" fill="#E71D73"/>
<path d="M15.5198 54.4302V55.8702H14.0798V50.6602H15.5198V53.3502" fill="#E71D73"/>
<path d="M16.7298 50.6602L14.0798 52.6902V50.6602H16.7298Z" fill="#E71D73"/>
<path d="M33.09 58.8101H4.79004V97.7001H33.09V58.8101Z" fill="#CDCCCC"/>
<path d="M33.09 59.4199L4.79004 87.7199V97.6999H5.14004L33.09 69.7499V59.4199Z" fill="#E2E2E1"/>
<path d="M33.0899 78.52L13.9199 97.7H22.1799L33.0899 86.79V78.52Z" fill="#E2E2E1"/>
<path d="M11.3401 74.9399C12.7373 74.9399 13.8701 73.8072 13.8701 72.4099C13.8701 71.0126 12.7373 69.8799 11.3401 69.8799C9.94278 69.8799 8.81006 71.0126 8.81006 72.4099C8.81006 73.8072 9.94278 74.9399 11.3401 74.9399Z" fill="#0B0C0C"/>
<path d="M26.53 74.9399C27.9273 74.9399 29.06 73.8072 29.06 72.4099C29.06 71.0126 27.9273 69.8799 26.53 69.8799C25.1327 69.8799 24 71.0126 24 72.4099C24 73.8072 25.1327 74.9399 26.53 74.9399Z" fill="#0B0C0C"/>
<path d="M15 85C15 82.7909 16.7909 81 19 81C21.2091 81 23 82.7909 23 85V85.2857C23 86.2325 22.2325 87 21.2857 87H16.7143C15.7675 87 15 86.2325 15 85.2857V85Z" fill="#0B0C0C"/>
<path fill-rule="evenodd" clip-rule="evenodd" d="M38 19C38 24.0391 35.9982 28.8718 32.435 32.435C28.8718 35.9982 24.0391 38 19 38C13.9609 38 9.12816 35.9982 5.56497 32.435C2.00178 28.8718 0 24.0391 0 19C0 13.9609 2.00178 9.12816 5.56497 5.56497C9.12816 2.00178 13.9609 0 19 0C24.0391 0 28.8718 2.00178 32.435 5.56497C35.9982 9.12816 38 13.9609 38 19ZM19 11.875C18.5827 11.8746 18.1727 11.9841 17.8112 12.1926C17.4497 12.4011 17.1495 12.7011 16.9409 13.0625C16.7902 13.3425 16.5849 13.5893 16.3371 13.7884C16.0892 13.9876 15.8039 14.1349 15.4981 14.2217C15.1923 14.3086 14.8721 14.3331 14.5566 14.2939C14.2411 14.2547 13.9367 14.1526 13.6614 13.9935C13.3862 13.8345 13.1456 13.6218 12.954 13.3681C12.7625 13.1144 12.6238 12.8248 12.5462 12.5164C12.4687 12.2081 12.4538 11.8874 12.5025 11.5732C12.5512 11.2591 12.6625 10.9579 12.8298 10.6875C13.614 9.32927 14.8245 8.26776 16.2736 7.6676C17.7226 7.06744 19.3292 6.96216 20.8441 7.3681C22.3591 7.77404 23.6977 8.6685 24.6526 9.91277C25.6074 11.157 26.1249 12.6816 26.125 14.25C26.1254 15.724 25.6689 17.1618 24.8182 18.3655C23.9675 19.5692 22.7646 20.4796 21.375 20.9713V21.375C21.375 22.0049 21.1248 22.609 20.6794 23.0544C20.234 23.4998 19.6299 23.75 19 23.75C18.3701 23.75 17.766 23.4998 17.3206 23.0544C16.8752 22.609 16.625 22.0049 16.625 21.375V19C16.625 18.3701 16.8752 17.766 17.3206 17.3206C17.766 16.8752 18.3701 16.625 19 16.625C19.6299 16.625 20.234 16.3748 20.6794 15.9294C21.1248 15.484 21.375 14.8799 21.375 14.25C21.375 13.6201 21.1248 13.016 20.6794 12.5706C20.234 12.1252 19.6299 11.875 19 11.875ZM19 30.875C19.6299 30.875 20.234 30.6248 20.6794 30.1794C21.1248 29.734 21.375 29.1299 21.375 28.5C21.375 27.8701 21.1248 27.266 20.6794 26.8206C20.234 26.3752 19.6299 26.125 19 26.125C18.3701 26.125 17.766 26.3752 17.3206 26.8206C16.8752 27.266 16.625 27.8701 16.625 28.5C16.625 29.1299 16.8752 29.734 17.3206 30.1794C17.766 30.6248 18.3701 30.875 19 30.875Z" fill="#E61773"/>
</svg>
