<svg width="121" height="52" viewBox="0 0 121 52" fill="none" xmlns="http://www.w3.org/2000/svg">
<path d="M71.7862 38.7841C71.8946 38.8784 71.9452 38.9945 71.9452 39.1397C71.9452 39.2703 71.8946 39.3792 71.7862 39.4735C71.6778 39.5824 71.5404 39.6332 71.3597 39.6332H67.7748V51.4339C67.7748 51.6008 67.7169 51.7387 67.6013 51.8403C67.4929 51.9347 67.37 51.9855 67.2327 51.9855C67.0809 51.9855 66.9508 51.9347 66.8424 51.8403C66.734 51.7315 66.6834 51.6008 66.6834 51.4339V39.6332H62.9394C62.6575 39.6332 62.5129 39.4663 62.5129 39.1397C62.5129 38.8058 62.6575 38.6462 62.9394 38.6462H71.3597C71.5404 38.6462 71.6778 38.6897 71.7862 38.7841Z" fill="black"/>
<path d="M79.7151 38.5518C79.8885 38.4212 80.0909 38.3559 80.315 38.3559C80.5174 38.3559 80.7053 38.4212 80.8788 38.5518C81.0667 38.697 81.2112 38.9002 81.3052 39.1687L85.678 51.1799C85.7358 51.3541 85.7286 51.521 85.6635 51.6734C85.6057 51.804 85.5045 51.8911 85.36 51.9419C85.2154 51.9855 85.0781 51.9855 84.9335 51.9274C84.789 51.8476 84.6878 51.717 84.6155 51.5355L83.1338 47.406H77.4672L75.9639 51.5355C75.8916 51.7097 75.7832 51.8403 75.6314 51.9274C75.5013 52 75.364 52.0073 75.2266 51.9637C75.0821 51.9129 74.9809 51.8186 74.9086 51.6807C74.8363 51.5428 74.8436 51.3759 74.9231 51.1872L79.2814 39.176C79.3826 38.9075 79.5272 38.697 79.7151 38.5518ZM82.7652 46.4408L80.3294 39.7058H80.2788L77.8286 46.4408H82.7652Z" fill="black"/>
<path d="M96.8231 39.4082C97.3651 39.938 97.7049 40.642 97.8494 41.5202C97.8855 41.7451 97.8494 41.9266 97.741 42.0717C97.6615 42.2024 97.5314 42.2822 97.3724 42.304C97.2206 42.3185 97.076 42.2749 96.9459 42.1806C96.8158 42.0863 96.7363 41.9411 96.7146 41.7524C96.5701 40.9105 96.2521 40.3009 95.7461 39.909C95.2402 39.5316 94.5319 39.3429 93.6139 39.3429C92.6237 39.3429 91.8504 39.5244 91.2866 39.8945C90.6867 40.2864 90.3831 40.8452 90.3831 41.5782C90.3831 42.3112 90.6216 42.8773 91.0914 43.2765C91.5829 43.7047 92.472 44.0458 93.7585 44.307C95.4426 44.6481 96.6279 45.1417 97.3218 45.7803C97.994 46.3972 98.3264 47.2681 98.3264 48.4003C98.3264 49.5107 97.8711 50.3961 96.9532 51.0565C96.1075 51.6807 95.0378 51.9927 93.7585 51.9927C92.3129 51.9927 91.1999 51.6879 90.4265 51.071C89.5808 50.4179 89.0966 49.4091 88.9809 48.0447C88.9593 47.856 89.0026 47.7036 89.1255 47.5874C89.2195 47.4931 89.3351 47.4423 89.4797 47.4278C89.6314 47.4133 89.7615 47.4568 89.87 47.5511C89.9856 47.66 90.0579 47.8124 90.0796 48.0084C90.1591 49.068 90.5277 49.8445 91.171 50.3308C91.7492 50.7807 92.602 51.0057 93.7296 51.0057C94.5752 51.0057 95.3341 50.8098 96.0063 50.4179C96.8158 49.9606 97.2206 49.322 97.2206 48.5237C97.2206 47.6528 97.011 47.0068 96.5845 46.5932C96.0786 46.0996 95.0739 45.6787 93.5706 45.3376C92.125 44.9965 91.077 44.5828 90.4265 44.0966C89.6604 43.5087 89.2773 42.6814 89.2773 41.6145C89.2773 40.584 89.6676 39.7856 90.4409 39.205C91.2288 38.6389 92.3129 38.3559 93.6862 38.3559C95.045 38.3414 96.0931 38.697 96.8231 39.4082Z" fill="black"/>
<path d="M103.249 38.4865C103.357 38.3922 103.487 38.3414 103.639 38.3414C103.783 38.3414 103.906 38.3922 104.008 38.4865C104.123 38.5954 104.181 38.7405 104.181 38.9292V51.4194C104.181 51.5936 104.123 51.7387 104.008 51.8476C103.899 51.9419 103.776 51.9927 103.639 51.9927C103.487 51.9927 103.357 51.9419 103.249 51.8476C103.14 51.7387 103.09 51.6008 103.09 51.4194V38.9292C103.09 38.7405 103.147 38.5881 103.249 38.4865Z" fill="black"/>
<path d="M119.301 40.4315C120.241 41.6726 120.711 43.2474 120.711 45.1634C120.711 47.0794 120.241 48.647 119.301 49.8735C118.246 51.2815 116.75 51.9855 114.82 51.9855C112.876 51.9855 111.38 51.2815 110.317 49.8735C109.399 48.647 108.944 47.0721 108.944 45.1634C108.944 43.2547 109.399 41.6726 110.317 40.4315C111.373 39.0381 112.876 38.3414 114.82 38.3414C116.743 38.3414 118.239 39.0381 119.301 40.4315ZM111.149 41.0702C110.404 42.1008 110.035 43.4652 110.035 45.1634C110.035 46.8544 110.404 48.2188 111.149 49.2566C111.987 50.4251 113.208 51.013 114.82 51.013C116.418 51.013 117.646 50.4251 118.492 49.2566C119.244 48.2043 119.62 46.8399 119.62 45.1634C119.62 43.4724 119.244 42.108 118.492 41.0702C117.646 39.9017 116.418 39.3139 114.82 39.3139C113.201 39.3139 111.98 39.9017 111.149 41.0702Z" fill="black"/>
<path d="M9.44669 21.6056V24.9005H27.4149V33.7256H0V0.791077H27.4149V9.6162H9.44669V12.7805H27.4149V21.6056H9.44669Z" fill="#E61773"/>
<path d="M57.88 12.3886L50.8474 33.7329H40.873L53.153 0.791077H62.5997L74.8797 33.7329H64.9054L57.88 12.3886Z" fill="#E61773"/>
<path d="M91.5975 4.94962C95.0018 1.64745 99.0493 0 103.74 0C108.518 0 112.587 1.64745 115.955 4.94962C119.316 8.25178 121 12.1999 121 16.8011C121 21.4895 119.316 25.4811 115.955 28.7833C112.594 32.0854 108.518 33.7329 103.74 33.7329C99.0493 33.7329 95.0018 32.0854 91.5903 28.7833C88.186 25.4883 86.4802 21.4895 86.4802 16.8011C86.4875 12.1999 88.186 8.25178 91.5975 4.94962ZM98.2543 11.104C96.7075 12.6208 95.9341 14.544 95.9341 16.8664C95.9341 19.1017 96.7075 20.996 98.2543 22.5636C99.801 24.1239 101.651 24.9077 103.805 24.9077C105.959 24.9077 107.788 24.1239 109.291 22.5636C110.794 21.0032 111.553 19.1017 111.553 16.8664C111.553 14.544 110.802 12.6208 109.291 11.104C107.788 9.58716 105.959 8.82512 103.805 8.82512C101.651 8.82512 99.801 9.58716 98.2543 11.104Z" fill="#E61773"/>
<path d="M83.9505 24.6465V33.7329H74.8796V0.791077H83.9505V17.8172" fill="#E61773"/>
<path d="M38.9214 24.6465V33.7329H29.8506V0.791077H38.9214V17.8172" fill="#E61773"/>
<path d="M46.5829 0.791077L29.8506 13.6078V0.791077H46.5829Z" fill="#E61773"/>
</svg>
