<svg width="18" height="14" viewBox="0 0 18 14" fill="none" xmlns="http://www.w3.org/2000/svg">
<path d="M18 6.97586C18 7.5069 17.5737 7.94138 17.0526 7.94138H3.22105L7.5079 12.3345C7.88685 12.7207 7.88685 13.3241 7.5079 13.7104C7.31842 13.9035 7.08158 14 6.84474 14C6.60789 14 6.34737 13.9035 6.18158 13.7104L0.284213 7.67586C-0.094734 7.28965 -0.094734 6.6862 0.284213 6.32413L6.18158 0.289652C6.56053 -0.0965547 7.15263 -0.0965547 7.53158 0.289652C7.91052 0.675859 7.91052 1.27931 7.53158 1.66552L3.22105 6.01034H17.0526C17.5737 6.01034 18 6.44483 18 6.97586Z" fill="#262626"/>
</svg>
