<svg width="46" height="46" viewBox="0 0 46 46" fill="none" xmlns="http://www.w3.org/2000/svg">
<path fill-rule="evenodd" clip-rule="evenodd" d="M46 23C46 29.1 43.5768 34.9501 39.2635 39.2635C34.9501 43.5768 29.1 46 23 46C16.9 46 11.0499 43.5768 6.73654 39.2635C2.42321 34.9501 0 29.1 0 23C0 16.9 2.42321 11.0499 6.73654 6.73654C11.0499 2.42321 16.9 0 23 0C29.1 0 34.9501 2.42321 39.2635 6.73654C43.5768 11.0499 46 16.9 46 23ZM34.5863 14.2887C34.3809 14.0841 34.1364 13.923 33.8673 13.815C33.5982 13.707 33.3102 13.6544 33.0203 13.6603C32.7304 13.6662 32.4447 13.7305 32.1803 13.8494C31.9159 13.9682 31.6781 14.1392 31.4812 14.352L21.4964 27.0739L15.479 21.0536C15.0702 20.6727 14.5296 20.4654 13.971 20.4752C13.4124 20.4851 12.8794 20.7114 12.4843 21.1065C12.0893 21.5015 11.863 22.0345 11.8531 22.5931C11.8433 23.1517 12.0506 23.6924 12.4315 24.1011L20.0387 31.7112C20.2437 31.9158 20.4877 32.077 20.7563 32.1852C21.0249 32.2934 21.3125 32.3464 21.602 32.341C21.8915 32.3357 22.177 32.2721 22.4414 32.154C22.7058 32.0359 22.9437 31.8658 23.1409 31.6538L34.6179 17.3075C35.0091 16.9007 35.2253 16.3567 35.2199 15.7923C35.2145 15.2278 34.9881 14.688 34.5891 14.2887H34.5863Z" fill="#E61773"/>
</svg>
