<svg width="40" height="37" viewBox="0 0 40 37" fill="none" xmlns="http://www.w3.org/2000/svg">
<mask id="path-1-inside-1" fill="white">
<path fill-rule="evenodd" clip-rule="evenodd" d="M0 3C0 1.34315 1.34315 0 3 0H37C38.6569 0 40 1.34315 40 3V21C40 22.6569 38.6569 24 37 24H21V33.2676C21.5978 33.6134 22 34.2597 22 35C22 36.1046 21.1046 37 20 37C18.8954 37 18 36.1046 18 35C18 34.2597 18.4022 33.6134 19 33.2676V24H3C1.34315 24 0 22.6569 0 21V3Z"/>
</mask>
<path fill-rule="evenodd" clip-rule="evenodd" d="M0 3C0 1.34315 1.34315 0 3 0H37C38.6569 0 40 1.34315 40 3V21C40 22.6569 38.6569 24 37 24H21V33.2676C21.5978 33.6134 22 34.2597 22 35C22 36.1046 21.1046 37 20 37C18.8954 37 18 36.1046 18 35C18 34.2597 18.4022 33.6134 19 33.2676V24H3C1.34315 24 0 22.6569 0 21V3Z" fill="#EB5757"/>
<path d="M21 24V23.5H20.5V24H21ZM21 33.2676H20.5V33.556L20.7496 33.7004L21 33.2676ZM19 33.2676L19.2504 33.7004L19.5 33.556V33.2676H19ZM19 24H19.5V23.5H19V24ZM3 -0.5C1.067 -0.5 -0.5 1.067 -0.5 3H0.5C0.5 1.61929 1.61929 0.5 3 0.5V-0.5ZM37 -0.5H3V0.5H37V-0.5ZM40.5 3C40.5 1.067 38.933 -0.5 37 -0.5V0.5C38.3807 0.5 39.5 1.61929 39.5 3H40.5ZM40.5 21V3H39.5V21H40.5ZM37 24.5C38.933 24.5 40.5 22.933 40.5 21H39.5C39.5 22.3807 38.3807 23.5 37 23.5V24.5ZM21 24.5H37V23.5H21V24.5ZM21.5 33.2676V24H20.5V33.2676H21.5ZM20.7496 33.7004C21.1993 33.9605 21.5 34.4454 21.5 35H22.5C22.5 34.074 21.9963 33.2663 21.2504 32.8348L20.7496 33.7004ZM21.5 35C21.5 35.8284 20.8284 36.5 20 36.5V37.5C21.3807 37.5 22.5 36.3807 22.5 35H21.5ZM20 36.5C19.1716 36.5 18.5 35.8284 18.5 35H17.5C17.5 36.3807 18.6193 37.5 20 37.5V36.5ZM18.5 35C18.5 34.4454 18.8007 33.9605 19.2504 33.7004L18.7496 32.8348C18.0037 33.2663 17.5 34.074 17.5 35H18.5ZM18.5 24V33.2676H19.5V24H18.5ZM3 24.5H19V23.5H3V24.5ZM-0.5 21C-0.5 22.933 1.067 24.5 3 24.5V23.5C1.61929 23.5 0.5 22.3807 0.5 21H-0.5ZM-0.5 3V21H0.5V3H-0.5Z" fill="#4F4F4F" mask="url(#path-1-inside-1)"/>
<path d="M14.5 15.609V12.619H18.049V11.761H11.094V8.108H17.932V7.237H10.028V12.619H13.421V15.609H8.676V16.493H19.271V15.609H14.5ZM27.46 12.125C25.757 11.605 24.626 10.279 24.626 8.823V8.589H27.2V7.731H24.626V6.236H23.56V7.731H20.973V8.589H23.56V8.823C23.56 10.409 22.39 11.787 20.661 12.333L21.194 13.178C22.546 12.71 23.599 11.761 24.106 10.526C24.613 11.657 25.627 12.541 26.94 12.957L27.46 12.125ZM22.117 14.894H28.63V17.962H29.696V14.023H22.117V14.894ZM31.425 9.408H29.696V6.314H28.63V13.412H29.696V10.305H31.425V9.408Z" fill="white"/>
</svg>
