<svg width="62" height="62" viewBox="0 0 62 62" fill="none" xmlns="http://www.w3.org/2000/svg">
<path fill-rule="evenodd" clip-rule="evenodd" d="M62 31C62 39.2217 58.7339 47.1067 52.9203 52.9203C47.1067 58.7339 39.2217 62 31 62C22.7783 62 14.8933 58.7339 9.07969 52.9203C3.26606 47.1067 0 39.2217 0 31C0 22.7783 3.26606 14.8933 9.07969 9.07969C14.8933 3.26606 22.7783 0 31 0C39.2217 0 47.1067 3.26606 52.9203 9.07969C58.7339 14.8933 62 22.7783 62 31ZM46.6162 19.2587C46.3395 18.9829 46.0099 18.7657 45.6472 18.6202C45.2846 18.4747 44.8963 18.4038 44.5056 18.4117C44.1149 18.4197 43.7299 18.5063 43.3735 18.6665C43.017 18.8267 42.6966 19.0571 42.4312 19.344L28.9734 36.4909L20.863 28.3766C20.3121 27.8633 19.5834 27.5838 18.8305 27.5971C18.0776 27.6104 17.3592 27.9154 16.8267 28.4478C16.2942 28.9803 15.9892 29.6987 15.9759 30.4516C15.9627 31.2045 16.2421 31.9332 16.7555 32.4841L27.0087 42.7412C27.285 43.017 27.6139 43.2342 27.9759 43.3801C28.3379 43.5259 28.7256 43.5973 29.1158 43.5901C29.506 43.5829 29.8907 43.4971 30.2471 43.338C30.6034 43.1788 30.9241 42.9495 31.1899 42.6637L46.6589 23.3275C47.1862 22.7792 47.4776 22.0459 47.4703 21.2852C47.4631 20.5245 47.1578 19.7969 46.6201 19.2587H46.6162Z" fill="#E61773"/>
</svg>
