<svg width="38" height="130" viewBox="0 0 38 130" fill="none" xmlns="http://www.w3.org/2000/svg">
<path d="M36.88 48H1V129.63H36.88V48Z" fill="#424242"/>
<path d="M10.84 53.9502V54.4702H13.69V55.8702H9.33997V50.6602H13.69V52.0602H10.84V52.5602H13.69V53.9602H10.84V53.9502Z" fill="#E71D73"/>
<path d="M18.5199 52.4901L17.3999 55.8601H15.8199L17.7699 50.6501H19.2699L21.2199 55.8601H19.6399L18.5199 52.4901Z" fill="#E71D73"/>
<path d="M23.8799 51.32C24.4199 50.8 25.0599 50.54 25.8099 50.54C26.5699 50.54 27.2099 50.8 27.7499 51.32C28.2799 51.84 28.5499 52.47 28.5499 53.19C28.5499 53.93 28.2799 54.56 27.7499 55.08C27.2199 55.6 26.5699 55.86 25.8099 55.86C25.0699 55.86 24.4199 55.6 23.8799 55.08C23.3399 54.56 23.0699 53.93 23.0699 53.19C23.0699 52.47 23.3399 51.84 23.8799 51.32ZM24.9299 52.29C24.6799 52.53 24.5599 52.83 24.5599 53.2C24.5599 53.55 24.6799 53.85 24.9299 54.1C25.1799 54.35 25.4699 54.47 25.8099 54.47C26.1499 54.47 26.4399 54.35 26.6799 54.1C26.9199 53.85 27.0399 53.55 27.0399 53.2C27.0399 52.83 26.9199 52.53 26.6799 52.29C26.4399 52.05 26.1499 51.93 25.8099 51.93C25.4699 51.93 25.1799 52.05 24.9299 52.29Z" fill="#E71D73"/>
<path d="M22.66 54.4302V55.8702H21.22V50.6602H22.66V53.3502" fill="#E71D73"/>
<path d="M15.52 54.4302V55.8702H14.08V50.6602H15.52V53.3502" fill="#E71D73"/>
<path d="M16.73 50.6602L14.08 52.6902V50.6602H16.73Z" fill="#E71D73"/>
<path d="M33.09 58.8101H4.79004V97.7001H33.09V58.8101Z" fill="#CDCCCC"/>
<path d="M33.09 59.4202L4.79004 87.7202V97.7002H5.14004L33.09 69.7502V59.4202Z" fill="#E2E2E1"/>
<path d="M33.09 78.52L13.92 97.7H22.18L33.09 86.79V78.52Z" fill="#E2E2E1"/>
<path d="M11.3401 74.9399C12.7373 74.9399 13.8701 73.8072 13.8701 72.4099C13.8701 71.0126 12.7373 69.8799 11.3401 69.8799C9.94278 69.8799 8.81006 71.0126 8.81006 72.4099C8.81006 73.8072 9.94278 74.9399 11.3401 74.9399Z" fill="#0B0C0C"/>
<path d="M25.41 74.9399C26.8073 74.9399 27.94 73.8072 27.94 72.4099C27.94 71.0126 26.8073 69.8799 25.41 69.8799C24.0127 69.8799 22.88 71.0126 22.88 72.4099C22.88 73.8072 24.0127 74.9399 25.41 74.9399Z" fill="#0B0C0C"/>
<path d="M27.1499 87.6299C26.8499 87.6299 26.5499 87.4899 26.3499 87.2299C26.2799 87.1399 23.3399 83.3999 18.5499 83.3999C13.6799 83.3999 10.7299 87.1999 10.6999 87.2299C10.3699 87.6699 9.73994 87.7499 9.29994 87.4199C8.85994 87.0899 8.76994 86.4599 9.10994 86.0199C9.24994 85.8299 12.6699 81.3899 18.5099 81.3899C24.3899 81.3899 27.8099 85.8299 27.9599 86.0199C28.2899 86.4599 28.2099 87.0899 27.7599 87.4199C27.5699 87.5599 27.3599 87.6299 27.1499 87.6299Z" fill="#0B0C0C"/>
<path d="M30.16 79.5199C30.16 80.7442 29.8457 81.5715 29.3737 82.0905C28.9041 82.607 28.2495 82.8499 27.5 82.8499C26.7505 82.8499 26.0959 82.607 25.6262 82.0905C25.1542 81.5715 24.84 80.7442 24.84 79.5199C24.84 78.3351 25.5286 76.994 26.2522 75.921C26.6099 75.3906 26.9681 74.9373 27.2369 74.6166C27.3393 74.4944 27.4286 74.3917 27.4997 74.3115C27.5709 74.392 27.6603 74.4951 27.7629 74.6178C28.0317 74.9393 28.3899 75.3936 28.7476 75.9246C29.4715 76.9992 30.16 78.3401 30.16 79.5199Z" fill="#2ABDEE" stroke="white" stroke-width="0.5"/>
<path d="M19 38C8.5063 38 0 29.4937 0 19C0 8.5082 8.5063 0 19 0C29.4937 0 38 8.5082 38 19C38 29.4937 29.4937 38 19 38ZM19 9.5C18.4961 9.5 18.0128 9.70018 17.6565 10.0565C17.3002 10.4128 17.1 10.8961 17.1 11.4V20.9C17.1 21.4039 17.3002 21.8872 17.6565 22.2435C18.0128 22.5998 18.4961 22.8 19 22.8C19.5039 22.8 19.9872 22.5998 20.3435 22.2435C20.6998 21.8872 20.9 21.4039 20.9 20.9V11.4C20.9 10.8961 20.6998 10.4128 20.3435 10.0565C19.9872 9.70018 19.5039 9.5 19 9.5ZM19 28.5C19.5039 28.5 19.9872 28.2998 20.3435 27.9435C20.6998 27.5872 20.9 27.1039 20.9 26.6C20.9 26.0961 20.6998 25.6128 20.3435 25.2565C19.9872 24.9002 19.5039 24.7 19 24.7C18.4961 24.7 18.0128 24.9002 17.6565 25.2565C17.3002 25.6128 17.1 26.0961 17.1 26.6C17.1 27.1039 17.3002 27.5872 17.6565 27.9435C18.0128 28.2998 18.4961 28.5 19 28.5Z" fill="#E61773"/>
</svg>
