<svg width="123" height="46" viewBox="0 0 123 46" fill="none" xmlns="http://www.w3.org/2000/svg">
<path d="M5.53839 32.886H8.21239V31.696H1.33839V32.886H4.09639V34.104C4.09639 36.204 2.80839 38.598 0.876391 39.522L1.70239 40.67C3.15839 39.956 4.27839 38.444 4.83839 36.68C5.41239 38.276 6.49039 39.676 7.90439 40.348L8.70239 39.214C6.78439 38.304 5.53839 36.064 5.53839 34.104V32.886ZM12.8744 35.42H10.9004V30.436H9.45839V43.078H10.9004V36.61H12.8744V35.42ZM19.7053 31.64C21.6653 31.64 22.7153 32.018 22.7153 32.746C22.7153 33.474 21.6653 33.852 19.7053 33.852C17.7453 33.852 16.6953 33.474 16.6953 32.746C16.6953 32.018 17.7453 31.64 19.7053 31.64ZM19.7053 34.93C22.5333 34.93 24.2133 34.16 24.2133 32.746C24.2133 31.332 22.5333 30.562 19.7053 30.562C16.8633 30.562 15.1973 31.332 15.1973 32.746C15.1973 34.16 16.8633 34.93 19.7053 34.93ZM20.9513 37.786H18.4173V36.708H20.9513V37.786ZM25.4313 36.708V35.56H13.9793V36.708H16.9753V37.786H15.3373V38.878H22.5753V39.788H15.3653V42.966H24.3533V41.86H16.7933V40.81H23.9893V37.786H22.3933V36.708H25.4313ZM28.0202 36.624C30.1062 36.316 31.8142 35.28 32.5842 33.88C33.3542 35.28 35.0762 36.316 37.1622 36.624L37.6802 35.49C35.2722 35.168 33.4942 33.782 33.4102 32.312H37.2322V31.15H27.9222V32.312H31.7722C31.6882 33.782 29.9102 35.168 27.5022 35.49L28.0202 36.624ZM38.3102 37.548H26.8722V38.71H31.8282V43.092H33.2702V38.71H38.2962L38.3102 37.548ZM47.7591 34.916H49.0751V38.402H50.4471V30.422H49.0751V33.726H47.7591V30.674H46.4151V37.968H47.7591V34.916ZM45.9811 31.85H43.5451V30.548H42.1311V31.85H39.6811V32.984H45.9811V31.85ZM41.4311 35.714C41.4311 35.028 41.9911 34.58 42.8451 34.58C43.6991 34.58 44.2731 35.028 44.2731 35.714C44.2731 36.4 43.6991 36.848 42.8451 36.848C41.9911 36.848 41.4311 36.4 41.4311 35.714ZM45.5611 35.714C45.5611 34.412 44.4411 33.53 42.8451 33.53C41.2631 33.53 40.1431 34.412 40.1431 35.714C40.1431 37.03 41.2631 37.898 42.8451 37.898C44.4411 37.898 45.5611 37.03 45.5611 35.714ZM46.2471 41.986C44.4411 41.986 43.4051 41.58 43.4051 40.824C43.4051 40.068 44.4411 39.676 46.2471 39.676C48.0671 39.676 49.0751 40.068 49.0751 40.824C49.0751 41.58 48.0671 41.986 46.2471 41.986ZM46.2471 38.584C43.5731 38.584 41.9631 39.396 41.9631 40.824C41.9631 42.252 43.5731 43.078 46.2471 43.078C48.9071 43.078 50.5171 42.252 50.5171 40.824C50.5171 39.396 48.9071 38.584 46.2471 38.584ZM60.3525 31.472H58.8965V33.558C58.8965 35.924 57.6645 38.346 55.6905 39.298L56.6005 40.46C58.0285 39.704 59.0785 38.234 59.6245 36.442C60.1705 38.164 61.2065 39.592 62.6345 40.292L63.4885 39.144C61.5565 38.248 60.3525 35.91 60.3525 33.558V31.472ZM64.8045 30.422V33.082H62.2705V34.272H64.8045V36.204H62.2705V37.394H64.8045V43.092H66.2745V30.422H64.8045ZM78.8035 34.398H71.5375V33.53H78.4115V32.564H71.5375V31.738H78.7195V30.73H70.0955V35.406H78.8035V34.398ZM71.4535 40.978H78.6495V38.08H69.9975V39.102H77.2355V39.998H70.0255V42.966H79.0135V41.93H71.4535V40.978ZM68.6675 36.204V37.282H80.0775V36.204H68.6675ZM85.6064 31.318C83.6324 31.318 82.1764 32.564 82.1764 34.356C82.1764 36.148 83.6324 37.394 85.6064 37.394C87.5804 37.394 89.0504 36.148 89.0504 34.356C89.0504 32.564 87.5804 31.318 85.6064 31.318ZM85.6064 32.55C86.7824 32.55 87.6364 33.25 87.6364 34.356C87.6364 35.448 86.7824 36.162 85.6064 36.162C84.4444 36.162 83.5904 35.448 83.5904 34.356C83.5904 33.25 84.4444 32.55 85.6064 32.55ZM90.4784 30.422V43.092H91.9344V30.422H90.4784ZM81.7704 40.418C84.0104 40.418 87.0344 40.39 89.8204 39.858L89.7224 38.808C87.0064 39.214 83.8564 39.228 81.5884 39.228L81.7704 40.418ZM102.218 31.486H100.776V33.558C100.776 35.994 99.4598 38.416 97.4438 39.326L98.2978 40.53C99.8238 39.788 100.944 38.29 101.518 36.456C102.092 38.164 103.198 39.564 104.654 40.25L105.494 39.102C103.506 38.206 102.218 35.882 102.218 33.558V31.486ZM106.502 30.422V43.106H107.958V30.422H106.502ZM117.869 36.442C115.937 35.798 114.873 34.244 114.873 32.648V32.424H117.519V31.248H110.729V32.424H113.417V32.648C113.417 34.384 112.311 35.994 110.309 36.666L111.065 37.8C112.549 37.282 113.599 36.246 114.159 34.916C114.705 36.12 115.713 37.086 117.127 37.548L117.869 36.442ZM111.989 39.83H118.863V43.078H120.305V38.668H111.989V39.83ZM122.097 33.656H120.305V30.422H118.863V38.052H120.305V34.846H122.097V33.656Z" fill="#E61773"/>
<path d="M24.7142 15.2932V17.6254H37.485V23.8721H18V0.560059H37.485V6.80675H24.7142V9.04652H37.485V15.2932H24.7142Z" fill="#E61773"/>
<path d="M59.1379 8.76912L54.1395 23.8773H47.0503L55.7782 0.560059H62.4924L71.2203 23.8773H64.1311L59.1379 8.76912Z" fill="#E61773"/>
<path d="M83.1026 3.50349C85.5222 1.16612 88.399 0 91.7329 0C95.1285 0 98.0207 1.16612 100.415 3.50349C102.803 5.84086 104 8.63544 104 11.8923C104 15.2109 102.803 18.0363 100.415 20.3737C98.0258 22.711 95.1285 23.8772 91.7329 23.8772C88.399 23.8772 85.5222 22.711 83.0975 20.3737C80.6779 18.0414 79.4656 15.2109 79.4656 11.8923C79.4707 8.63544 80.6779 5.84086 83.1026 3.50349ZM87.8339 7.85974C86.7345 8.93339 86.1849 10.2947 86.1849 11.9386C86.1849 13.5208 86.7345 14.8616 87.8339 15.9712C88.9332 17.0757 90.2483 17.6305 91.7792 17.6305C93.31 17.6305 94.6097 17.0757 95.6782 15.9712C96.7467 14.8667 97.2861 13.5208 97.2861 11.9386C97.2861 10.2947 96.7519 8.93852 95.6782 7.85974C94.6097 6.78609 93.31 6.24669 91.7792 6.24669C90.2483 6.24669 88.9332 6.78609 87.8339 7.85974Z" fill="#E61773"/>
<path d="M77.6673 17.4456V23.8773H71.2202V0.560059H77.6673V12.6117" fill="#E61773"/>
<path d="M45.6636 17.4456V23.8773H39.2166V0.560059H45.6636V12.6117" fill="#E61773"/>
<path d="M51.1089 0.560059L39.2166 9.63215V0.560059H51.1089Z" fill="#E61773"/>
</svg>
