<svg width="57" height="37" viewBox="0 0 57 37" fill="none" xmlns="http://www.w3.org/2000/svg">
<g filter="url(#filter0_d)">
<path d="M21.813 31.1984V5.00049" stroke="#CFCECE" stroke-width="0.1" stroke-linejoin="round"/>
<path d="M55.2195 24.1567V24.8763H54.7036H48.1055V24.1567H54.6765H55.2195Z" fill="#CDCCCC"/>
<path d="M48.1056 24.8765H54.7038C54.7038 28.3521 51.8618 31.1986 48.3817 31.1986H48.1056C48.1056 29.0988 46.3995 27.3972 44.3042 27.3972C42.2044 27.3972 40.5028 29.0988 40.5028 31.1986H37.1313V18.6992H51.6672H52.6582H54.5001L54.6811 24.1569H48.1101V24.8765H48.1056ZM45.5668 21.9259V21.2652H43.0326V21.9259H45.5668Z" fill="#FDFDFD"/>
<path d="M54.1153 7.48045L54.4954 18.7036H52.6536V5.00049H53.6084C53.9343 5.76077 54.1153 6.60251 54.1153 7.48045Z" fill="#A7DAEC"/>
<path d="M53.6086 5.00082H52.6538H51.6627H37.1269H28.1438H28.0759H19.0929H2.61108C3.57954 2.74261 5.82417 1.15869 8.42179 1.15869H11.0194H13.5537H43.0326H45.5669H47.7934C50.391 1.15869 52.6402 2.74713 53.6086 5.00082Z" fill="#E61873"/>
<path d="M52.6539 5.00049H51.6628V18.6991H52.6539V5.00049Z" fill="#CDCCCC"/>
<path d="M51.6628 5.00049H37.127V18.6991H51.6628V5.00049Z" fill="#A7DAEC"/>
<path d="M44.2994 27.3975C46.3993 27.3975 48.1008 29.099 48.1008 31.1989C48.1008 33.2987 46.3947 35.0003 44.2994 35.0003C42.1996 35.0003 40.498 33.2942 40.498 31.1989C40.498 29.099 42.1996 27.3975 44.2994 27.3975ZM46.7115 31.1989C46.7115 29.8684 45.6345 28.7868 44.2994 28.7868C42.9644 28.7868 41.8874 29.8684 41.8874 31.1989C41.8874 32.5293 42.969 33.6109 44.2994 33.6109C45.6299 33.6109 46.7115 32.5293 46.7115 31.1989Z" fill="#B5B5B5"/>
<path d="M44.3 28.7866C45.6305 28.7866 46.7121 29.8682 46.7121 31.1987C46.7121 32.5292 45.635 33.6108 44.3 33.6108C42.965 33.6108 41.8879 32.5337 41.8879 31.1987C41.8879 29.8682 42.9695 28.7866 44.3 28.7866Z" fill="#424242"/>
<path d="M45.5667 21.2607H43.0325V21.9215H45.5667V21.2607Z" fill="#CDCCCC"/>
<path d="M45.5667 0H43.0325V1.15852H45.5667V0Z" fill="#424242"/>
<path d="M37.1269 18.6992H28.1438V31.1986H37.1269V18.6992Z" fill="#FAFAFA"/>
<path d="M37.1269 5.00049V18.6991H28.1438V5.00049H37.1269ZM36.1901 18.1017V5.80602H29.076V18.1017H36.1901Z" fill="#FAFAFA"/>
<path d="M36.1902 5.80615H29.0762V18.1019H36.1902V5.80615Z" fill="#A7DAEC"/>
<path d="M28.0761 18.6992H19.093V31.1986H28.0761V18.6992Z" fill="#FAFAFA"/>
<path d="M28.0761 5.00049V18.6991H19.093V5.00049H28.0761ZM27.1438 18.1017V5.80602H20.0253V18.1017H27.1438Z" fill="#FAFAFA"/>
<path d="M27.1394 5.80615H20.0254V18.1019H27.1394V5.80615Z" fill="#A7DAEC"/>
<path d="M19.093 18.6992V31.1986H16.0429C16.0429 29.0988 14.3368 27.3972 12.2415 27.3972C10.1417 27.3972 8.43556 29.0988 8.43556 31.1986H7.8382C4.36264 31.1986 1.51611 28.3566 1.51611 24.8765H8.11878V24.1569H1.53874L1.71976 18.6992H19.093ZM13.5041 21.9259V21.2652H10.9698V21.9259H13.5041Z" fill="#FDFDFD"/>
<path d="M19.0929 5.00049V18.6991H1.72412L2.10426 7.47592C2.10426 6.59798 2.28528 5.76077 2.61111 5.00049H19.0929Z" fill="#A7DAEC"/>
<path d="M12.2366 27.3975C14.3364 27.3975 16.038 29.099 16.038 31.1989C16.038 33.2987 14.3319 35.0003 12.2366 35.0003C10.1368 35.0003 8.43066 33.2942 8.43066 31.1989C8.43066 29.099 10.1368 27.3975 12.2366 27.3975ZM14.6487 31.1989C14.6487 29.8684 13.5716 28.7868 12.2366 28.7868C10.9016 28.7868 9.82451 29.8684 9.82451 31.1989C9.82451 32.5293 10.9016 33.6109 12.2366 33.6109C13.5716 33.6109 14.6487 32.5293 14.6487 31.1989Z" fill="#B5B5B5"/>
<path d="M12.2368 28.7866C13.5673 28.7866 14.6489 29.8682 14.6489 31.1987C14.6489 32.5292 13.5718 33.6108 12.2368 33.6108C10.9018 33.6108 9.82471 32.5337 9.82471 31.1987C9.82471 29.8682 10.9018 28.7866 12.2368 28.7866Z" fill="#424242"/>
<path d="M13.5536 0H11.0193V1.15852H13.5536V0Z" fill="#424242"/>
<path d="M13.5035 21.2607H10.9692V21.9215H13.5035V21.2607Z" fill="#CDCCCC"/>
<path d="M8.11857 24.1567V24.8763H1.5159H1V24.1567H1.53853H8.11857Z" fill="#CDCCCC"/>
<path d="M19.0929 5.00049H12.1825L1.83726 15.3457L1.72412 18.6991H5.98259L19.0929 5.59332V5.00049Z" fill="#DAEFF7"/>
<path d="M4.557 5.00049H3.56592V18.6991H4.557V5.00049Z" fill="#CDCCCC"/>
<path d="M37.127 18.6991H39.3354L53.4684 5.00049H46.5083L37.127 14.0967V18.6991Z" fill="#DAEFF7"/>
<path d="M52.6539 5.00049H51.6628V18.6991H52.6539V5.00049Z" fill="#CDCCCC"/>
</g>
<defs>
<filter id="filter0_d" x="0" y="0" width="56.2195" height="37.0003" filterUnits="userSpaceOnUse" color-interpolation-filters="sRGB">
<feFlood flood-opacity="0" result="BackgroundImageFix"/>
<feColorMatrix in="SourceAlpha" type="matrix" values="0 0 0 0 0 0 0 0 0 0 0 0 0 0 0 0 0 0 127 0"/>
<feOffset dy="1"/>
<feGaussianBlur stdDeviation="0.5"/>
<feColorMatrix type="matrix" values="0 0 0 0 0 0 0 0 0 0 0 0 0 0 0 0 0 0 0.25 0"/>
<feBlend mode="normal" in2="BackgroundImageFix" result="effect1_dropShadow"/>
<feBlend mode="normal" in="SourceGraphic" in2="effect1_dropShadow" result="shape"/>
</filter>
</defs>
</svg>
