<svg width="42" height="37" viewBox="0 0 42 37" fill="none" xmlns="http://www.w3.org/2000/svg">
<mask id="path-1-inside-1" fill="white">
<path fill-rule="evenodd" clip-rule="evenodd" d="M0 3C0 1.34315 1.34315 0 3 0H39C40.6569 0 42 1.34315 42 3V21C42 22.6569 40.6569 24 39 24H22V33.2676C22.5978 33.6134 23 34.2597 23 35C23 36.1046 22.1046 37 21 37C19.8954 37 19 36.1046 19 35C19 34.2597 19.4022 33.6134 20 33.2676V24H3C1.34315 24 0 22.6569 0 21V3Z"/>
</mask>
<path fill-rule="evenodd" clip-rule="evenodd" d="M0 3C0 1.34315 1.34315 0 3 0H39C40.6569 0 42 1.34315 42 3V21C42 22.6569 40.6569 24 39 24H22V33.2676C22.5978 33.6134 23 34.2597 23 35C23 36.1046 22.1046 37 21 37C19.8954 37 19 36.1046 19 35C19 34.2597 19.4022 33.6134 20 33.2676V24H3C1.34315 24 0 22.6569 0 21V3Z" fill="#27AE60"/>
<path d="M22 24V23.5H21.5V24H22ZM22 33.2676H21.5V33.556L21.7496 33.7004L22 33.2676ZM20 33.2676L20.2504 33.7004L20.5 33.556V33.2676H20ZM20 24H20.5V23.5H20V24ZM3 -0.5C1.067 -0.5 -0.5 1.067 -0.5 3H0.5C0.5 1.61929 1.61929 0.5 3 0.5V-0.5ZM39 -0.5H3V0.5H39V-0.5ZM42.5 3C42.5 1.067 40.933 -0.5 39 -0.5V0.5C40.3807 0.5 41.5 1.61929 41.5 3H42.5ZM42.5 21V3H41.5V21H42.5ZM39 24.5C40.933 24.5 42.5 22.933 42.5 21H41.5C41.5 22.3807 40.3807 23.5 39 23.5V24.5ZM22 24.5H39V23.5H22V24.5ZM22.5 33.2676V24H21.5V33.2676H22.5ZM21.7496 33.7004C22.1993 33.9605 22.5 34.4454 22.5 35H23.5C23.5 34.074 22.9963 33.2663 22.2504 32.8348L21.7496 33.7004ZM22.5 35C22.5 35.8284 21.8284 36.5 21 36.5V37.5C22.3807 37.5 23.5 36.3807 23.5 35H22.5ZM21 36.5C20.1716 36.5 19.5 35.8284 19.5 35H18.5C18.5 36.3807 19.6193 37.5 21 37.5V36.5ZM19.5 35C19.5 34.4454 19.8007 33.9605 20.2504 33.7004L19.7496 32.8348C19.0037 33.2663 18.5 34.074 18.5 35H19.5ZM19.5 24V33.2676H20.5V24H19.5ZM3 24.5H20V23.5H3V24.5ZM-0.5 21C-0.5 22.933 1.067 24.5 3 24.5V23.5C1.61929 23.5 0.5 22.3807 0.5 21H-0.5ZM-0.5 3V21H0.5V3H-0.5Z" fill="#4F4F4F" mask="url(#path-1-inside-1)"/>
<path d="M10.56 10.955C12.523 10.799 14.252 10.201 14.967 9.122C15.682 10.201 17.398 10.799 19.348 10.955L19.673 10.149C17.502 10.006 15.747 9.291 15.565 8.134H19.153V7.328H15.5V6.223H14.434V7.328H10.768V8.134H14.369C14.187 9.291 12.406 10.006 10.248 10.149L10.56 10.955ZM20.219 12.294V11.475H9.702V12.294H14.421V13.373H10.95V14.166H17.827V15.154H10.989V17.832H19.231V17.026H12.029V15.921H18.88V13.373H15.5V12.294H20.219ZM26.484 11.02H23.182V9.278H26.484V11.02ZM27.524 6.782H26.484V8.459H23.182V6.782H22.129V11.878H27.524V6.782ZM24.365 15.713H30.696V12.879H23.286V13.724H29.643V14.92H23.325V17.832H31.125V16.987H24.365V15.713ZM30.696 8.81V6.314H29.63V12.333H30.696V9.694H32.425V8.81H30.696Z" fill="white"/>
</svg>
