<svg width="17" height="15" viewBox="0 0 17 15" fill="none" xmlns="http://www.w3.org/2000/svg">
<path d="M2.41465 4.1875V13.6275C2.41465 13.8375 2.58465 14.0075 2.79465 14.0075H4.22465C4.43465 14.0075 4.60465 13.8375 4.60465 13.6275V4.1875H6.23465C6.91465 4.1875 7.25465 3.3775 6.77465 2.9075L4.04465 0.2175C3.74465 -0.0725 3.26465 -0.0725 2.96465 0.2175L0.224646 2.9075C-0.255354 3.3775 0.0846459 4.1875 0.764646 4.1875H2.41465Z" fill="#E61873"/>
<path d="M14.5846 9.82001L14.5846 0.380007C14.5846 0.170007 14.4146 6.44976e-06 14.2046 6.4314e-06L12.7746 6.30639e-06C12.5646 6.28803e-06 12.3946 0.170006 12.3946 0.380006L12.3946 9.82001L10.7646 9.82001C10.0846 9.82001 9.74462 10.63 10.2246 11.1L12.9546 13.79C13.2546 14.08 13.7346 14.08 14.0346 13.79L16.7746 11.1C17.2546 10.63 16.9146 9.82001 16.2346 9.82001L14.5846 9.82001Z" fill="#E61873"/>
</svg>
