  <svg width="94" height="32" viewBox="0 0 94 32" fill="none" xmlns="http://www.w3.org/2000/svg">
<g filter="url(#filter0_d)">
<path d="M10.7142 17.2931V19.6253H23.485V25.872H4V2.55994H23.485V8.80663H10.7142V11.0464H23.485V17.2931H10.7142Z" fill="#E61773"/>
<path d="M45.1379 10.769L40.1395 25.8772H33.0503L41.7782 2.55994H48.4924L57.2203 25.8772H50.1311L45.1379 10.769Z" fill="#E61773"/>
<path d="M69.1026 5.50349C71.5222 3.16612 74.399 2 77.7329 2C81.1285 2 84.0207 3.16612 86.4146 5.50349C88.8033 7.84086 90.0003 10.6354 90.0003 13.8923C90.0003 17.2109 88.8033 20.0363 86.4146 22.3737C84.0258 24.711 81.1285 25.8772 77.7329 25.8772C74.399 25.8772 71.5222 24.711 69.0975 22.3737C66.6779 20.0414 65.4656 17.2109 65.4656 13.8923C65.4707 10.6354 66.6779 7.84086 69.1026 5.50349ZM73.8339 9.85974C72.7345 10.9334 72.1849 12.2947 72.1849 13.9386C72.1849 15.5208 72.7345 16.8616 73.8339 17.9712C74.9332 19.0757 76.2483 19.6305 77.7792 19.6305C79.31 19.6305 80.6097 19.0757 81.6782 17.9712C82.7467 16.8667 83.2861 15.5208 83.2861 13.9386C83.2861 12.2947 82.7519 10.9385 81.6782 9.85974C80.6097 8.78609 79.31 8.24669 77.7792 8.24669C76.2483 8.24669 74.9332 8.78609 73.8339 9.85974Z" fill="#E61773"/>
<path d="M63.6673 19.4455V25.8772H57.2202V2.55994H63.6673V14.6115" fill="#E61773"/>
<path d="M31.6636 19.4455V25.8772H25.2166V2.55994H31.6636V14.6115" fill="#E61773"/>
<path d="M37.1089 2.55994L25.2166 11.632V2.55994H37.1089Z" fill="#E61773"/>
</g>
<defs>
<filter id="filter0_d" x="0" y="0" width="94.0003" height="31.8772" filterUnits="userSpaceOnUse" color-interpolation-filters="sRGB">
<feFlood flood-opacity="0" result="BackgroundImageFix"/>
<feColorMatrix in="SourceAlpha" type="matrix" values="0 0 0 0 0 0 0 0 0 0 0 0 0 0 0 0 0 0 127 0"/>
<feOffset dy="2"/>
<feGaussianBlur stdDeviation="2"/>
<feColorMatrix type="matrix" values="0 0 0 0 0 0 0 0 0 0 0 0 0 0 0 0 0 0 0.4 0"/>
<feBlend mode="normal" in2="BackgroundImageFix" result="effect1_dropShadow"/>
<feBlend mode="normal" in="SourceGraphic" in2="effect1_dropShadow" result="shape"/>
</filter>
</defs>
</svg>
