<svg width="202" height="178" viewBox="0 0 202 178" fill="none" xmlns="http://www.w3.org/2000/svg">
<mask id="path-1-inside-1" fill="white">
<path fill-rule="evenodd" clip-rule="evenodd" d="M8 0C5.23858 0 3 2.23857 3 5V68C3 70.7614 5.23857 73 8 73H183.264L186.053 81.2119C186.36 82.1165 187.64 82.1165 187.947 81.2119L190.736 73H194C196.761 73 199 70.7614 199 68V5C199 2.23858 196.761 0 194 0H8Z"/>
</mask>
<path d="M183.264 73L184.211 72.6784L183.981 72H183.264V73ZM186.053 81.2119L187 80.8903L186.053 81.2119ZM187.947 81.2119L187 80.8903L187.947 81.2119ZM190.736 73V72H190.019L189.789 72.6784L190.736 73ZM4 5C4 2.79086 5.79086 1 8 1V-1C4.68629 -1 2 1.68629 2 5H4ZM4 68V5H2V68H4ZM8 72C5.79086 72 4 70.2091 4 68H2C2 71.3137 4.68629 74 8 74V72ZM183.264 72H8V74H183.264V72ZM187 80.8903L184.211 72.6784L182.317 73.3216L185.106 81.5335L187 80.8903ZM187 80.8903L185.106 81.5335C185.721 83.3426 188.279 83.3426 188.894 81.5335L187 80.8903ZM189.789 72.6784L187 80.8903L188.894 81.5335L191.683 73.3216L189.789 72.6784ZM194 72H190.736V74H194V72ZM198 68C198 70.2091 196.209 72 194 72V74C197.314 74 200 71.3137 200 68H198ZM198 5V68H200V5H198ZM194 1C196.209 1 198 2.79086 198 5H200C200 1.68629 197.314 -1 194 -1V1ZM8 1H194V-1H8V1Z" fill="#C4C4C4" mask="url(#path-1-inside-1)"/>
<path d="M37.476 25.064H41.9V24.14H37.476V21.55H42.18V20.612H36.328V29.012H37.308C39.674 29.012 41.298 28.928 43.23 28.592L43.118 27.668C41.27 27.976 39.702 28.074 37.476 28.074V25.064ZM47.514 24.518H45.442V19.478H44.294V32.022H45.442V25.484H47.514V24.518ZM53.1129 20.57H51.9789V22.824C51.9789 25.204 50.4529 27.612 48.6049 28.494L49.3049 29.432C50.7749 28.676 51.9789 27.108 52.5529 25.218C53.1549 27.01 54.3589 28.494 55.7869 29.194L56.4729 28.27C54.6109 27.43 53.1129 25.12 53.1129 22.824V20.57ZM57.7889 19.478V32.064H58.9369V19.478H57.7889ZM63.7519 23.594C63.7519 22.152 65.2219 21.214 67.2239 21.214C69.2259 21.214 70.6819 22.152 70.6819 23.594C70.6819 25.036 69.2259 25.974 67.2239 25.974C65.2219 25.974 63.7519 25.036 63.7519 23.594ZM67.7979 29.474V26.856C70.1359 26.688 71.7739 25.442 71.7739 23.594C71.7739 21.592 69.8699 20.304 67.2239 20.304C64.5639 20.304 62.6459 21.592 62.6459 23.594C62.6459 25.442 64.2979 26.688 66.6359 26.856V29.474H61.5259V30.426H72.9359V29.474H67.7979ZM83.2108 21.676H75.8748V24.364H84.5688V23.538H77.0088V22.46H84.3448V19.842H75.8468V20.654H83.2108V21.676ZM76.9388 29.88H84.3868V27.206H75.7768V28.032H83.2528V29.082H75.8048V31.868H84.7788V31.042H76.9388V29.88ZM74.4188 25.316V26.184H85.8008V25.316H74.4188ZM99.5565 19.478V32.064H100.705V19.478H99.5565ZM94.0825 20.444C92.2205 20.444 90.8905 22.152 90.8905 24.826C90.8905 27.5 92.2205 29.208 94.0825 29.208C95.9445 29.208 97.2745 27.5 97.2745 24.826C97.2745 22.152 95.9445 20.444 94.0825 20.444ZM94.0825 21.48C95.3005 21.48 96.1685 22.796 96.1685 24.826C96.1685 26.87 95.3005 28.186 94.0825 28.186C92.8505 28.186 91.9825 26.87 91.9825 24.826C91.9825 22.796 92.8505 21.48 94.0825 21.48ZM108.977 31.14C107.003 31.14 105.841 30.65 105.841 29.796C105.841 28.942 107.003 28.452 108.977 28.452C110.937 28.452 112.113 28.942 112.113 29.796C112.113 30.65 110.937 31.14 108.977 31.14ZM108.977 27.556C106.289 27.556 104.679 28.354 104.679 29.796C104.679 31.238 106.289 32.022 108.977 32.022C111.679 32.022 113.275 31.238 113.275 29.796C113.275 28.354 111.679 27.556 108.977 27.556ZM107.241 24.224C107.759 24.308 108.347 24.364 108.977 24.364C109.621 24.364 110.209 24.308 110.727 24.224V25.694H107.241V24.224ZM105.743 22.04C105.743 21.13 106.975 20.598 108.977 20.598C110.979 20.598 112.211 21.13 112.211 22.04C112.211 22.936 110.979 23.482 108.977 23.482C106.975 23.482 105.743 22.936 105.743 22.04ZM111.861 25.694V23.916C112.827 23.524 113.387 22.88 113.387 22.04C113.387 20.57 111.707 19.702 108.977 19.702C106.261 19.702 104.567 20.57 104.567 22.04C104.567 22.894 105.113 23.524 106.107 23.93V25.694H103.293V26.618H114.661V25.694H111.861ZM119.294 28.172C118.314 28.172 117.628 27.374 117.628 26.254C117.628 25.162 118.314 24.364 119.294 24.364C120.26 24.364 120.96 25.162 120.96 26.254C120.96 27.374 120.26 28.172 119.294 28.172ZM119.294 23.398C117.74 23.398 116.606 24.574 116.606 26.254C116.606 27.962 117.74 29.124 119.294 29.124C120.848 29.124 121.982 27.962 121.982 26.254C121.982 24.574 120.848 23.398 119.294 23.398ZM119.854 19.842H118.72V21.62H116.172V22.558H122.402V21.62H119.854V19.842ZM125.72 19.464V24.77H124.11V19.758H123.032V31.42H124.11V25.708H125.72V32.022H126.826V19.464H125.72ZM130.185 25.582C132.131 25.246 133.979 24.196 134.749 22.712C135.505 24.196 137.367 25.246 139.313 25.582L139.761 24.672C137.549 24.35 135.379 22.908 135.379 21.256V21.186H139.313V20.262H130.143V21.186H134.105V21.256C134.105 22.908 131.935 24.35 129.751 24.672L130.185 25.582ZM140.419 26.632H129.079V27.57H134.147V32.036H135.295V27.57H140.433L140.419 26.632ZM146.34 20.57H145.192V22.81C145.192 25.148 143.764 27.556 141.944 28.48L142.644 29.39C144.058 28.62 145.22 27.052 145.766 25.19C146.326 26.968 147.488 28.48 148.902 29.208L149.588 28.284C147.768 27.416 146.34 25.12 146.34 22.81V20.57ZM151.128 19.478V22.208H148.412V23.16H151.128V25.344H148.412V26.296H151.128V32.064H152.29V19.478H151.128ZM159.219 20.556H158.071V22.81C158.071 25.134 156.643 27.556 154.823 28.466L155.523 29.376C156.937 28.62 158.099 27.038 158.645 25.176C159.219 26.94 160.367 28.438 161.795 29.152L162.467 28.242C160.647 27.374 159.219 25.092 159.219 22.81V20.556ZM164.021 19.478V23.734H161.109V24.672H164.021V32.05H165.169V19.478H164.021ZM48.2947 41.942H51.8367V41.004H47.1607V48.942H47.9867C49.8627 48.942 51.1367 48.886 52.6347 48.564L52.5367 47.612C51.1647 47.906 49.9747 47.976 48.2947 47.99V41.942ZM56.2747 39.478V44.518H54.4967V39.758H53.4187V51.406H54.4967V45.456H56.2747V52.036H57.3807V39.478H56.2747ZM66.8576 44.98C65.2196 45.302 63.7916 45.4 61.3136 45.4V41.494H65.7236V40.57H60.1656V46.338H61.1456C63.7776 46.338 65.2616 46.254 66.9836 45.904L66.8576 44.98ZM62.6716 47.654H61.5236V51.756H69.8956V50.818H62.6716V47.654ZM69.3356 43.202V39.478H68.1876V48.564H69.3356V44.154H71.1976V43.202H69.3356ZM76.5305 48.284C75.3685 48.284 74.5285 47.472 74.5285 46.338C74.5285 45.218 75.3685 44.406 76.5305 44.406C77.6925 44.406 78.5465 45.218 78.5465 46.338C78.5465 47.472 77.6925 48.284 76.5305 48.284ZM76.5305 43.454C74.7385 43.454 73.4365 44.644 73.4365 46.338C73.4365 48.06 74.7385 49.236 76.5305 49.236C78.3505 49.236 79.6385 48.06 79.6385 46.338C79.6385 44.644 78.3505 43.454 76.5305 43.454ZM77.0905 39.604H75.9425V41.508H72.7505V42.446H80.2825V41.508H77.0905V39.604ZM81.5985 39.478V52.036H82.7465V39.478H81.5985ZM89.0263 40.276V41.214H93.5903C93.3663 43.342 91.5323 44.994 88.4663 45.82L88.9143 46.73C92.6103 45.722 94.8223 43.468 94.8223 40.276H89.0263ZM91.4483 48.116H97.0903V50.93H91.4483V48.116ZM90.3143 51.854H98.2243V47.192H90.3143V51.854ZM100.086 42.544H98.2243V39.464H97.0763V46.604H98.2243V43.496H100.086V42.544ZM105.573 40.57H104.439V42.824C104.439 45.106 103.011 47.514 101.205 48.438L101.891 49.362C103.305 48.606 104.467 47.038 105.013 45.204C105.587 46.926 106.721 48.396 108.051 49.11L108.765 48.2C107.001 47.318 105.573 45.036 105.573 42.824V40.57ZM113.091 44.574H111.019V39.492H109.871V52.036H111.019V45.526H113.091V44.574ZM121.686 40.766H118.55V39.352H117.402V40.766H114.28V41.69H121.686V40.766ZM116.072 44.476C116.072 43.664 116.828 43.146 117.976 43.146C119.124 43.146 119.894 43.664 119.894 44.476C119.894 45.302 119.124 45.806 117.976 45.806C116.828 45.806 116.072 45.302 116.072 44.476ZM120.986 44.476C120.986 43.146 119.768 42.292 117.976 42.292C116.184 42.292 114.98 43.146 114.98 44.476C114.98 45.82 116.184 46.674 117.976 46.674C119.768 46.674 120.986 45.82 120.986 44.476ZM122.848 50.944H117.22V49.558H122.848V50.944ZM122.848 48.662H117.22V47.332H116.086V51.868H123.982V47.332H122.848V48.662ZM125.844 42.67H123.982V39.478H122.834V46.772H123.982V43.636H125.844V42.67ZM129.049 40.696H127.901V48.788H128.937C130.939 48.788 132.913 48.648 135.097 48.2L134.971 47.22C132.885 47.64 130.939 47.808 129.049 47.808V40.696ZM136.259 39.478V52.022H137.407V39.478H136.259ZM141.676 41.634H146.366V40.682H140.528V48.928H141.522C143.888 48.928 145.54 48.844 147.458 48.48L147.332 47.528C145.512 47.85 143.902 47.948 141.676 47.948V41.634ZM151.728 44.434H149.656V39.478H148.508V52.064H149.656V45.386H151.728V44.434ZM154.079 51.182C154.583 51.182 155.003 50.79 155.003 50.216C155.003 49.628 154.583 49.222 154.079 49.222C153.575 49.222 153.155 49.628 153.155 50.216C153.155 50.79 153.575 51.182 154.079 51.182Z" fill="#4F4F4F"/>
<path d="M122.41 162.74H107.29C106.71 162.74 106.25 162.27 106.25 161.7C106.25 161.12 106.72 160.66 107.29 160.66H122.41C122.99 160.66 123.45 161.13 123.45 161.7C123.46 162.27 122.99 162.74 122.41 162.74Z" fill="#DAEFF7"/>
<path d="M130.04 162.74H126.46C125.88 162.74 125.42 162.27 125.42 161.7C125.42 161.12 125.89 160.66 126.46 160.66H130.04C130.62 160.66 131.08 161.13 131.08 161.7C131.09 162.27 130.62 162.74 130.04 162.74Z" fill="#DAEFF7"/>
<path d="M127.55 127.97H117.65C117.22 127.97 116.87 127.62 116.87 127.19C116.87 126.76 117.22 126.41 117.65 126.41H127.55C127.98 126.41 128.33 126.76 128.33 127.19C128.33 127.62 127.98 127.97 127.55 127.97Z" fill="#DAEFF7"/>
<path d="M132.63 127.97H130.42C129.99 127.97 129.64 127.62 129.64 127.19C129.64 126.76 129.99 126.41 130.42 126.41H132.63C133.06 126.41 133.41 126.76 133.41 127.19C133.41 127.62 133.06 127.97 132.63 127.97Z" fill="#DAEFF7"/>
<path d="M114.36 177.36H25.7002C25.1302 177.36 24.6602 176.9 24.6602 176.32C24.6602 175.75 25.1202 175.28 25.7002 175.28H114.36C114.93 175.28 115.4 175.74 115.4 176.32C115.4 176.9 114.93 177.36 114.36 177.36Z" fill="#6E6E6D"/>
<path d="M135.58 177.36H118.77C118.2 177.36 117.73 176.9 117.73 176.32C117.73 175.75 118.19 175.28 118.77 175.28H135.58C136.15 175.28 136.62 175.74 136.62 176.32C136.61 176.9 136.15 177.36 135.58 177.36Z" fill="#6E6E6D"/>
<path d="M139.66 177.36H138.52C137.95 177.36 137.48 176.9 137.48 176.32C137.48 175.75 137.94 175.28 138.52 175.28H139.66C140.23 175.28 140.7 175.74 140.7 176.32C140.69 176.9 140.23 177.36 139.66 177.36Z" fill="#6E6E6D"/>
<path d="M45.9902 168.94V111.05" stroke="#CFCECE" stroke-width="0.1" stroke-linejoin="round"/>
<path d="M119.81 153.38V154.97H118.67H104.09V153.38H118.61H119.81Z" fill="#CDCCCC"/>
<path d="M104.09 154.97H118.67C118.67 162.65 112.39 168.94 104.7 168.94H104.09C104.09 164.3 100.32 160.54 95.6898 160.54C91.0499 160.54 87.2898 164.3 87.2898 168.94H79.8398V141.32H111.96H114.15H118.22L118.62 153.38H104.1V154.97H104.09ZM98.4799 148.45V146.99H92.8798V148.45H98.4799Z" fill="#FDFDFD"/>
<path d="M117.37 116.53L118.21 141.33H114.14V111.05H116.25C116.97 112.73 117.37 114.59 117.37 116.53Z" fill="#A7DAEC"/>
<path d="M116.25 111.05H114.14H111.95H79.8301H59.9801H59.8301H39.9801H3.56006C5.70006 106.06 10.6601 102.56 16.4001 102.56H22.1401H27.7401H92.8801H98.4801H103.4C109.14 102.56 114.11 106.07 116.25 111.05Z" fill="#E61873"/>
<path d="M114.14 111.05H111.95V141.32H114.14V111.05Z" fill="#CDCCCC"/>
<path d="M111.95 111.05H79.8301V141.32H111.95V111.05Z" fill="#A7DAEC"/>
<path d="M95.6798 160.54C100.32 160.54 104.08 164.3 104.08 168.94C104.08 173.58 100.31 177.34 95.6798 177.34C91.0398 177.34 87.2798 173.57 87.2798 168.94C87.2798 164.3 91.0398 160.54 95.6798 160.54ZM101.01 168.94C101.01 166 98.6298 163.61 95.6798 163.61C92.7298 163.61 90.3498 166 90.3498 168.94C90.3498 171.88 92.7398 174.27 95.6798 174.27C98.6198 174.27 101.01 171.88 101.01 168.94Z" fill="#B5B5B5"/>
<path d="M95.6801 163.61C98.6201 163.61 101.01 166 101.01 168.94C101.01 171.88 98.6301 174.27 95.6801 174.27C92.7301 174.27 90.3501 171.89 90.3501 168.94C90.3501 166 92.7401 163.61 95.6801 163.61Z" fill="#424242"/>
<path d="M98.4799 146.98H92.8799V148.44H98.4799V146.98Z" fill="#CDCCCC"/>
<path d="M98.4799 100H92.8799V102.56H98.4799V100Z" fill="#424242"/>
<path d="M79.83 141.32H59.98V168.94H79.83V141.32Z" fill="#FAFAFA"/>
<path d="M79.83 111.05V141.32H59.98V111.05H79.83ZM77.76 140V112.83H62.04V140H77.76Z" fill="#FAFAFA"/>
<path d="M77.76 112.83H62.04V140H77.76V112.83Z" fill="#A7DAEC"/>
<path d="M59.83 141.32H39.98V168.94H59.83V141.32Z" fill="#FAFAFA"/>
<path d="M59.83 111.05V141.32H39.98V111.05H59.83ZM57.77 140V112.83H42.04V140H57.77Z" fill="#FAFAFA"/>
<path d="M57.76 112.83H42.04V140H57.76V112.83Z" fill="#A7DAEC"/>
<path d="M39.9801 141.32V168.94H33.2401C33.2401 164.3 29.4701 160.54 24.8401 160.54C20.2001 160.54 16.4301 164.3 16.4301 168.94H15.1101C7.43014 168.94 1.14014 162.66 1.14014 154.97H15.7301V153.38H1.19014L1.59014 141.32H39.9801ZM27.6301 148.45V146.99H22.0301V148.45H27.6301Z" fill="#FDFDFD"/>
<path d="M39.9801 111.05V141.32H1.6001L2.4401 116.52C2.4401 114.58 2.8401 112.73 3.5601 111.05H39.9801Z" fill="#A7DAEC"/>
<path d="M24.8299 160.54C29.4699 160.54 33.2299 164.3 33.2299 168.94C33.2299 173.58 29.4599 177.34 24.8299 177.34C20.1899 177.34 16.4199 173.57 16.4199 168.94C16.4199 164.3 20.1899 160.54 24.8299 160.54ZM30.1599 168.94C30.1599 166 27.7799 163.61 24.8299 163.61C21.8799 163.61 19.4999 166 19.4999 168.94C19.4999 171.88 21.8799 174.27 24.8299 174.27C27.7799 174.27 30.1599 171.88 30.1599 168.94Z" fill="#B5B5B5"/>
<path d="M24.83 163.61C27.77 163.61 30.16 166 30.16 168.94C30.16 171.88 27.78 174.27 24.83 174.27C21.88 174.27 19.5 171.89 19.5 168.94C19.5 166 21.88 163.61 24.83 163.61Z" fill="#424242"/>
<path d="M27.7401 100H22.1401V102.56H27.7401V100Z" fill="#424242"/>
<path d="M27.6298 146.98H22.0298V148.44H27.6298V146.98Z" fill="#CDCCCC"/>
<path d="M15.73 153.38V154.97H1.14H0V153.38H1.19H15.73Z" fill="#CDCCCC"/>
<path d="M39.9801 111.05H24.7101L1.8501 133.91L1.6001 141.32H11.0101L39.9801 112.36V111.05Z" fill="#DAEFF7"/>
<path d="M7.85992 111.05H5.66992V141.32H7.85992V111.05Z" fill="#CDCCCC"/>
<path d="M79.8301 141.32H84.7101L115.94 111.05H100.56L79.8301 131.15V141.32Z" fill="#DAEFF7"/>
<path d="M114.14 111.05H111.95V141.32H114.14V111.05Z" fill="#CDCCCC"/>
<path opacity="0.6" d="M40.1198 141.32H39.8198V168.94H40.1198V141.32Z" fill="#CFCECE"/>
<path opacity="0.6" d="M79.9802 141.32H79.6802V168.94H79.9802V141.32Z" fill="#CFCECE"/>
<path opacity="0.6" d="M60.1499 111.05H59.6499V168.94H60.1499V111.05Z" fill="#CFCECE"/>
<path d="M201.31 109.05H172.47V174.65H201.31V109.05Z" fill="#424242"/>
<path d="M180.37 113.83V114.25H182.66V115.37H179.16V111.18H182.66V112.3H180.37V112.7H182.66V113.82H180.37V113.83Z" fill="#E71D73"/>
<path d="M186.55 112.66L185.65 115.37H184.38L185.95 111.18H187.16L188.73 115.37H187.46L186.55 112.66Z" fill="#E71D73"/>
<path d="M190.85 111.72C191.28 111.3 191.8 111.09 192.4 111.09C193.01 111.09 193.53 111.3 193.96 111.72C194.39 112.14 194.6 112.64 194.6 113.23C194.6 113.83 194.39 114.33 193.96 114.75C193.53 115.17 193.01 115.38 192.4 115.38C191.8 115.38 191.29 115.17 190.85 114.75C190.42 114.33 190.2 113.82 190.2 113.23C190.2 112.64 190.42 112.14 190.85 111.72ZM191.7 112.5C191.5 112.69 191.4 112.94 191.4 113.23C191.4 113.51 191.5 113.76 191.7 113.95C191.9 114.15 192.13 114.25 192.41 114.25C192.69 114.25 192.92 114.15 193.11 113.95C193.3 113.75 193.4 113.51 193.4 113.23C193.4 112.93 193.3 112.69 193.11 112.5C192.92 112.31 192.68 112.21 192.41 112.21C192.14 112.21 191.9 112.31 191.7 112.5Z" fill="#E71D73"/>
<path d="M189.88 114.22V115.37H188.72V111.18H189.88V113.34" fill="#E71D73"/>
<path d="M184.13 114.22V115.37H182.97V111.18H184.13V113.34" fill="#E71D73"/>
<path d="M185.11 111.19L182.97 112.82V111.19H185.11Z" fill="#E71D73"/>
<path d="M198.26 117.74H175.51V149H198.26V117.74Z" fill="#CDCCCC"/>
<path d="M198.26 118.22L175.51 140.97V148.99H175.79L198.26 126.52V118.22Z" fill="#E2E2E1"/>
<path d="M198.26 133.58L182.85 148.99H189.49L198.26 140.22V133.58Z" fill="#E2E2E1"/>
<path d="M138.46 141.52H123.09C122.58 141.52 122.17 141.11 122.17 140.6C122.17 140.09 122.58 139.68 123.09 139.68H138.46C138.97 139.68 139.38 140.09 139.38 140.6C139.38 141.1 138.97 141.52 138.46 141.52Z" fill="#DAEFF7"/>
<path d="M146.09 141.52H142.27C141.76 141.52 141.35 141.11 141.35 140.6C141.35 140.09 141.76 139.68 142.27 139.68H146.09C146.6 139.68 147.01 140.09 147.01 140.6C147.01 141.1 146.6 141.52 146.09 141.52Z" fill="#DAEFF7"/>
<path d="M180.78 130.69C181.901 130.69 182.81 129.781 182.81 128.66C182.81 127.539 181.901 126.63 180.78 126.63C179.659 126.63 178.75 127.539 178.75 128.66C178.75 129.781 179.659 130.69 180.78 130.69Z" fill="#0B0C0C"/>
<path d="M192.08 130.69C193.201 130.69 194.11 129.781 194.11 128.66C194.11 127.539 193.201 126.63 192.08 126.63C190.959 126.63 190.05 127.539 190.05 128.66C190.05 129.781 190.959 130.69 192.08 130.69Z" fill="#0B0C0C"/>
<path d="M179.62 135.89C179.86 135.89 180.1 136 180.26 136.21C180.31 136.28 182.68 139.29 186.53 139.29C190.44 139.29 192.82 136.24 192.84 136.21C193.11 135.86 193.61 135.79 193.97 136.06C194.32 136.33 194.39 136.83 194.13 137.18C194.02 137.33 191.27 140.9 186.58 140.9C181.85 140.9 179.1 137.33 178.99 137.18C178.72 136.83 178.79 136.32 179.15 136.05C179.28 135.94 179.45 135.89 179.62 135.89Z" fill="#0B0C0C"/>
</svg>
