<svg width="31" height="39" viewBox="0 0 31 39" fill="none" xmlns="http://www.w3.org/2000/svg">
<path d="M15.5 38.7435C15.5 38.7435 31.0553 27.9749 30.9999 15.4937C30.9937 6.95522 24.0446 0 15.5 0C6.95537 0 0.000153693 6.95522 0.000153693 15.4875C-0.0552909 27.9749 14.9086 38.3245 15.5 38.7435Z" fill="#212121"/>
<path d="M23.8967 17.9148H23.3485V9.73978C23.3485 7.74377 21.6112 6.12356 19.4735 6.12356H16.3871V5.80321C16.3871 5.58759 16.2023 5.4151 15.9743 5.4151H15.0194C14.7915 5.4151 14.6067 5.58759 14.6067 5.80321V6.12356H11.5203C9.38257 6.12356 7.64531 7.74377 7.64531 9.73978V17.9148H7.09702C6.77052 17.9086 6.50562 18.1612 6.50562 18.4631V18.8697C6.50562 19.1715 6.77052 19.4179 7.09702 19.4179H7.64531V22.1532C7.64531 23.1451 8.27368 23.9952 9.17312 24.3956V25.0425C9.17312 25.486 9.56123 25.8495 10.0417 25.8495H10.1588C10.6393 25.8495 11.0274 25.486 11.0274 25.0425V24.6421H19.9725V25.0425C19.9725 25.486 20.3606 25.8495 20.8411 25.8495H20.9582C21.4387 25.8495 21.8268 25.486 21.8268 25.0425V24.3956C22.7324 23.9952 23.3546 23.1451 23.3546 22.1532V19.4179H23.9029C24.2294 19.4179 24.4881 19.1715 24.4881 18.8697V18.4631C24.4881 18.1612 24.2232 17.9148 23.8967 17.9148ZM12.0809 7.67601H18.9129C20.2559 7.67601 21.3401 8.71713 21.3401 9.99236V17.7053H9.65364V9.99236C9.65364 8.71097 10.7502 7.67601 12.0809 7.67601ZM10.1034 21.3277C9.55507 21.3277 9.11767 20.9149 9.11767 20.4036C9.11767 19.8923 9.56123 19.4796 10.1034 19.4796C10.6516 19.4796 11.089 19.8923 11.089 20.4036C11.0952 20.9088 10.6516 21.3277 10.1034 21.3277ZM20.8966 21.3277C20.3483 21.3277 19.9109 20.9149 19.9109 20.4036C19.9109 19.8923 20.3544 19.4796 20.8966 19.4796C21.4387 19.4796 21.8823 19.8923 21.8823 20.4036C21.8823 20.9088 21.4449 21.3277 20.8966 21.3277Z" fill="white"/>
</svg>
