<svg width="36" height="82" viewBox="0 0 36 82" fill="none" xmlns="http://www.w3.org/2000/svg">
<path d="M35.88 0H0V81.63H35.88V0Z" fill="#424242"/>
<path d="M32.09 10.8101H3.79004V49.7001H32.09V10.8101Z" fill="#CDCCCC"/>
<path d="M32.09 11.4199L3.79004 39.7199V49.6999H4.14004L32.09 21.7499V11.4199Z" fill="#E2E2E1"/>
<path d="M32.0899 30.52L12.9199 49.7H21.1799L32.0899 38.79V30.52Z" fill="#E2E2E1"/>
<path d="M10.3401 26.9399C11.7373 26.9399 12.8701 25.8072 12.8701 24.4099C12.8701 23.0126 11.7373 21.8799 10.3401 21.8799C8.94278 21.8799 7.81006 23.0126 7.81006 24.4099C7.81006 25.8072 8.94278 26.9399 10.3401 26.9399Z" fill="#0B0C0C"/>
<path d="M25.53 26.9399C26.9273 26.9399 28.06 25.8072 28.06 24.4099C28.06 23.0126 26.9273 21.8799 25.53 21.8799C24.1327 21.8799 23 23.0126 23 24.4099C23 25.8072 24.1327 26.9399 25.53 26.9399Z" fill="#0B0C0C"/>
</svg>
