<svg width="36" height="82" viewBox="0 0 36 82" fill="none" xmlns="http://www.w3.org/2000/svg">
<path d="M35.88 0H0V81.63H35.88V0Z" fill="#424242"/>
<path d="M32.09 10.8101H3.79004V49.7001H32.09V10.8101Z" fill="#CDCCCC"/>
<path d="M32.09 11.4202L3.79004 39.7202V49.7002H4.14004L32.09 21.7502V11.4202Z" fill="#E2E2E1"/>
<path d="M32.0899 30.52L12.9199 49.7H21.1799L32.0899 38.79V30.52Z" fill="#E2E2E1"/>
<path d="M10.3401 26.9399C11.7373 26.9399 12.8701 25.8072 12.8701 24.4099C12.8701 23.0126 11.7373 21.8799 10.3401 21.8799C8.94278 21.8799 7.81006 23.0126 7.81006 24.4099C7.81006 25.8072 8.94278 26.9399 10.3401 26.9399Z" fill="#0B0C0C"/>
<path d="M24.4099 26.9399C25.8072 26.9399 26.9399 25.8072 26.9399 24.4099C26.9399 23.0126 25.8072 21.8799 24.4099 21.8799C23.0126 21.8799 21.8799 23.0126 21.8799 24.4099C21.8799 25.8072 23.0126 26.9399 24.4099 26.9399Z" fill="#0B0C0C"/>
<path d="M26.1502 39.6299C25.8502 39.6299 25.5502 39.4899 25.3502 39.2299C25.2802 39.1399 22.3402 35.3999 17.5502 35.3999C12.6802 35.3999 9.73019 39.1999 9.70019 39.2299C9.37019 39.6699 8.74019 39.7499 8.30019 39.4199C7.86019 39.0899 7.77019 38.4599 8.11019 38.0199C8.25019 37.8299 11.6702 33.3899 17.5102 33.3899C23.3902 33.3899 26.8102 37.8299 26.9602 38.0199C27.2902 38.4599 27.2102 39.0899 26.7602 39.4199C26.5702 39.5599 26.3602 39.6299 26.1502 39.6299Z" fill="#0B0C0C"/>
<path d="M29.1598 31.5199C29.1598 32.7442 28.8456 33.5715 28.3736 34.0905C27.904 34.607 27.2494 34.8499 26.4998 34.8499C25.7503 34.8499 25.0957 34.607 24.6261 34.0905C24.1541 33.5715 23.8398 32.7442 23.8398 31.5199C23.8398 30.3351 24.5284 28.994 25.2521 27.921C25.6098 27.3906 25.9679 26.9373 26.2368 26.6166C26.3392 26.4944 26.4284 26.3917 26.4996 26.3115C26.5708 26.392 26.6602 26.4951 26.7627 26.6178C27.0316 26.9393 27.3898 27.3936 27.7475 27.9246C28.4713 28.9992 29.1598 30.3401 29.1598 31.5199Z" fill="#2ABDEE" stroke="white" stroke-width="0.5"/>
<mask id="path-9-outside-1" maskUnits="userSpaceOnUse" x="9" y="57" width="17" height="17" fill="black">
<rect fill="white" x="9" y="57" width="17" height="17"/>
<path fill-rule="evenodd" clip-rule="evenodd" d="M17.7003 58.0062C14.1014 57.8354 13.1855 61.2757 13.1855 61.2757C13.1855 61.2757 14.5635 61.1455 15.2524 61.6498H15.374C16.1846 60.8934 17.3194 61.0154 17.3194 61.0154C17.3194 61.0154 17.3356 61.1537 17.2788 61.1781C15.9009 61.3895 15.3335 62.4631 15.3335 62.4631C15.3335 62.4631 15.2849 62.5038 15.2281 62.4794C14.8796 61.7311 13.6232 61.5441 13.6232 61.5441C13.6232 61.5441 13.2017 61.5685 12.8937 61.6091C12.529 61.6091 10.4215 62.1866 10.0162 65.0901C10 65.6594 10 66.0905 10 66.0905C10 66.0905 10.3485 68.4247 12.2371 69.7097C13.5503 68.6524 14.4176 68.4166 15.374 68.3108C15.3902 68.1075 15.374 65.1389 15.374 65.1389L16.29 64.6347L16.3143 68.2539L16.8979 68.2702L16.9384 64.4232L17.7895 63.8539V68.441L18.4136 68.5874L18.4542 63.5855L19.3296 62.9918L19.3539 68.9859C19.3539 68.9859 20.1969 69.5552 20.9507 69.5796C21.356 69.5877 21.899 69.5227 21.899 69.5227C21.899 69.5227 24.3956 69.3437 24.9792 66.2125C24.9792 66.1358 24.9824 66.043 24.9863 65.9304C24.9948 65.6847 25.0065 65.3445 24.9954 64.8705C24.6955 61.7881 21.6721 60.9503 21.6721 60.9503C21.6721 60.9503 20.902 58.1526 17.7003 58.0062ZM12.6584 70.3199C12.6584 70.3199 13.4933 68.612 16.16 68.5957C17.5663 68.5871 18.358 69.0427 19.0821 69.4594C19.727 69.8305 20.3182 70.1707 21.2423 70.1247C22.7013 70.0434 23.2849 69.5391 23.2849 69.5391C23.2849 69.5391 22.2879 71.1251 20.302 71.1414C19.2669 71.1498 18.6458 70.7738 18.0231 70.3968C17.4513 70.0506 16.8781 69.7036 15.9817 69.653C14.1093 69.5473 12.6584 70.3199 12.6584 70.3199ZM13.1855 70.5068C13.1855 70.5068 13.5908 70.0432 15.066 70.0351C16.2086 70.0268 16.9615 70.433 17.7133 70.8387C18.428 71.2244 19.1418 71.6096 20.1888 71.6373C20.7724 71.6373 21.0642 71.6211 21.0642 71.6211C21.0642 71.6211 19.9132 72.0928 18.0894 72.0928C15.0093 72.0928 13.1855 70.5068 13.1855 70.5068Z"/>
</mask>
<path fill-rule="evenodd" clip-rule="evenodd" d="M17.7003 58.0062C14.1014 57.8354 13.1855 61.2757 13.1855 61.2757C13.1855 61.2757 14.5635 61.1455 15.2524 61.6498H15.374C16.1846 60.8934 17.3194 61.0154 17.3194 61.0154C17.3194 61.0154 17.3356 61.1537 17.2788 61.1781C15.9009 61.3895 15.3335 62.4631 15.3335 62.4631C15.3335 62.4631 15.2849 62.5038 15.2281 62.4794C14.8796 61.7311 13.6232 61.5441 13.6232 61.5441C13.6232 61.5441 13.2017 61.5685 12.8937 61.6091C12.529 61.6091 10.4215 62.1866 10.0162 65.0901C10 65.6594 10 66.0905 10 66.0905C10 66.0905 10.3485 68.4247 12.2371 69.7097C13.5503 68.6524 14.4176 68.4166 15.374 68.3108C15.3902 68.1075 15.374 65.1389 15.374 65.1389L16.29 64.6347L16.3143 68.2539L16.8979 68.2702L16.9384 64.4232L17.7895 63.8539V68.441L18.4136 68.5874L18.4542 63.5855L19.3296 62.9918L19.3539 68.9859C19.3539 68.9859 20.1969 69.5552 20.9507 69.5796C21.356 69.5877 21.899 69.5227 21.899 69.5227C21.899 69.5227 24.3956 69.3437 24.9792 66.2125C24.9792 66.1358 24.9824 66.043 24.9863 65.9304C24.9948 65.6847 25.0065 65.3445 24.9954 64.8705C24.6955 61.7881 21.6721 60.9503 21.6721 60.9503C21.6721 60.9503 20.902 58.1526 17.7003 58.0062ZM12.6584 70.3199C12.6584 70.3199 13.4933 68.612 16.16 68.5957C17.5663 68.5871 18.358 69.0427 19.0821 69.4594C19.727 69.8305 20.3182 70.1707 21.2423 70.1247C22.7013 70.0434 23.2849 69.5391 23.2849 69.5391C23.2849 69.5391 22.2879 71.1251 20.302 71.1414C19.2669 71.1498 18.6458 70.7738 18.0231 70.3968C17.4513 70.0506 16.8781 69.7036 15.9817 69.653C14.1093 69.5473 12.6584 70.3199 12.6584 70.3199ZM13.1855 70.5068C13.1855 70.5068 13.5908 70.0432 15.066 70.0351C16.2086 70.0268 16.9615 70.433 17.7133 70.8387C18.428 71.2244 19.1418 71.6096 20.1888 71.6373C20.7724 71.6373 21.0642 71.6211 21.0642 71.6211C21.0642 71.6211 19.9132 72.0928 18.0894 72.0928C15.0093 72.0928 13.1855 70.5068 13.1855 70.5068Z" fill="#12A64E"/>
<path d="M13.1855 61.2757L12.2192 61.0184C12.135 61.3346 12.2108 61.672 12.4222 61.9217C12.6336 62.1715 12.9538 62.302 13.2795 62.2712L13.1855 61.2757ZM17.7003 58.0062L17.6529 59.005L17.6547 59.0051L17.7003 58.0062ZM15.2524 61.6498L14.6618 62.4568C14.8332 62.5822 15.0401 62.6498 15.2524 62.6498V61.6498ZM15.374 61.6498V62.6498C15.6273 62.6498 15.8711 62.5537 16.0563 62.3809L15.374 61.6498ZM17.3194 61.0154L18.3126 60.899C18.2582 60.4354 17.8904 60.071 17.4263 60.0211L17.3194 61.0154ZM17.2788 61.1781L17.4305 62.1665C17.5143 62.1537 17.5961 62.1302 17.6739 62.0967L17.2788 61.1781ZM15.3335 62.4631L15.975 63.2303C16.0745 63.147 16.157 63.0451 16.2176 62.9304L15.3335 62.4631ZM15.2281 62.4794L14.3216 62.9016C14.4254 63.1243 14.6074 63.301 14.8331 63.398L15.2281 62.4794ZM13.6232 61.5441L13.7705 60.555C13.7026 60.5449 13.6339 60.5418 13.5654 60.5457L13.6232 61.5441ZM12.8937 61.6091V62.6091C12.9375 62.6091 12.9812 62.6063 13.0246 62.6005L12.8937 61.6091ZM10.0162 65.0901L9.02581 64.9519C9.02073 64.9883 9.01766 65.0249 9.01662 65.0616L10.0162 65.0901ZM10 66.0905H9C9 66.1399 9.00367 66.1893 9.01097 66.2382L10 66.0905ZM12.2371 69.7097L11.6746 70.5365C12.0385 70.7841 12.5215 70.7646 12.8643 70.4886L12.2371 69.7097ZM15.374 68.3108L15.4839 69.3048C15.9606 69.2521 16.3327 68.8684 16.3709 68.3903L15.374 68.3108ZM15.374 65.1389L14.8917 64.2629C14.5707 64.4396 14.372 64.7779 14.374 65.1444L15.374 65.1389ZM16.29 64.6347L17.2899 64.6279C17.2876 64.2755 17.0999 63.9503 16.7958 63.7721C16.4918 63.5938 16.1164 63.5887 15.8077 63.7586L16.29 64.6347ZM16.3143 68.2539L15.3143 68.2606C15.3179 68.7994 15.7478 69.2385 16.2864 69.2535L16.3143 68.2539ZM16.8979 68.2702L16.87 69.2698C17.1381 69.2772 17.398 69.1767 17.5913 68.9907C17.7845 68.8047 17.895 68.5489 17.8978 68.2807L16.8979 68.2702ZM16.9384 64.4232L16.3824 63.592C16.1081 63.7755 15.9419 64.0826 15.9385 64.4127L16.9384 64.4232ZM17.7895 63.8539H18.7895C18.7895 63.4848 18.5862 63.1457 18.2607 62.9718C17.9351 62.7979 17.5403 62.8175 17.2335 63.0227L17.7895 63.8539ZM17.7895 68.441H16.7895C16.7895 68.9053 17.1091 69.3085 17.5611 69.4145L17.7895 68.441ZM18.4136 68.5874L18.1853 69.5609C18.4812 69.6303 18.7926 69.5614 19.0316 69.3736C19.2706 69.1857 19.4111 68.8994 19.4136 68.5955L18.4136 68.5874ZM18.4542 63.5855L17.8929 62.7579C17.6208 62.9424 17.4569 63.2487 17.4542 63.5774L18.4542 63.5855ZM19.3296 62.9918L20.3296 62.9877C20.3281 62.6182 20.1229 62.2797 19.7961 62.1073C19.4693 61.9349 19.0741 61.9568 18.7683 62.1641L19.3296 62.9918ZM19.3539 68.9859L18.3539 68.9899C18.3552 69.3207 18.5201 69.6294 18.7942 69.8146L19.3539 68.9859ZM20.9507 69.5796L20.9183 70.5791L20.9306 70.5794L20.9507 69.5796ZM21.899 69.5227L21.8276 68.5252C21.8117 68.5264 21.7959 68.5279 21.7801 68.5298L21.899 69.5227ZM24.9792 66.2125L25.9622 66.3957C25.9735 66.3353 25.9792 66.2739 25.9792 66.2125H24.9792ZM24.9863 65.9304L25.9857 65.9649V65.9649L24.9863 65.9304ZM24.9954 64.8705L25.9951 64.8471C25.9945 64.8226 25.9931 64.7981 25.9907 64.7737L24.9954 64.8705ZM21.6721 60.9503L20.7079 61.2157C20.8013 61.5549 21.066 61.8201 21.4051 61.914L21.6721 60.9503ZM16.16 68.5957L16.1661 69.5957H16.1662L16.16 68.5957ZM12.6584 70.3199L11.76 69.8808C11.5696 70.2702 11.6519 70.738 11.9637 71.0392C12.2755 71.3403 12.7458 71.4063 13.1285 71.2026L12.6584 70.3199ZM19.0821 69.4594L19.5809 68.5926H19.5809L19.0821 69.4594ZM21.2423 70.1247L21.292 71.1235L21.2979 71.1232L21.2423 70.1247ZM23.2849 69.5391L24.1315 70.0713C24.395 69.6522 24.3121 69.1032 23.9365 68.7806C23.5609 68.4579 23.0058 68.4587 22.6311 68.7825L23.2849 69.5391ZM20.302 71.1414L20.2938 70.1414H20.2938L20.302 71.1414ZM18.0231 70.3968L17.5052 71.2523L17.5052 71.2523L18.0231 70.3968ZM15.9817 69.653L16.0381 68.6546L15.9817 69.653ZM15.066 70.0351L15.0715 71.0351L15.0733 71.0351L15.066 70.0351ZM13.1855 70.5068L12.4327 69.8486C12.2578 70.0487 12.1697 70.31 12.1879 70.5751C12.206 70.8401 12.3289 71.0871 12.5293 71.2614L13.1855 70.5068ZM17.7133 70.8387L17.2384 71.7187L17.2384 71.7187L17.7133 70.8387ZM20.1888 71.6373L20.1623 72.637C20.1711 72.6372 20.1799 72.6373 20.1888 72.6373V71.6373ZM21.0642 71.6211L21.4434 72.5464C21.8952 72.3612 22.1472 71.8768 22.0396 71.4006C21.9319 70.9243 21.496 70.5954 21.0085 70.6226L21.0642 71.6211ZM13.1855 61.2757C14.1518 61.5329 14.1517 61.5334 14.1516 61.5338C14.1516 61.534 14.1515 61.5344 14.1514 61.5347C14.1512 61.5352 14.1511 61.5357 14.151 61.5361C14.1508 61.5369 14.1506 61.5376 14.1505 61.538C14.1502 61.5389 14.1502 61.539 14.1504 61.5384C14.1507 61.5371 14.1519 61.5329 14.1541 61.5258C14.1583 61.5117 14.1662 61.4865 14.178 61.4519C14.2018 61.3825 14.2411 61.2765 14.2987 61.1468C14.4152 60.8846 14.5998 60.5406 14.8706 60.206C15.3939 59.5595 16.2366 58.9378 17.6529 59.005L17.7477 57.0073C15.5652 56.9037 14.1504 57.9168 13.316 58.9477C12.908 59.4519 12.6387 59.9572 12.471 60.3348C12.3865 60.5249 12.3261 60.6864 12.2857 60.8044C12.2655 60.8636 12.2502 60.9121 12.2393 60.9483C12.2338 60.9664 12.2294 60.9815 12.2261 60.9932C12.2245 60.9991 12.223 61.0041 12.2219 61.0083C12.2213 61.0104 12.2208 61.0123 12.2203 61.014C12.2201 61.0149 12.2199 61.0156 12.2197 61.0164C12.2196 61.0167 12.2195 61.0172 12.2194 61.0174C12.2193 61.0179 12.2192 61.0184 13.1855 61.2757ZM15.843 60.8428C15.2563 60.4134 14.4927 60.3088 14.0313 60.2761C13.774 60.2579 13.5452 60.2586 13.3807 60.2637C13.2978 60.2663 13.2296 60.27 13.1803 60.2732C13.1556 60.2749 13.1355 60.2764 13.1205 60.2776C13.113 60.2782 13.1068 60.2787 13.102 60.2791C13.0996 60.2794 13.0975 60.2795 13.0957 60.2797C13.0948 60.2798 13.094 60.2799 13.0933 60.2799C13.093 60.28 13.0927 60.28 13.0923 60.28C13.0922 60.28 13.092 60.2801 13.0919 60.2801C13.0917 60.2801 13.0915 60.2801 13.1855 61.2757C13.2795 62.2712 13.2793 62.2713 13.2791 62.2713C13.2791 62.2713 13.2789 62.2713 13.2788 62.2713C13.2786 62.2713 13.2784 62.2714 13.2782 62.2714C13.2778 62.2714 13.2775 62.2714 13.2773 62.2714C13.2769 62.2715 13.2768 62.2715 13.277 62.2715C13.2774 62.2714 13.279 62.2713 13.2818 62.2711C13.2874 62.2706 13.2975 62.2698 13.3119 62.2689C13.3406 62.267 13.3854 62.2645 13.4424 62.2627C13.5579 62.2592 13.7166 62.2589 13.89 62.2711C14.2897 62.2995 14.5596 62.3819 14.6618 62.4568L15.843 60.8428ZM15.374 60.6498H15.2524V62.6498H15.374V60.6498ZM17.3194 61.0154C17.4263 60.0211 17.4259 60.0211 17.4255 60.0211C17.4254 60.021 17.425 60.021 17.4248 60.021C17.4243 60.0209 17.4237 60.0209 17.4232 60.0208C17.4221 60.0207 17.4209 60.0206 17.4197 60.0205C17.4172 60.0202 17.4144 60.0199 17.4113 60.0196C17.4052 60.019 17.3979 60.0184 17.3894 60.0177C17.3726 60.0163 17.3513 60.0147 17.3259 60.0133C17.2752 60.0104 17.2076 60.0079 17.1262 60.0082C16.9645 60.0087 16.7423 60.02 16.4866 60.0625C15.9836 60.1462 15.2885 60.3618 14.6918 60.9187L16.0563 62.3809C16.2701 62.1814 16.5477 62.0798 16.8148 62.0354C16.944 62.0139 17.0562 62.0084 17.1326 62.0082C17.1703 62.008 17.1976 62.0092 17.2121 62.01C17.2193 62.0104 17.2232 62.0108 17.2234 62.0108C17.2235 62.0108 17.2227 62.0107 17.2209 62.0105C17.22 62.0105 17.2188 62.0103 17.2174 62.0102C17.2167 62.0101 17.216 62.0101 17.2151 62.01C17.2147 62.0099 17.2143 62.0099 17.2139 62.0098C17.2136 62.0098 17.2133 62.0098 17.2132 62.0098C17.2128 62.0097 17.2125 62.0097 17.3194 61.0154ZM17.6739 62.0967C18.0351 61.9414 18.1854 61.6461 18.2395 61.5089C18.2971 61.3627 18.3119 61.2333 18.3171 61.1681C18.3232 61.0933 18.3218 61.03 18.3199 60.99C18.3189 60.9685 18.3175 60.9498 18.3162 60.9349C18.3155 60.9273 18.3149 60.9205 18.3143 60.9145C18.314 60.9116 18.3137 60.9088 18.3134 60.9062C18.3132 60.9049 18.3131 60.9036 18.313 60.9024C18.3129 60.9018 18.3128 60.9012 18.3128 60.9006C18.3127 60.9004 18.3127 60.9001 18.3127 60.8998C18.3126 60.8997 18.3126 60.8994 18.3126 60.8994C18.3126 60.8992 18.3126 60.899 17.3194 61.0154C16.3262 61.1319 16.3261 61.1317 16.3261 61.1314C16.3261 61.1314 16.3261 61.1312 16.3261 61.131C16.326 61.1308 16.326 61.1305 16.326 61.1302C16.3259 61.1297 16.3259 61.1291 16.3258 61.1286C16.3257 61.1275 16.3256 61.1265 16.3254 61.1255C16.3252 61.1234 16.325 61.1214 16.3248 61.1194C16.3244 61.1155 16.324 61.1116 16.3237 61.1079C16.3231 61.1006 16.3225 61.0929 16.3221 61.0848C16.3215 61.0715 16.3206 61.0442 16.3236 61.007C16.3259 60.9795 16.334 60.8892 16.3787 60.7758C16.4199 60.6714 16.5509 60.4025 16.8838 60.2594L17.6739 62.0967ZM15.3335 62.4631C16.2176 62.9304 16.2174 62.9308 16.2172 62.9312C16.2171 62.9313 16.2169 62.9317 16.2168 62.9319C16.2165 62.9324 16.2163 62.9329 16.216 62.9334C16.2155 62.9343 16.215 62.9352 16.2146 62.936C16.2137 62.9377 16.213 62.9391 16.2123 62.9402C16.211 62.9426 16.2102 62.944 16.2099 62.9446C16.2092 62.9458 16.2105 62.9435 16.2137 62.9383C16.2201 62.9278 16.234 62.9059 16.2557 62.8757C16.2995 62.8148 16.3717 62.7248 16.4738 62.629C16.6757 62.4395 16.984 62.235 17.4305 62.1665L17.1272 60.1896C16.1957 60.3326 15.5314 60.7706 15.105 61.1708C14.893 61.3698 14.7373 61.5614 14.6317 61.7084C14.5786 61.7822 14.5375 61.8458 14.5075 61.8948C14.4924 61.9194 14.4802 61.9404 14.4705 61.9574C14.4657 61.9659 14.4615 61.9734 14.458 61.9798C14.4563 61.983 14.4547 61.986 14.4532 61.9886C14.4525 61.99 14.4518 61.9912 14.4512 61.9924C14.4509 61.9931 14.4505 61.9936 14.4502 61.9942C14.4501 61.9945 14.4499 61.9949 14.4498 61.995C14.4496 61.9954 14.4494 61.9958 15.3335 62.4631ZM14.8331 63.398C15.1662 63.5413 15.4703 63.4844 15.6488 63.4184C15.7376 63.3855 15.808 63.3467 15.8581 63.3152C15.8839 63.2989 15.9064 63.2832 15.9255 63.2691C15.9351 63.262 15.944 63.2552 15.9522 63.2487C15.9563 63.2455 15.9603 63.2423 15.9641 63.2392C15.966 63.2377 15.9678 63.2362 15.9696 63.2347C15.9705 63.2339 15.9714 63.2332 15.9723 63.2325C15.9728 63.2321 15.9732 63.2317 15.9736 63.2314C15.9739 63.2312 15.9742 63.2309 15.9743 63.2308C15.9746 63.2305 15.975 63.2303 15.3335 62.4631C14.692 61.696 14.6924 61.6957 14.6927 61.6954C14.6928 61.6953 14.6931 61.695 14.6933 61.6949C14.6938 61.6945 14.6942 61.6941 14.6946 61.6938C14.6955 61.693 14.6964 61.6923 14.6973 61.6916C14.699 61.6901 14.7008 61.6887 14.7026 61.6872C14.7062 61.6843 14.7099 61.6814 14.7136 61.6784C14.7211 61.6725 14.7289 61.6665 14.7371 61.6605C14.7533 61.6485 14.7716 61.6358 14.7919 61.623C14.8311 61.5983 14.8859 61.5681 14.9553 61.5424C15.0954 61.4907 15.3468 61.4419 15.6232 61.5607L14.8331 63.398ZM13.6232 61.5441C13.4759 62.5332 13.4757 62.5331 13.4754 62.5331C13.4754 62.5331 13.4751 62.533 13.4749 62.533C13.4746 62.533 13.4743 62.5329 13.4741 62.5329C13.4735 62.5328 13.473 62.5327 13.4726 62.5327C13.4718 62.5325 13.4712 62.5324 13.471 62.5324C13.4704 62.5323 13.4709 62.5324 13.4725 62.5327C13.4756 62.5332 13.4827 62.5344 13.4934 62.5364C13.5148 62.5404 13.5497 62.5474 13.5942 62.558C13.6852 62.5796 13.806 62.6135 13.9298 62.6621C14.0567 62.7118 14.1622 62.7675 14.2376 62.823C14.3132 62.8786 14.3252 62.9093 14.3216 62.9016L16.1346 62.0571C15.7903 61.3179 15.073 60.9621 14.6601 60.8002C14.4263 60.7085 14.2112 60.6489 14.0557 60.612C13.977 60.5933 13.911 60.5799 13.8624 60.5707C13.838 60.5662 13.8178 60.5626 13.8023 60.56C13.7946 60.5587 13.788 60.5577 13.7827 60.5568C13.78 60.5564 13.7777 60.5561 13.7756 60.5557C13.7746 60.5556 13.7737 60.5554 13.7728 60.5553C13.7724 60.5553 13.772 60.5552 13.7716 60.5551C13.7714 60.5551 13.7711 60.5551 13.771 60.555C13.7707 60.555 13.7705 60.555 13.6232 61.5441ZM13.0246 62.6005C13.1518 62.5837 13.3131 62.5691 13.4515 62.5583C13.5187 62.5531 13.5771 62.5491 13.6183 62.5463C13.6389 62.545 13.6551 62.544 13.6659 62.5433C13.6713 62.543 13.6754 62.5427 13.6779 62.5426C13.6792 62.5425 13.6801 62.5424 13.6806 62.5424C13.6809 62.5424 13.6811 62.5424 13.6811 62.5424C13.6811 62.5424 13.6812 62.5424 13.6811 62.5424C13.6811 62.5424 13.6811 62.5424 13.6811 62.5424C13.6811 62.5424 13.6811 62.5424 13.681 62.5424C13.681 62.5424 13.681 62.5424 13.6232 61.5441C13.5654 60.5457 13.5654 60.5457 13.5654 60.5457C13.5653 60.5457 13.5653 60.5457 13.5653 60.5457C13.5652 60.5457 13.5652 60.5457 13.5651 60.5458C13.565 60.5458 13.5649 60.5458 13.5647 60.5458C13.5643 60.5458 13.5639 60.5458 13.5633 60.5459C13.5622 60.5459 13.5607 60.546 13.5589 60.5461C13.5551 60.5463 13.5498 60.5467 13.543 60.5471C13.5296 60.5479 13.5105 60.5491 13.4867 60.5507C13.4394 60.5538 13.3731 60.5584 13.2965 60.5644C13.1471 60.576 12.9436 60.5939 12.7628 60.6177L13.0246 62.6005ZM11.0066 65.2283C11.1744 64.0261 11.6748 63.3837 12.1015 63.0363C12.3241 62.855 12.5418 62.7422 12.7105 62.6764C12.906 62.6002 12.9754 62.6091 12.8937 62.6091V60.6091C12.6296 60.6091 12.2988 60.6903 11.9839 60.813C11.6422 60.9463 11.2393 61.1593 10.8388 61.4853C10.0193 62.1525 9.26327 63.2506 9.02581 64.9519L11.0066 65.2283ZM10 66.0905C11 66.0905 11 66.0905 11 66.0905C11 66.0905 11 66.0905 11 66.0905C11 66.0905 11 66.0906 11 66.0906C11 66.0905 11 66.0905 11 66.0905C11 66.0904 11 66.0901 11 66.0898C11 66.0892 11 66.0881 11 66.0867C11 66.0838 11 66.0793 11 66.0733C11.0001 66.0613 11.0001 66.0431 11.0002 66.0194C11.0005 65.9719 11.001 65.9023 11.002 65.8151C11.0039 65.6405 11.0079 65.3963 11.0158 65.1186L9.01662 65.0616C9.00831 65.3532 9.00417 65.6092 9.00209 65.7925C9.00105 65.8842 9.00053 65.9579 9.00027 66.0091C9.00014 66.0347 9.00007 66.0546 9.00003 66.0684C9.00002 66.0753 9.00001 66.0806 9 66.0843C9 66.0862 9 66.0876 9 66.0886C9 66.0892 9 66.0896 9 66.0899C9 66.09 9 66.0902 9 66.0903C9 66.0903 9 66.0904 9 66.0904C9 66.0904 9 66.0904 9 66.0904C9 66.0905 9 66.0905 10 66.0905ZM12.7997 68.883C12.0644 68.3827 11.6056 67.6601 11.3276 67.0198C11.1904 66.7041 11.1036 66.4226 11.0517 66.2234C11.0259 66.1243 11.0092 66.047 10.9994 65.9979C10.9945 65.9733 10.9914 65.9559 10.9897 65.9464C10.9889 65.9417 10.9885 65.939 10.9884 65.9383C10.9883 65.938 10.9883 65.9382 10.9885 65.9389C10.9885 65.9393 10.9886 65.9398 10.9887 65.9405C10.9887 65.9408 10.9888 65.9411 10.9888 65.9415C10.9889 65.9417 10.9889 65.942 10.9889 65.9421C10.989 65.9425 10.989 65.9428 10 66.0905C9.01097 66.2382 9.01102 66.2385 9.01107 66.2389C9.01109 66.239 9.01115 66.2394 9.01119 66.2396C9.01127 66.2402 9.01135 66.2407 9.01145 66.2414C9.01163 66.2426 9.01184 66.2439 9.01207 66.2454C9.01253 66.2484 9.0131 66.252 9.01376 66.2561C9.01509 66.2644 9.01684 66.2749 9.01903 66.2876C9.02342 66.3129 9.02962 66.3469 9.03795 66.3887C9.05459 66.4722 9.07982 66.5874 9.11621 66.7272C9.18874 67.0058 9.30705 67.3882 9.49312 67.8166C9.86147 68.6647 10.5213 69.7518 11.6746 70.5365L12.7997 68.883ZM15.2641 67.3169C14.7322 67.3757 14.1773 67.4762 13.5614 67.7276C12.9502 67.9771 12.3222 68.3574 11.61 68.9308L12.8643 70.4886C13.4652 70.0048 13.9274 69.7384 14.3173 69.5792C14.7024 69.422 15.0594 69.3517 15.4839 69.3048L15.2641 67.3169ZM15.374 65.1389C14.374 65.1444 14.374 65.1444 14.374 65.1444C14.374 65.1444 14.374 65.1444 14.374 65.1445C14.374 65.1446 14.374 65.1447 14.374 65.1449C14.374 65.1452 14.374 65.1458 14.374 65.1465C14.3741 65.1479 14.3741 65.15 14.3741 65.1528C14.3741 65.1584 14.3742 65.1667 14.3742 65.1776C14.3743 65.1993 14.3745 65.2312 14.3747 65.2719C14.3751 65.3533 14.3757 65.4699 14.3763 65.6104C14.3776 65.8915 14.3791 66.2683 14.3801 66.6513C14.3811 67.0345 14.3816 67.4226 14.3809 67.727C14.3805 67.8794 14.3798 68.0087 14.3787 68.1051C14.3775 68.2213 14.3758 68.2485 14.3772 68.2313L16.3709 68.3903C16.3833 68.2344 16.382 67.3719 16.3801 66.646C16.3791 66.2614 16.3776 65.8833 16.3763 65.6014C16.3757 65.4605 16.3751 65.3435 16.3747 65.2618C16.3745 65.221 16.3743 65.1889 16.3742 65.167C16.3741 65.1561 16.3741 65.1477 16.3741 65.1421C16.374 65.1392 16.374 65.1371 16.374 65.1356C16.374 65.1349 16.374 65.1344 16.374 65.134C16.374 65.1338 16.374 65.1337 16.374 65.1336C16.374 65.1335 16.374 65.1335 16.374 65.1335C16.374 65.1335 16.374 65.1334 15.374 65.1389ZM15.8077 63.7586L14.8917 64.2629L15.8563 66.0149L16.7722 65.5107L15.8077 63.7586ZM17.3142 68.2472L17.2899 64.6279L15.29 64.6414L15.3143 68.2606L17.3142 68.2472ZM16.9257 67.2705L16.3421 67.2543L16.2864 69.2535L16.87 69.2698L16.9257 67.2705ZM15.9385 64.4127L15.8979 68.2596L17.8978 68.2807L17.9383 64.4337L15.9385 64.4127ZM17.2335 63.0227L16.3824 63.592L17.4944 65.2544L18.3455 64.6851L17.2335 63.0227ZM18.7895 68.441V63.8539H16.7895V68.441H18.7895ZM18.642 67.6138L18.0179 67.4674L17.5611 69.4145L18.1853 69.5609L18.642 67.6138ZM17.4542 63.5774L17.4137 68.5792L19.4136 68.5955L19.4541 63.5936L17.4542 63.5774ZM18.7683 62.1641L17.8929 62.7579L19.0155 64.4131L19.8909 63.8194L18.7683 62.1641ZM20.3539 68.9818L20.3296 62.9877L18.3296 62.9958L18.3539 68.9899L20.3539 68.9818ZM20.983 68.5801C20.8132 68.5746 20.5635 68.4965 20.2999 68.3709C20.1801 68.3138 20.0779 68.2568 20.0068 68.2147C19.9716 68.1938 19.945 68.1772 19.9287 68.1669C19.9206 68.1617 19.9151 68.1581 19.9125 68.1564C19.9112 68.1556 19.9106 68.1552 19.9108 68.1553C19.9108 68.1553 19.9111 68.1555 19.9116 68.1558C19.9118 68.156 19.9121 68.1562 19.9124 68.1564C19.9126 68.1565 19.9128 68.1566 19.913 68.1568C19.913 68.1568 19.9132 68.1569 19.9132 68.157C19.9134 68.1571 19.9136 68.1572 19.3539 68.9859C18.7942 69.8146 18.7944 69.8147 18.7945 69.8148C18.7946 69.8148 18.7948 69.815 18.7949 69.815C18.7951 69.8152 18.7954 69.8154 18.7956 69.8156C18.7962 69.8159 18.7968 69.8163 18.7974 69.8167C18.7987 69.8176 18.8002 69.8186 18.8019 69.8197C18.8053 69.822 18.8095 69.8248 18.8146 69.8281C18.8247 69.8348 18.8381 69.8434 18.8545 69.8539C18.8872 69.8748 18.9324 69.9028 18.988 69.9357C19.0985 70.0012 19.2542 70.088 19.4393 70.1763C19.7857 70.3414 20.3343 70.5602 20.9183 70.5791L20.983 68.5801ZM21.899 69.5227C21.7801 68.5298 21.7801 68.5298 21.7802 68.5297C21.7802 68.5297 21.7802 68.5297 21.7803 68.5297C21.7803 68.5297 21.7804 68.5297 21.7804 68.5297C21.7805 68.5297 21.7805 68.5297 21.7805 68.5297C21.7805 68.5297 21.7804 68.5297 21.7801 68.5298C21.7797 68.5298 21.7787 68.5299 21.7772 68.5301C21.7743 68.5304 21.7695 68.531 21.7629 68.5317C21.7497 68.5332 21.7297 68.5354 21.7041 68.5381C21.6526 68.5435 21.5797 68.5506 21.4953 68.5575C21.3196 68.5719 21.1223 68.5828 20.9707 68.5798L20.9306 70.5794C21.1843 70.5845 21.4613 70.567 21.6584 70.5508C21.7605 70.5425 21.8486 70.5339 21.9116 70.5273C21.9432 70.524 21.9688 70.5212 21.9869 70.5191C21.996 70.5181 22.0032 70.5173 22.0085 70.5167C22.0111 70.5164 22.0132 70.5161 22.0148 70.5159C22.0156 70.5158 22.0163 70.5158 22.0168 70.5157C22.0171 70.5157 22.0173 70.5156 22.0175 70.5156C22.0176 70.5156 22.0177 70.5156 22.0178 70.5156C22.0178 70.5156 22.0179 70.5156 22.0179 70.5156C22.0179 70.5156 22.018 70.5156 21.899 69.5227ZM23.9961 66.0293C23.7574 67.3098 23.1585 67.9008 22.6899 68.194C22.4412 68.3496 22.206 68.4348 22.0374 68.4804C21.9538 68.503 21.8891 68.5151 21.8508 68.5212C21.8318 68.5242 21.8196 68.5257 21.8153 68.5262C21.8132 68.5264 21.8131 68.5264 21.815 68.5262C21.816 68.5261 21.8176 68.526 21.8196 68.5258C21.8207 68.5257 21.8219 68.5256 21.8232 68.5255C21.8238 68.5255 21.8245 68.5254 21.8253 68.5254C21.8256 68.5254 21.8262 68.5253 21.8264 68.5253C21.827 68.5253 21.8276 68.5252 21.899 69.5227C21.9705 70.5201 21.9711 70.5201 21.9718 70.52C21.972 70.52 21.9726 70.52 21.973 70.5199C21.9739 70.5199 21.9748 70.5198 21.9758 70.5197C21.9777 70.5196 21.9798 70.5194 21.9821 70.5192C21.9865 70.5189 21.9917 70.5184 21.9974 70.5179C22.0089 70.5168 22.0228 70.5154 22.0391 70.5136C22.0717 70.5099 22.1137 70.5045 22.1641 70.4965C22.2646 70.4806 22.3995 70.4543 22.5591 70.4112C22.8768 70.3253 23.3022 70.1701 23.7507 69.8895C24.6762 69.3105 25.6173 68.2464 25.9622 66.3957L23.9961 66.0293ZM23.9869 65.8958C23.9832 66.0024 23.9792 66.1147 23.9792 66.2125H25.9792C25.9792 66.1569 25.9816 66.0836 25.9857 65.9649L23.9869 65.8958ZM23.9957 64.894C24.0061 65.3382 23.9952 65.655 23.9869 65.8959L25.9857 65.9649C25.9943 65.7144 26.0069 65.3509 25.9951 64.8471L23.9957 64.894ZM21.6721 60.9503C21.4051 61.914 21.4046 61.9139 21.4042 61.9138C21.4041 61.9138 21.4037 61.9137 21.4035 61.9136C21.403 61.9135 21.4025 61.9133 21.4021 61.9132C21.4013 61.913 21.4007 61.9128 21.4002 61.9127C21.3993 61.9124 21.3991 61.9124 21.3995 61.9125C21.4004 61.9127 21.404 61.9138 21.41 61.9157C21.422 61.9194 21.444 61.9264 21.4744 61.937C21.5354 61.9582 21.6296 61.9934 21.7466 62.0448C21.9826 62.1486 22.2997 62.3135 22.6214 62.5546C23.2571 63.0311 23.8845 63.7794 24.0001 64.9674L25.9907 64.7737C25.8064 62.8791 24.7721 61.6673 23.8211 60.9544C23.3495 60.6008 22.892 60.3636 22.5517 60.214C22.3806 60.1387 22.2363 60.0844 22.1308 60.0478C22.0779 60.0294 22.0346 60.0154 22.0022 60.0054C21.986 60.0003 21.9726 59.9963 21.962 59.9932C21.9567 59.9917 21.9521 59.9903 21.9483 59.9892C21.9464 59.9887 21.9447 59.9882 21.9431 59.9878C21.9424 59.9876 21.9416 59.9874 21.941 59.9872C21.9406 59.9871 21.9402 59.987 21.94 59.9869C21.9395 59.9868 21.9391 59.9867 21.6721 60.9503ZM17.6547 59.0051C18.9269 59.0633 19.6709 59.6312 20.1158 60.1699C20.3457 60.4483 20.4991 60.725 20.5939 60.9303C20.6409 61.032 20.6722 61.1134 20.6906 61.1649C20.6997 61.1906 20.7055 61.2085 20.7083 61.2175C20.7097 61.2219 20.7103 61.2241 20.7102 61.2239C20.7102 61.2238 20.71 61.223 20.7096 61.2217C20.7094 61.221 20.7092 61.2202 20.7089 61.2192C20.7088 61.2187 20.7086 61.2181 20.7084 61.2176C20.7084 61.2173 20.7082 61.2168 20.7082 61.2167C20.7081 61.2162 20.7079 61.2157 21.6721 60.9503C22.6362 60.685 22.6361 60.6845 22.6359 60.684C22.6359 60.6838 22.6358 60.6832 22.6356 60.6829C22.6354 60.6821 22.6352 60.6813 22.635 60.6805C22.6345 60.6788 22.634 60.677 22.6334 60.675C22.6323 60.6709 22.6309 60.6662 22.6293 60.6607C22.6261 60.6499 22.6221 60.6364 22.617 60.6203C22.607 60.5882 22.5931 60.5459 22.5749 60.4948C22.5386 60.3927 22.4848 60.2544 22.4096 60.0916C22.2599 59.7676 22.0207 59.3358 21.6579 58.8964C20.9173 57.9996 19.6755 57.0954 17.746 57.0072L17.6547 59.0051ZM16.1539 67.5957C14.5887 67.6053 13.4987 68.1178 12.7886 68.6798C12.44 68.9557 12.1935 69.2349 12.0297 69.4539C11.9477 69.5635 11.886 69.6587 11.842 69.732C11.82 69.7687 11.8023 69.8001 11.7888 69.8251C11.782 69.8376 11.7763 69.8486 11.7715 69.8579C11.7691 69.8626 11.7669 69.8668 11.765 69.8706C11.7641 69.8725 11.7632 69.8743 11.7623 69.876C11.7619 69.8769 11.7615 69.8777 11.7611 69.8785C11.7609 69.8789 11.7607 69.8794 11.7606 69.8796C11.7603 69.8802 11.76 69.8808 12.6584 70.3199C13.5568 70.7591 13.5566 70.7596 13.5563 70.7602C13.5562 70.7603 13.556 70.7609 13.5558 70.7612C13.5555 70.7619 13.5551 70.7626 13.5548 70.7632C13.5542 70.7645 13.5536 70.7656 13.553 70.7667C13.552 70.7689 13.5511 70.7707 13.5503 70.7721C13.5489 70.775 13.5481 70.7763 13.5481 70.7764C13.5481 70.7764 13.551 70.771 13.557 70.761C13.5691 70.7408 13.5934 70.7025 13.6314 70.6517C13.7075 70.5499 13.8363 70.4012 14.0298 70.248C14.4038 69.952 15.0647 69.6024 16.1661 69.5957L16.1539 67.5957ZM19.5809 68.5926C18.8182 68.1537 17.8345 67.5854 16.1539 67.5957L16.1662 69.5957C17.2981 69.5887 17.8978 69.9316 18.5833 70.3261L19.5809 68.5926ZM21.1926 69.126C20.5876 69.1561 20.2233 68.9623 19.5809 68.5926L18.5833 70.3261C19.2307 70.6986 20.0488 71.1853 21.292 71.1235L21.1926 69.126ZM23.2849 69.5391C22.6311 68.7825 22.6315 68.7821 22.6319 68.7817C22.6321 68.7816 22.6325 68.7812 22.6328 68.781C22.6333 68.7805 22.6339 68.7801 22.6344 68.7796C22.6355 68.7787 22.6365 68.7778 22.6376 68.7769C22.6396 68.7752 22.6415 68.7736 22.6433 68.7721C22.6468 68.7692 22.6499 68.7667 22.6524 68.7647C22.6575 68.7606 22.6604 68.7584 22.6613 68.7577C22.663 68.7564 22.6561 68.7617 22.6401 68.7717C22.6082 68.7917 22.5389 68.8315 22.4274 68.8778C22.2062 68.9696 21.8066 69.0917 21.1866 69.1263L21.2979 71.1232C22.1369 71.0764 22.7586 70.9057 23.194 70.7251C23.4108 70.6351 23.5786 70.5438 23.7017 70.4667C23.7632 70.4282 23.8133 70.3934 23.8526 70.3642C23.8723 70.3496 23.8892 70.3365 23.9035 70.325C23.9107 70.3192 23.9172 70.3139 23.9231 70.309C23.926 70.3066 23.9288 70.3043 23.9314 70.3021C23.9327 70.301 23.9339 70.2999 23.9351 70.2989C23.9357 70.2983 23.9363 70.2978 23.9369 70.2973C23.9372 70.2971 23.9377 70.2967 23.9378 70.2966C23.9382 70.2962 23.9387 70.2958 23.2849 69.5391ZM20.3102 72.1413C21.5846 72.1309 22.541 71.6132 23.1634 71.1146C23.4737 70.866 23.7071 70.6179 23.8653 70.4285C23.9448 70.3334 24.0066 70.2517 24.0506 70.1903C24.0727 70.1595 24.0905 70.1337 24.1039 70.1137C24.1106 70.1036 24.1163 70.095 24.1209 70.0879C24.1232 70.0844 24.1252 70.0812 24.127 70.0785C24.1279 70.0771 24.1287 70.0758 24.1294 70.0746C24.1298 70.074 24.1302 70.0734 24.1305 70.0729C24.1307 70.0726 24.1309 70.0722 24.131 70.0721C24.1313 70.0717 24.1315 70.0713 23.2849 69.5391C22.4383 69.0069 22.4385 69.0066 22.4387 69.0062C22.4388 69.0061 22.439 69.0057 22.4392 69.0055C22.4394 69.0051 22.4397 69.0047 22.44 69.0042C22.4405 69.0034 22.4409 69.0027 22.4413 69.0021C22.4421 69.0009 22.4427 69 22.443 68.9995C22.4437 68.9984 22.4435 68.9987 22.4425 69.0003C22.4404 69.0034 22.4348 69.0117 22.4257 69.0243C22.4075 69.0497 22.3758 69.092 22.3308 69.1459C22.2401 69.2544 22.1001 69.4038 21.9129 69.5537C21.5403 69.8522 21.0053 70.1356 20.2938 70.1414L20.3102 72.1413ZM17.5052 71.2523C18.1462 71.6403 18.9752 72.1523 20.3102 72.1413L20.2938 70.1414C19.5585 70.1474 19.1453 69.9073 18.541 69.5414L17.5052 71.2523ZM15.9253 70.6514C16.5534 70.6869 16.9406 70.9105 17.5052 71.2523L18.541 69.5414C17.9619 69.1908 17.2029 68.7204 16.0381 68.6546L15.9253 70.6514ZM12.6584 70.3199C13.1285 71.2026 13.1282 71.2027 13.128 71.2028C13.1279 71.2029 13.1277 71.203 13.1275 71.2031C13.1272 71.2032 13.1269 71.2034 13.1267 71.2035C13.1262 71.2038 13.1257 71.204 13.1254 71.2042C13.1247 71.2045 13.1244 71.2047 13.1244 71.2047C13.1243 71.2047 13.1256 71.2041 13.1283 71.2027C13.1335 71.2001 13.1439 71.1949 13.1592 71.1875C13.1899 71.1726 13.2402 71.1492 13.3081 71.1201C13.4442 71.0618 13.6488 70.982 13.9066 70.9042C14.4263 70.7475 15.137 70.6069 15.9253 70.6514L16.0381 68.6546C14.954 68.5934 14.0031 68.7862 13.3292 68.9894C12.9902 69.0916 12.7152 69.1983 12.5207 69.2816C12.4233 69.3233 12.3456 69.3594 12.2896 69.3864C12.2616 69.3999 12.239 69.4112 12.2221 69.4198C12.2136 69.4241 12.2066 69.4277 12.2009 69.4307C12.1981 69.4321 12.1957 69.4334 12.1936 69.4345C12.1925 69.4351 12.1916 69.4356 12.1907 69.436C12.1903 69.4363 12.1899 69.4365 12.1895 69.4367C12.1893 69.4368 12.189 69.4369 12.1889 69.437C12.1887 69.4371 12.1884 69.4373 12.6584 70.3199ZM15.0605 69.0351C14.2193 69.0398 13.6187 69.1746 13.1939 69.3485C12.9815 69.4354 12.8166 69.5306 12.6908 69.6204C12.6281 69.6652 12.576 69.708 12.5332 69.7469C12.5118 69.7663 12.4928 69.7847 12.4761 69.8018C12.4678 69.8103 12.46 69.8185 12.4527 69.8263C12.4491 69.8302 12.4456 69.8341 12.4423 69.8378C12.4406 69.8396 12.439 69.8415 12.4374 69.8433C12.4366 69.8442 12.4358 69.8451 12.435 69.846C12.4346 69.8464 12.434 69.8471 12.4338 69.8473C12.4332 69.848 12.4327 69.8486 13.1855 70.5068C13.9384 71.165 13.9378 71.1657 13.9372 71.1663C13.9371 71.1665 13.9365 71.1672 13.9361 71.1676C13.9353 71.1685 13.9346 71.1693 13.9338 71.1702C13.9323 71.1719 13.9308 71.1735 13.9294 71.1752C13.9264 71.1785 13.9235 71.1816 13.9207 71.1846C13.9151 71.1907 13.9098 71.1963 13.9047 71.2014C13.8947 71.2117 13.8859 71.2201 13.8784 71.2269C13.8636 71.2404 13.8546 71.2469 13.853 71.2481C13.8493 71.2507 13.8779 71.2296 13.9513 71.1995C14.0979 71.1395 14.4376 71.0386 15.0715 71.0351L15.0605 69.0351ZM18.1881 69.9586C17.4296 69.5493 16.4786 69.0248 15.0587 69.0351L15.0733 71.0351C15.9387 71.0288 16.4934 71.3167 17.2384 71.7187L18.1881 69.9586ZM20.2153 70.6377C19.429 70.6168 18.9017 70.3437 18.1881 69.9586L17.2384 71.7187C17.9544 72.1051 18.8547 72.6023 20.1623 72.637L20.2153 70.6377ZM21.0642 71.6211C21.0085 70.6226 21.0086 70.6226 21.0086 70.6226C21.0086 70.6226 21.0087 70.6226 21.0087 70.6226C21.0088 70.6226 21.0088 70.6226 21.0089 70.6226C21.009 70.6226 21.0091 70.6226 21.0092 70.6226C21.0093 70.6226 21.0094 70.6226 21.0094 70.6226C21.0094 70.6226 21.0091 70.6226 21.0086 70.6226C21.0074 70.6227 21.0052 70.6228 21.0018 70.6229C20.995 70.6233 20.9836 70.6238 20.9677 70.6245C20.9359 70.6258 20.8858 70.6277 20.8175 70.6296C20.6808 70.6334 20.4713 70.6373 20.1888 70.6373V72.6373C20.4899 72.6373 20.718 72.6331 20.8732 72.6288C20.9508 72.6266 21.0101 72.6244 21.0512 72.6227C21.0718 72.6219 21.0878 72.6211 21.0992 72.6206C21.1049 72.6203 21.1095 72.6201 21.113 72.6199C21.1147 72.6198 21.1161 72.6197 21.1173 72.6196C21.1178 72.6196 21.1183 72.6196 21.1188 72.6196C21.119 72.6196 21.1192 72.6195 21.1194 72.6195C21.1194 72.6195 21.1195 72.6195 21.1196 72.6195C21.1197 72.6195 21.1197 72.6195 21.1197 72.6195C21.1198 72.6195 21.1198 72.6195 21.0642 71.6211ZM18.0894 73.0928C19.0871 73.0928 19.9061 72.9638 20.4836 72.8318C20.7726 72.7657 21.002 72.6986 21.1643 72.646C21.2454 72.6197 21.3099 72.597 21.3567 72.5797C21.3801 72.5711 21.3991 72.5639 21.4136 72.5582C21.4208 72.5554 21.4269 72.553 21.4319 72.551C21.4344 72.55 21.4366 72.5491 21.4385 72.5484C21.4395 72.548 21.4404 72.5476 21.4412 72.5473C21.4416 72.5471 21.442 72.5469 21.4423 72.5468C21.4425 72.5467 21.4428 72.5466 21.4429 72.5466C21.4431 72.5465 21.4434 72.5464 21.0642 71.6211C20.685 70.6958 20.6852 70.6957 20.6854 70.6956C20.6855 70.6955 20.6858 70.6954 20.6859 70.6954C20.6862 70.6952 20.6865 70.6951 20.6868 70.695C20.6873 70.6948 20.6878 70.6946 20.6882 70.6944C20.689 70.6941 20.6895 70.6939 20.6897 70.6938C20.6902 70.6936 20.6897 70.6938 20.688 70.6945C20.6848 70.6957 20.6773 70.6986 20.6657 70.7029C20.6424 70.7115 20.6027 70.7256 20.5474 70.7435C20.4368 70.7794 20.2645 70.8302 20.0378 70.8821C19.5838 70.9859 18.9155 71.0928 18.0894 71.0928V73.0928ZM13.1855 70.5068C12.5293 71.2614 12.5296 71.2617 12.53 71.262C12.5301 71.2621 12.5304 71.2624 12.5306 71.2626C12.5311 71.263 12.5316 71.2634 12.5321 71.2638C12.5332 71.2648 12.5344 71.2658 12.5356 71.2669C12.5382 71.2691 12.5412 71.2717 12.5447 71.2746C12.5517 71.2805 12.5605 71.2879 12.5712 71.2967C12.5925 71.3142 12.6211 71.3372 12.6568 71.365C12.7284 71.4205 12.8288 71.495 12.9571 71.5821C13.2134 71.756 13.5826 71.9811 14.056 72.2043C15.0031 72.6508 16.3745 73.0928 18.0894 73.0928V71.0928C16.7242 71.0928 15.6437 70.7417 14.9089 70.3953C14.5413 70.222 14.2621 70.0506 14.0801 69.9272C13.9893 69.8655 13.9232 69.8162 13.883 69.7849C13.8629 69.7693 13.8493 69.7583 13.8423 69.7526C13.8389 69.7497 13.8371 69.7482 13.837 69.7481C13.8369 69.7481 13.8373 69.7484 13.8381 69.7491C13.8385 69.7494 13.839 69.7498 13.8396 69.7504C13.8399 69.7506 13.8402 69.7509 13.8406 69.7512C13.8407 69.7514 13.841 69.7516 13.8411 69.7517C13.8414 69.752 13.8417 69.7522 13.1855 70.5068Z" fill="white" mask="url(#path-9-outside-1)"/>
<path d="M13.1855 61.2757C13.1855 61.2757 14.1014 57.8354 17.7003 58.0062C20.902 58.1526 21.6721 60.9503 21.6721 60.9503C21.6721 60.9503 24.6955 61.7881 24.9954 64.8705C25.0116 65.5618 24.9792 65.9685 24.9792 66.2125C24.3956 69.3437 21.899 69.5227 21.899 69.5227C21.899 69.5227 21.356 69.5877 20.9507 69.5796C20.1969 69.5552 19.3539 68.9859 19.3539 68.9859L19.3296 62.9918L18.4542 63.5855L18.4136 68.5874L17.7895 68.441V63.8539L16.9384 64.4232L16.8979 68.2702L16.3143 68.2539L16.29 64.6347L15.374 65.1389C15.374 65.1389 15.3902 68.1075 15.374 68.3108C14.4176 68.4166 13.5503 68.6524 12.2371 69.7097C10.3485 68.4247 10 66.0905 10 66.0905C10 66.0905 10 65.6594 10.0162 65.0901C10.4215 62.1866 12.529 61.6091 12.8937 61.6091C13.2017 61.5685 13.6232 61.5441 13.6232 61.5441C13.6232 61.5441 14.8796 61.7311 15.2281 62.4794C15.2849 62.5038 15.3335 62.4631 15.3335 62.4631C15.3335 62.4631 15.9009 61.3895 17.2788 61.1781C17.3356 61.1537 17.3194 61.0154 17.3194 61.0154C17.3194 61.0154 16.1846 60.8934 15.374 61.6498C15.2524 61.6498 15.3335 61.6498 15.2524 61.6498C14.5635 61.1455 13.1855 61.2757 13.1855 61.2757Z" fill="#2E3990"/>
</svg>
