<svg width="22" height="21" viewBox="0 0 22 21" fill="none" xmlns="http://www.w3.org/2000/svg">
<path d="M0 0H14C18.4183 0 22 3.58172 22 8V21L0 0Z" fill="#E61773"/>
<path fill-rule="evenodd" clip-rule="evenodd" d="M18.7777 4.20198C18.7074 4.13625 18.6237 4.0845 18.5316 4.04982C18.4395 4.01514 18.3408 3.99825 18.2416 4.00014C18.1424 4.00204 18.0446 4.02269 17.954 4.06086C17.8635 4.09903 17.7821 4.15394 17.7147 4.2223L14.2963 8.30821L11.5003 5.17152C11.3603 5.04919 11.1752 4.9826 10.984 4.98576C10.7927 4.98893 10.6103 5.06161 10.475 5.18849C10.3398 5.31537 10.2623 5.48655 10.2589 5.66597C10.2555 5.84538 10.3265 6.01901 10.4569 6.1503L13.7972 9.79761C13.8674 9.86331 13.951 9.91508 14.0429 9.94983C14.1349 9.98458 14.2333 10.0016 14.3324 9.99988C14.4316 9.99816 14.5293 9.97772 14.6198 9.9398C14.7103 9.90188 14.7918 9.84724 14.8593 9.77914L18.7886 5.17152C18.9225 5.04086 18.9965 4.86614 18.9947 4.68487C18.9928 4.50359 18.9143 4.33022 18.7777 4.20198Z" fill="white"/>
</svg>
