<svg width="38" height="136" viewBox="0 0 38 136" fill="none" xmlns="http://www.w3.org/2000/svg">
<path d="M36.88 54H1V135.63H36.88V54Z" fill="#424242"/>
<path d="M33.09 64.8101H4.79004V103.7H33.09V64.8101Z" fill="#CDCCCC"/>
<path d="M33.09 65.4202L4.79004 93.7202V103.7H5.14004L33.09 75.7502V65.4202Z" fill="#E2E2E1"/>
<path d="M33.0899 84.52L13.9199 103.7H22.1799L33.0899 92.79V84.52Z" fill="#E2E2E1"/>
<path d="M11.3401 80.9399C12.7373 80.9399 13.8701 79.8072 13.8701 78.4099C13.8701 77.0126 12.7373 75.8799 11.3401 75.8799C9.94278 75.8799 8.81006 77.0126 8.81006 78.4099C8.81006 79.8072 9.94278 80.9399 11.3401 80.9399Z" fill="#0B0C0C"/>
<path d="M25.4099 80.9399C26.8072 80.9399 27.9399 79.8072 27.9399 78.4099C27.9399 77.0126 26.8072 75.8799 25.4099 75.8799C24.0126 75.8799 22.8799 77.0126 22.8799 78.4099C22.8799 79.8072 24.0126 80.9399 25.4099 80.9399Z" fill="#0B0C0C"/>
<path d="M27.1499 93.6299C26.8499 93.6299 26.5499 93.4899 26.3499 93.2299C26.2799 93.1399 23.3399 89.3999 18.5499 89.3999C13.6799 89.3999 10.7299 93.1999 10.6999 93.2299C10.3699 93.6699 9.73994 93.7499 9.29994 93.4199C8.85994 93.0899 8.76994 92.4599 9.10994 92.0199C9.24994 91.8299 12.6699 87.3899 18.5099 87.3899C24.3899 87.3899 27.8099 91.8299 27.9599 92.0199C28.2899 92.4599 28.2099 93.0899 27.7599 93.4199C27.5699 93.5599 27.3599 93.6299 27.1499 93.6299Z" fill="#0B0C0C"/>
<path d="M30.1598 85.5199C30.1598 86.7442 29.8456 87.5715 29.3736 88.0905C28.904 88.607 28.2494 88.8499 27.4998 88.8499C26.7503 88.8499 26.0957 88.607 25.6261 88.0905C25.1541 87.5715 24.8398 86.7442 24.8398 85.5199C24.8398 84.3351 25.5284 82.994 26.2521 81.921C26.6098 81.3906 26.9679 80.9373 27.2368 80.6166C27.3392 80.4944 27.4284 80.3917 27.4996 80.3115C27.5708 80.392 27.6602 80.4951 27.7627 80.6178C28.0316 80.9393 28.3898 81.3936 28.7475 81.9246C29.4713 82.9992 30.1598 84.3401 30.1598 85.5199Z" fill="#2ABDEE" stroke="white" stroke-width="0.5"/>
<path d="M19 38C8.5063 38 0 29.4937 0 19C0 8.5082 8.5063 0 19 0C29.4937 0 38 8.5082 38 19C38 29.4937 29.4937 38 19 38ZM19 9.5C18.4961 9.5 18.0128 9.70018 17.6565 10.0565C17.3002 10.4128 17.1 10.8961 17.1 11.4V20.9C17.1 21.4039 17.3002 21.8872 17.6565 22.2435C18.0128 22.5998 18.4961 22.8 19 22.8C19.5039 22.8 19.9872 22.5998 20.3435 22.2435C20.6998 21.8872 20.9 21.4039 20.9 20.9V11.4C20.9 10.8961 20.6998 10.4128 20.3435 10.0565C19.9872 9.70018 19.5039 9.5 19 9.5ZM19 28.5C19.5039 28.5 19.9872 28.2998 20.3435 27.9435C20.6998 27.5872 20.9 27.1039 20.9 26.6C20.9 26.0961 20.6998 25.6128 20.3435 25.2565C19.9872 24.9002 19.5039 24.7 19 24.7C18.4961 24.7 18.0128 24.9002 17.6565 25.2565C17.3002 25.6128 17.1 26.0961 17.1 26.6C17.1 27.1039 17.3002 27.5872 17.6565 27.9435C18.0128 28.2998 18.4961 28.5 19 28.5Z" fill="#E61773"/>
<mask id="path-10-outside-1" maskUnits="userSpaceOnUse" x="10" y="111" width="17" height="17" fill="black">
<rect fill="white" x="10" y="111" width="17" height="17"/>
<path fill-rule="evenodd" clip-rule="evenodd" d="M18.7003 112.006C15.1014 111.835 14.1855 115.276 14.1855 115.276C14.1855 115.276 15.5635 115.146 16.2524 115.65H16.374C17.1846 114.893 18.3194 115.015 18.3194 115.015C18.3194 115.015 18.3356 115.154 18.2788 115.178C16.9009 115.39 16.3335 116.463 16.3335 116.463C16.3335 116.463 16.2849 116.504 16.2281 116.479C15.8796 115.731 14.6232 115.544 14.6232 115.544C14.6232 115.544 14.2017 115.568 13.8937 115.609C13.529 115.609 11.4215 116.187 11.0162 119.09C11 119.659 11 120.09 11 120.09C11 120.09 11.3485 122.425 13.2371 123.71C14.5503 122.652 15.4176 122.417 16.374 122.311C16.3902 122.107 16.374 119.139 16.374 119.139L17.29 118.635L17.3143 122.254L17.8979 122.27L17.9384 118.423L18.7895 117.854V122.441L19.4136 122.587L19.4542 117.585L20.3296 116.992L20.3539 122.986C20.3539 122.986 21.1969 123.555 21.9507 123.58C22.356 123.588 22.899 123.523 22.899 123.523C22.899 123.523 25.3956 123.344 25.9792 120.212C25.9792 120.136 25.9824 120.043 25.9863 119.93C25.9948 119.685 26.0065 119.345 25.9954 118.871C25.6955 115.788 22.6721 114.95 22.6721 114.95C22.6721 114.95 21.902 112.153 18.7003 112.006ZM13.6584 124.32C13.6584 124.32 14.4933 122.612 17.16 122.596C18.5663 122.587 19.358 123.043 20.0821 123.459C20.727 123.83 21.3182 124.171 22.2423 124.125C23.7013 124.043 24.2849 123.539 24.2849 123.539C24.2849 123.539 23.2879 125.125 21.302 125.141C20.2669 125.15 19.6458 124.774 19.0231 124.397C18.4513 124.051 17.8781 123.704 16.9817 123.653C15.1093 123.547 13.6584 124.32 13.6584 124.32ZM14.1855 124.507C14.1855 124.507 14.5908 124.043 16.066 124.035C17.2086 124.027 17.9615 124.433 18.7133 124.839C19.428 125.224 20.1418 125.61 21.1888 125.637C21.7724 125.637 22.0642 125.621 22.0642 125.621C22.0642 125.621 20.9132 126.093 19.0894 126.093C16.0093 126.093 14.1855 124.507 14.1855 124.507Z"/>
</mask>
<path fill-rule="evenodd" clip-rule="evenodd" d="M18.7003 112.006C15.1014 111.835 14.1855 115.276 14.1855 115.276C14.1855 115.276 15.5635 115.146 16.2524 115.65H16.374C17.1846 114.893 18.3194 115.015 18.3194 115.015C18.3194 115.015 18.3356 115.154 18.2788 115.178C16.9009 115.39 16.3335 116.463 16.3335 116.463C16.3335 116.463 16.2849 116.504 16.2281 116.479C15.8796 115.731 14.6232 115.544 14.6232 115.544C14.6232 115.544 14.2017 115.568 13.8937 115.609C13.529 115.609 11.4215 116.187 11.0162 119.09C11 119.659 11 120.09 11 120.09C11 120.09 11.3485 122.425 13.2371 123.71C14.5503 122.652 15.4176 122.417 16.374 122.311C16.3902 122.107 16.374 119.139 16.374 119.139L17.29 118.635L17.3143 122.254L17.8979 122.27L17.9384 118.423L18.7895 117.854V122.441L19.4136 122.587L19.4542 117.585L20.3296 116.992L20.3539 122.986C20.3539 122.986 21.1969 123.555 21.9507 123.58C22.356 123.588 22.899 123.523 22.899 123.523C22.899 123.523 25.3956 123.344 25.9792 120.212C25.9792 120.136 25.9824 120.043 25.9863 119.93C25.9948 119.685 26.0065 119.345 25.9954 118.871C25.6955 115.788 22.6721 114.95 22.6721 114.95C22.6721 114.95 21.902 112.153 18.7003 112.006ZM13.6584 124.32C13.6584 124.32 14.4933 122.612 17.16 122.596C18.5663 122.587 19.358 123.043 20.0821 123.459C20.727 123.83 21.3182 124.171 22.2423 124.125C23.7013 124.043 24.2849 123.539 24.2849 123.539C24.2849 123.539 23.2879 125.125 21.302 125.141C20.2669 125.15 19.6458 124.774 19.0231 124.397C18.4513 124.051 17.8781 123.704 16.9817 123.653C15.1093 123.547 13.6584 124.32 13.6584 124.32ZM14.1855 124.507C14.1855 124.507 14.5908 124.043 16.066 124.035C17.2086 124.027 17.9615 124.433 18.7133 124.839C19.428 125.224 20.1418 125.61 21.1888 125.637C21.7724 125.637 22.0642 125.621 22.0642 125.621C22.0642 125.621 20.9132 126.093 19.0894 126.093C16.0093 126.093 14.1855 124.507 14.1855 124.507Z" fill="#12A64E"/>
<path d="M14.1855 115.276L13.2192 115.018C13.135 115.335 13.2108 115.672 13.4222 115.922C13.6336 116.171 13.9538 116.302 14.2795 116.271L14.1855 115.276ZM18.7003 112.006L18.6529 113.005L18.6547 113.005L18.7003 112.006ZM16.2524 115.65L15.6618 116.457C15.8332 116.582 16.0401 116.65 16.2524 116.65V115.65ZM16.374 115.65V116.65C16.6273 116.65 16.8711 116.554 17.0563 116.381L16.374 115.65ZM18.3194 115.015L19.3126 114.899C19.2582 114.435 18.8904 114.071 18.4263 114.021L18.3194 115.015ZM18.2788 115.178L18.4305 116.167C18.5143 116.154 18.5961 116.13 18.6739 116.097L18.2788 115.178ZM16.3335 116.463L16.975 117.23C17.0745 117.147 17.157 117.045 17.2176 116.93L16.3335 116.463ZM16.2281 116.479L15.3216 116.902C15.4254 117.124 15.6074 117.301 15.8331 117.398L16.2281 116.479ZM14.6232 115.544L14.7705 114.555C14.7026 114.545 14.6339 114.542 14.5654 114.546L14.6232 115.544ZM13.8937 115.609V116.609C13.9375 116.609 13.9812 116.606 14.0246 116.601L13.8937 115.609ZM11.0162 119.09L10.0258 118.952C10.0207 118.988 10.0177 119.025 10.0166 119.062L11.0162 119.09ZM11 120.09H10C10 120.14 10.0037 120.189 10.011 120.238L11 120.09ZM13.2371 123.71L12.6746 124.536C13.0385 124.784 13.5215 124.765 13.8643 124.489L13.2371 123.71ZM16.374 122.311L16.4839 123.305C16.9606 123.252 17.3327 122.868 17.3709 122.39L16.374 122.311ZM16.374 119.139L15.8917 118.263C15.5707 118.44 15.372 118.778 15.374 119.144L16.374 119.139ZM17.29 118.635L18.2899 118.628C18.2876 118.276 18.0999 117.95 17.7958 117.772C17.4918 117.594 17.1164 117.589 16.8077 117.759L17.29 118.635ZM17.3143 122.254L16.3143 122.261C16.3179 122.799 16.7478 123.238 17.2864 123.254L17.3143 122.254ZM17.8979 122.27L17.87 123.27C18.1381 123.277 18.398 123.177 18.5913 122.991C18.7845 122.805 18.895 122.549 18.8978 122.281L17.8979 122.27ZM17.9384 118.423L17.3824 117.592C17.1081 117.776 16.9419 118.083 16.9385 118.413L17.9384 118.423ZM18.7895 117.854H19.7895C19.7895 117.485 19.5862 117.146 19.2607 116.972C18.9351 116.798 18.5403 116.817 18.2335 117.023L18.7895 117.854ZM18.7895 122.441H17.7895C17.7895 122.905 18.1091 123.308 18.5611 123.415L18.7895 122.441ZM19.4136 122.587L19.1853 123.561C19.4812 123.63 19.7926 123.561 20.0316 123.374C20.2706 123.186 20.4111 122.899 20.4136 122.595L19.4136 122.587ZM19.4542 117.585L18.8929 116.758C18.6208 116.942 18.4569 117.249 18.4542 117.577L19.4542 117.585ZM20.3296 116.992L21.3296 116.988C21.3281 116.618 21.1229 116.28 20.7961 116.107C20.4693 115.935 20.0741 115.957 19.7683 116.164L20.3296 116.992ZM20.3539 122.986L19.3539 122.99C19.3552 123.321 19.5201 123.629 19.7942 123.815L20.3539 122.986ZM21.9507 123.58L21.9183 124.579L21.9306 124.579L21.9507 123.58ZM22.899 123.523L22.8276 122.525C22.8117 122.526 22.7959 122.528 22.7801 122.53L22.899 123.523ZM25.9792 120.212L26.9622 120.396C26.9735 120.335 26.9792 120.274 26.9792 120.212H25.9792ZM25.9863 119.93L26.9857 119.965V119.965L25.9863 119.93ZM25.9954 118.871L26.9951 118.847C26.9945 118.823 26.9931 118.798 26.9907 118.774L25.9954 118.871ZM22.6721 114.95L21.7079 115.216C21.8013 115.555 22.066 115.82 22.4051 115.914L22.6721 114.95ZM17.16 122.596L17.1661 123.596H17.1662L17.16 122.596ZM13.6584 124.32L12.76 123.881C12.5696 124.27 12.6519 124.738 12.9637 125.039C13.2755 125.34 13.7458 125.406 14.1285 125.203L13.6584 124.32ZM20.0821 123.459L20.5809 122.593H20.5809L20.0821 123.459ZM22.2423 124.125L22.292 125.124L22.2979 125.123L22.2423 124.125ZM24.2849 123.539L25.1315 124.071C25.395 123.652 25.3121 123.103 24.9365 122.781C24.5609 122.458 24.0058 122.459 23.6311 122.782L24.2849 123.539ZM21.302 125.141L21.2938 124.141H21.2938L21.302 125.141ZM19.0231 124.397L18.5052 125.252L18.5052 125.252L19.0231 124.397ZM16.9817 123.653L17.0381 122.655L16.9817 123.653ZM16.066 124.035L16.0715 125.035L16.0733 125.035L16.066 124.035ZM14.1855 124.507L13.4327 123.849C13.2578 124.049 13.1697 124.31 13.1879 124.575C13.206 124.84 13.3289 125.087 13.5293 125.261L14.1855 124.507ZM18.7133 124.839L18.2384 125.719L18.2384 125.719L18.7133 124.839ZM21.1888 125.637L21.1623 126.637C21.1711 126.637 21.1799 126.637 21.1888 126.637V125.637ZM22.0642 125.621L22.4434 126.546C22.8952 126.361 23.1472 125.877 23.0396 125.401C22.9319 124.924 22.496 124.595 22.0085 124.623L22.0642 125.621ZM14.1855 115.276C15.1518 115.533 15.1517 115.533 15.1516 115.534C15.1516 115.534 15.1515 115.534 15.1514 115.535C15.1512 115.535 15.1511 115.536 15.151 115.536C15.1508 115.537 15.1506 115.538 15.1505 115.538C15.1502 115.539 15.1502 115.539 15.1504 115.538C15.1507 115.537 15.1519 115.533 15.1541 115.526C15.1583 115.512 15.1662 115.487 15.178 115.452C15.2018 115.382 15.2411 115.277 15.2987 115.147C15.4152 114.885 15.5998 114.541 15.8706 114.206C16.3939 113.559 17.2366 112.938 18.6529 113.005L18.7477 111.007C16.5652 110.904 15.1504 111.917 14.316 112.948C13.908 113.452 13.6387 113.957 13.471 114.335C13.3865 114.525 13.3261 114.686 13.2857 114.804C13.2655 114.864 13.2502 114.912 13.2393 114.948C13.2338 114.966 13.2294 114.981 13.2261 114.993C13.2245 114.999 13.223 115.004 13.2219 115.008C13.2213 115.01 13.2208 115.012 13.2203 115.014C13.2201 115.015 13.2199 115.016 13.2197 115.016C13.2196 115.017 13.2195 115.017 13.2194 115.017C13.2193 115.018 13.2192 115.018 14.1855 115.276ZM16.843 114.843C16.2563 114.413 15.4927 114.309 15.0313 114.276C14.774 114.258 14.5452 114.259 14.3807 114.264C14.2978 114.266 14.2296 114.27 14.1803 114.273C14.1556 114.275 14.1355 114.276 14.1205 114.278C14.113 114.278 14.1068 114.279 14.102 114.279C14.0996 114.279 14.0975 114.28 14.0957 114.28C14.0948 114.28 14.094 114.28 14.0933 114.28C14.093 114.28 14.0927 114.28 14.0923 114.28C14.0922 114.28 14.092 114.28 14.0919 114.28C14.0917 114.28 14.0915 114.28 14.1855 115.276C14.2795 116.271 14.2793 116.271 14.2791 116.271C14.2791 116.271 14.2789 116.271 14.2788 116.271C14.2786 116.271 14.2784 116.271 14.2782 116.271C14.2778 116.271 14.2775 116.271 14.2773 116.271C14.2769 116.271 14.2768 116.271 14.277 116.271C14.2774 116.271 14.279 116.271 14.2818 116.271C14.2874 116.271 14.2975 116.27 14.3119 116.269C14.3406 116.267 14.3854 116.265 14.4424 116.263C14.5579 116.259 14.7166 116.259 14.89 116.271C15.2897 116.299 15.5596 116.382 15.6618 116.457L16.843 114.843ZM16.374 114.65H16.2524V116.65H16.374V114.65ZM18.3194 115.015C18.4263 114.021 18.4259 114.021 18.4255 114.021C18.4254 114.021 18.425 114.021 18.4248 114.021C18.4243 114.021 18.4237 114.021 18.4232 114.021C18.4221 114.021 18.4209 114.021 18.4197 114.02C18.4172 114.02 18.4144 114.02 18.4113 114.02C18.4052 114.019 18.3979 114.018 18.3894 114.018C18.3726 114.016 18.3513 114.015 18.3259 114.013C18.2752 114.01 18.2076 114.008 18.1262 114.008C17.9645 114.009 17.7423 114.02 17.4866 114.063C16.9836 114.146 16.2885 114.362 15.6918 114.919L17.0563 116.381C17.2701 116.181 17.5477 116.08 17.8148 116.035C17.944 116.014 18.0562 116.008 18.1326 116.008C18.1703 116.008 18.1976 116.009 18.2121 116.01C18.2193 116.01 18.2232 116.011 18.2234 116.011C18.2235 116.011 18.2227 116.011 18.2209 116.011C18.22 116.01 18.2188 116.01 18.2174 116.01C18.2167 116.01 18.216 116.01 18.2151 116.01C18.2147 116.01 18.2143 116.01 18.2139 116.01C18.2136 116.01 18.2133 116.01 18.2132 116.01C18.2128 116.01 18.2125 116.01 18.3194 115.015ZM18.6739 116.097C19.0351 115.941 19.1854 115.646 19.2395 115.509C19.2971 115.363 19.3119 115.233 19.3171 115.168C19.3232 115.093 19.3218 115.03 19.3199 114.99C19.3189 114.969 19.3175 114.95 19.3162 114.935C19.3155 114.927 19.3149 114.921 19.3143 114.915C19.314 114.912 19.3137 114.909 19.3134 114.906C19.3132 114.905 19.3131 114.904 19.313 114.902C19.3129 114.902 19.3128 114.901 19.3128 114.901C19.3127 114.9 19.3127 114.9 19.3127 114.9C19.3126 114.9 19.3126 114.899 19.3126 114.899C19.3126 114.899 19.3126 114.899 18.3194 115.015C17.3262 115.132 17.3261 115.132 17.3261 115.131C17.3261 115.131 17.3261 115.131 17.3261 115.131C17.326 115.131 17.326 115.13 17.326 115.13C17.3259 115.13 17.3259 115.129 17.3258 115.129C17.3257 115.128 17.3256 115.126 17.3254 115.125C17.3252 115.123 17.325 115.121 17.3248 115.119C17.3244 115.115 17.324 115.112 17.3237 115.108C17.3231 115.101 17.3225 115.093 17.3221 115.085C17.3215 115.071 17.3206 115.044 17.3236 115.007C17.3259 114.98 17.334 114.889 17.3787 114.776C17.4199 114.671 17.5509 114.403 17.8838 114.259L18.6739 116.097ZM16.3335 116.463C17.2176 116.93 17.2174 116.931 17.2172 116.931C17.2171 116.931 17.2169 116.932 17.2168 116.932C17.2165 116.932 17.2163 116.933 17.216 116.933C17.2155 116.934 17.215 116.935 17.2146 116.936C17.2137 116.938 17.213 116.939 17.2123 116.94C17.211 116.943 17.2102 116.944 17.2099 116.945C17.2092 116.946 17.2105 116.944 17.2137 116.938C17.2201 116.928 17.234 116.906 17.2557 116.876C17.2995 116.815 17.3717 116.725 17.4738 116.629C17.6757 116.44 17.984 116.235 18.4305 116.167L18.1272 114.19C17.1957 114.333 16.5314 114.771 16.105 115.171C15.893 115.37 15.7373 115.561 15.6317 115.708C15.5786 115.782 15.5375 115.846 15.5075 115.895C15.4924 115.919 15.4802 115.94 15.4705 115.957C15.4657 115.966 15.4615 115.973 15.458 115.98C15.4563 115.983 15.4547 115.986 15.4532 115.989C15.4525 115.99 15.4518 115.991 15.4512 115.992C15.4509 115.993 15.4505 115.994 15.4502 115.994C15.4501 115.994 15.4499 115.995 15.4498 115.995C15.4496 115.995 15.4494 115.996 16.3335 116.463ZM15.8331 117.398C16.1662 117.541 16.4703 117.484 16.6488 117.418C16.7376 117.386 16.808 117.347 16.8581 117.315C16.8839 117.299 16.9064 117.283 16.9255 117.269C16.9351 117.262 16.944 117.255 16.9522 117.249C16.9563 117.245 16.9603 117.242 16.9641 117.239C16.966 117.238 16.9678 117.236 16.9696 117.235C16.9705 117.234 16.9714 117.233 16.9723 117.232C16.9728 117.232 16.9732 117.232 16.9736 117.231C16.9739 117.231 16.9742 117.231 16.9743 117.231C16.9746 117.231 16.975 117.23 16.3335 116.463C15.692 115.696 15.6924 115.696 15.6927 115.695C15.6928 115.695 15.6931 115.695 15.6933 115.695C15.6938 115.695 15.6942 115.694 15.6946 115.694C15.6955 115.693 15.6964 115.692 15.6973 115.692C15.699 115.69 15.7008 115.689 15.7026 115.687C15.7062 115.684 15.7099 115.681 15.7136 115.678C15.7211 115.673 15.7289 115.667 15.7371 115.66C15.7533 115.648 15.7716 115.636 15.7919 115.623C15.8311 115.598 15.8859 115.568 15.9553 115.542C16.0954 115.491 16.3468 115.442 16.6232 115.561L15.8331 117.398ZM14.6232 115.544C14.4759 116.533 14.4757 116.533 14.4754 116.533C14.4754 116.533 14.4751 116.533 14.4749 116.533C14.4746 116.533 14.4743 116.533 14.4741 116.533C14.4735 116.533 14.473 116.533 14.4726 116.533C14.4718 116.533 14.4712 116.532 14.471 116.532C14.4704 116.532 14.4709 116.532 14.4725 116.533C14.4756 116.533 14.4827 116.534 14.4934 116.536C14.5148 116.54 14.5497 116.547 14.5942 116.558C14.6852 116.58 14.806 116.613 14.9298 116.662C15.0567 116.712 15.1622 116.767 15.2376 116.823C15.3132 116.879 15.3252 116.909 15.3216 116.902L17.1346 116.057C16.7903 115.318 16.073 114.962 15.6601 114.8C15.4263 114.708 15.2112 114.649 15.0557 114.612C14.977 114.593 14.911 114.58 14.8624 114.571C14.838 114.566 14.8178 114.563 14.8023 114.56C14.7946 114.559 14.788 114.558 14.7827 114.557C14.78 114.556 14.7777 114.556 14.7756 114.556C14.7746 114.556 14.7737 114.555 14.7728 114.555C14.7724 114.555 14.772 114.555 14.7716 114.555C14.7714 114.555 14.7711 114.555 14.771 114.555C14.7707 114.555 14.7705 114.555 14.6232 115.544ZM14.0246 116.601C14.1518 116.584 14.3131 116.569 14.4515 116.558C14.5187 116.553 14.5771 116.549 14.6183 116.546C14.6389 116.545 14.6551 116.544 14.6659 116.543C14.6713 116.543 14.6754 116.543 14.6779 116.543C14.6792 116.542 14.6801 116.542 14.6806 116.542C14.6809 116.542 14.6811 116.542 14.6811 116.542C14.6811 116.542 14.6812 116.542 14.6811 116.542C14.6811 116.542 14.6811 116.542 14.6811 116.542C14.6811 116.542 14.6811 116.542 14.681 116.542C14.681 116.542 14.681 116.542 14.6232 115.544C14.5654 114.546 14.5654 114.546 14.5654 114.546C14.5653 114.546 14.5653 114.546 14.5653 114.546C14.5652 114.546 14.5652 114.546 14.5651 114.546C14.565 114.546 14.5649 114.546 14.5647 114.546C14.5643 114.546 14.5639 114.546 14.5633 114.546C14.5622 114.546 14.5607 114.546 14.5589 114.546C14.5551 114.546 14.5498 114.547 14.543 114.547C14.5296 114.548 14.5105 114.549 14.4867 114.551C14.4394 114.554 14.3731 114.558 14.2965 114.564C14.1471 114.576 13.9436 114.594 13.7628 114.618L14.0246 116.601ZM12.0066 119.228C12.1744 118.026 12.6748 117.384 13.1015 117.036C13.3241 116.855 13.5418 116.742 13.7105 116.676C13.906 116.6 13.9754 116.609 13.8937 116.609V114.609C13.6296 114.609 13.2988 114.69 12.9839 114.813C12.6422 114.946 12.2393 115.159 11.8388 115.485C11.0193 116.152 10.2633 117.251 10.0258 118.952L12.0066 119.228ZM11 120.09C12 120.09 12 120.09 12 120.091C12 120.091 12 120.091 12 120.091C12 120.091 12 120.091 12 120.091C12 120.091 12 120.091 12 120.09C12 120.09 12 120.09 12 120.09C12 120.089 12 120.088 12 120.087C12 120.084 12 120.079 12 120.073C12.0001 120.061 12.0001 120.043 12.0002 120.019C12.0005 119.972 12.001 119.902 12.002 119.815C12.0039 119.641 12.0079 119.396 12.0158 119.119L10.0166 119.062C10.0083 119.353 10.0042 119.609 10.0021 119.792C10.0011 119.884 10.0005 119.958 10.0003 120.009C10.0001 120.035 10.0001 120.055 10 120.068C10 120.075 10 120.081 10 120.084C10 120.086 10 120.088 10 120.089C10 120.089 10 120.09 10 120.09C10 120.09 10 120.09 10 120.09C10 120.09 10 120.09 10 120.09C10 120.09 10 120.09 10 120.09C10 120.09 10 120.09 11 120.09ZM13.7997 122.883C13.0644 122.383 12.6056 121.66 12.3276 121.02C12.1904 120.704 12.1036 120.423 12.0517 120.223C12.0259 120.124 12.0092 120.047 11.9994 119.998C11.9945 119.973 11.9914 119.956 11.9897 119.946C11.9889 119.942 11.9885 119.939 11.9884 119.938C11.9883 119.938 11.9883 119.938 11.9885 119.939C11.9885 119.939 11.9886 119.94 11.9887 119.94C11.9887 119.941 11.9888 119.941 11.9888 119.942C11.9889 119.942 11.9889 119.942 11.9889 119.942C11.989 119.942 11.989 119.943 11 120.09C10.011 120.238 10.011 120.239 10.0111 120.239C10.0111 120.239 10.0111 120.239 10.0112 120.24C10.0113 120.24 10.0114 120.241 10.0114 120.241C10.0116 120.243 10.0118 120.244 10.0121 120.245C10.0125 120.248 10.0131 120.252 10.0138 120.256C10.0151 120.264 10.0168 120.275 10.019 120.288C10.0234 120.313 10.0296 120.347 10.0379 120.389C10.0546 120.472 10.0798 120.587 10.1162 120.727C10.1887 121.006 10.3071 121.388 10.4931 121.817C10.8615 122.665 11.5213 123.752 12.6746 124.536L13.7997 122.883ZM16.2641 121.317C15.7322 121.376 15.1773 121.476 14.5614 121.728C13.9502 121.977 13.3222 122.357 12.61 122.931L13.8643 124.489C14.4652 124.005 14.9274 123.738 15.3173 123.579C15.7024 123.422 16.0594 123.352 16.4839 123.305L16.2641 121.317ZM16.374 119.139C15.374 119.144 15.374 119.144 15.374 119.144C15.374 119.144 15.374 119.144 15.374 119.144C15.374 119.145 15.374 119.145 15.374 119.145C15.374 119.145 15.374 119.146 15.374 119.146C15.3741 119.148 15.3741 119.15 15.3741 119.153C15.3741 119.158 15.3742 119.167 15.3742 119.178C15.3743 119.199 15.3745 119.231 15.3747 119.272C15.3751 119.353 15.3757 119.47 15.3763 119.61C15.3776 119.892 15.3791 120.268 15.3801 120.651C15.3811 121.035 15.3816 121.423 15.3809 121.727C15.3805 121.879 15.3798 122.009 15.3787 122.105C15.3775 122.221 15.3758 122.249 15.3772 122.231L17.3709 122.39C17.3833 122.234 17.382 121.372 17.3801 120.646C17.3791 120.261 17.3776 119.883 17.3763 119.601C17.3757 119.46 17.3751 119.344 17.3747 119.262C17.3745 119.221 17.3743 119.189 17.3742 119.167C17.3741 119.156 17.3741 119.148 17.3741 119.142C17.374 119.139 17.374 119.137 17.374 119.136C17.374 119.135 17.374 119.134 17.374 119.134C17.374 119.134 17.374 119.134 17.374 119.134C17.374 119.134 17.374 119.134 17.374 119.133C17.374 119.133 17.374 119.133 16.374 119.139ZM16.8077 117.759L15.8917 118.263L16.8563 120.015L17.7722 119.511L16.8077 117.759ZM18.3142 122.247L18.2899 118.628L16.29 118.641L16.3143 122.261L18.3142 122.247ZM17.9257 121.271L17.3421 121.254L17.2864 123.254L17.87 123.27L17.9257 121.271ZM16.9385 118.413L16.8979 122.26L18.8978 122.281L18.9383 118.434L16.9385 118.413ZM18.2335 117.023L17.3824 117.592L18.4944 119.254L19.3455 118.685L18.2335 117.023ZM19.7895 122.441V117.854H17.7895V122.441H19.7895ZM19.642 121.614L19.0179 121.467L18.5611 123.415L19.1853 123.561L19.642 121.614ZM18.4542 117.577L18.4137 122.579L20.4136 122.595L20.4541 117.594L18.4542 117.577ZM19.7683 116.164L18.8929 116.758L20.0155 118.413L20.8909 117.819L19.7683 116.164ZM21.3539 122.982L21.3296 116.988L19.3296 116.996L19.3539 122.99L21.3539 122.982ZM21.983 122.58C21.8132 122.575 21.5635 122.497 21.2999 122.371C21.1801 122.314 21.0779 122.257 21.0068 122.215C20.9716 122.194 20.945 122.177 20.9287 122.167C20.9206 122.162 20.9151 122.158 20.9125 122.156C20.9112 122.156 20.9106 122.155 20.9108 122.155C20.9108 122.155 20.9111 122.156 20.9116 122.156C20.9118 122.156 20.9121 122.156 20.9124 122.156C20.9126 122.157 20.9128 122.157 20.913 122.157C20.913 122.157 20.9132 122.157 20.9132 122.157C20.9134 122.157 20.9136 122.157 20.3539 122.986C19.7942 123.815 19.7944 123.815 19.7945 123.815C19.7946 123.815 19.7948 123.815 19.7949 123.815C19.7951 123.815 19.7954 123.815 19.7956 123.816C19.7962 123.816 19.7968 123.816 19.7974 123.817C19.7987 123.818 19.8002 123.819 19.8019 123.82C19.8053 123.822 19.8095 123.825 19.8146 123.828C19.8247 123.835 19.8381 123.843 19.8545 123.854C19.8872 123.875 19.9324 123.903 19.988 123.936C20.0985 124.001 20.2542 124.088 20.4393 124.176C20.7857 124.341 21.3343 124.56 21.9183 124.579L21.983 122.58ZM22.899 123.523C22.7801 122.53 22.7801 122.53 22.7802 122.53C22.7802 122.53 22.7802 122.53 22.7803 122.53C22.7803 122.53 22.7804 122.53 22.7804 122.53C22.7805 122.53 22.7805 122.53 22.7805 122.53C22.7805 122.53 22.7804 122.53 22.7801 122.53C22.7797 122.53 22.7787 122.53 22.7772 122.53C22.7743 122.53 22.7695 122.531 22.7629 122.532C22.7497 122.533 22.7297 122.535 22.7041 122.538C22.6526 122.543 22.5797 122.551 22.4953 122.558C22.3196 122.572 22.1223 122.583 21.9707 122.58L21.9306 124.579C22.1843 124.584 22.4613 124.567 22.6584 124.551C22.7605 124.542 22.8486 124.534 22.9116 124.527C22.9432 124.524 22.9688 124.521 22.9869 124.519C22.996 124.518 23.0032 124.517 23.0085 124.517C23.0111 124.516 23.0132 124.516 23.0148 124.516C23.0156 124.516 23.0163 124.516 23.0168 124.516C23.0171 124.516 23.0173 124.516 23.0175 124.516C23.0176 124.516 23.0177 124.516 23.0178 124.516C23.0178 124.516 23.0179 124.516 23.0179 124.516C23.0179 124.516 23.018 124.516 22.899 123.523ZM24.9961 120.029C24.7574 121.31 24.1585 121.901 23.6899 122.194C23.4412 122.35 23.206 122.435 23.0374 122.48C22.9538 122.503 22.8891 122.515 22.8508 122.521C22.8318 122.524 22.8196 122.526 22.8153 122.526C22.8132 122.526 22.8131 122.526 22.815 122.526C22.816 122.526 22.8176 122.526 22.8196 122.526C22.8207 122.526 22.8219 122.526 22.8232 122.526C22.8238 122.525 22.8245 122.525 22.8253 122.525C22.8256 122.525 22.8262 122.525 22.8264 122.525C22.827 122.525 22.8276 122.525 22.899 123.523C22.9705 124.52 22.9711 124.52 22.9718 124.52C22.972 124.52 22.9726 124.52 22.973 124.52C22.9739 124.52 22.9748 124.52 22.9758 124.52C22.9777 124.52 22.9798 124.519 22.9821 124.519C22.9865 124.519 22.9917 124.518 22.9974 124.518C23.0089 124.517 23.0228 124.515 23.0391 124.514C23.0717 124.51 23.1137 124.504 23.1641 124.497C23.2646 124.481 23.3995 124.454 23.5591 124.411C23.8768 124.325 24.3022 124.17 24.7507 123.89C25.6762 123.31 26.6173 122.246 26.9622 120.396L24.9961 120.029ZM24.9869 119.896C24.9832 120.002 24.9792 120.115 24.9792 120.212H26.9792C26.9792 120.157 26.9816 120.084 26.9857 119.965L24.9869 119.896ZM24.9957 118.894C25.0061 119.338 24.9952 119.655 24.9869 119.896L26.9857 119.965C26.9943 119.714 27.0069 119.351 26.9951 118.847L24.9957 118.894ZM22.6721 114.95C22.4051 115.914 22.4046 115.914 22.4042 115.914C22.4041 115.914 22.4037 115.914 22.4035 115.914C22.403 115.913 22.4025 115.913 22.4021 115.913C22.4013 115.913 22.4007 115.913 22.4002 115.913C22.3993 115.912 22.3991 115.912 22.3995 115.912C22.4004 115.913 22.404 115.914 22.41 115.916C22.422 115.919 22.444 115.926 22.4744 115.937C22.5354 115.958 22.6296 115.993 22.7466 116.045C22.9826 116.149 23.2997 116.313 23.6214 116.555C24.2571 117.031 24.8845 117.779 25.0001 118.967L26.9907 118.774C26.8064 116.879 25.7721 115.667 24.8211 114.954C24.3495 114.601 23.892 114.364 23.5517 114.214C23.3806 114.139 23.2363 114.084 23.1308 114.048C23.0779 114.029 23.0346 114.015 23.0022 114.005C22.986 114 22.9726 113.996 22.962 113.993C22.9567 113.992 22.9521 113.99 22.9483 113.989C22.9464 113.989 22.9447 113.988 22.9431 113.988C22.9424 113.988 22.9416 113.987 22.941 113.987C22.9406 113.987 22.9402 113.987 22.94 113.987C22.9395 113.987 22.9391 113.987 22.6721 114.95ZM18.6547 113.005C19.9269 113.063 20.6709 113.631 21.1158 114.17C21.3457 114.448 21.4991 114.725 21.5939 114.93C21.6409 115.032 21.6722 115.113 21.6906 115.165C21.6997 115.191 21.7055 115.209 21.7083 115.217C21.7097 115.222 21.7103 115.224 21.7102 115.224C21.7102 115.224 21.71 115.223 21.7096 115.222C21.7094 115.221 21.7092 115.22 21.7089 115.219C21.7088 115.219 21.7086 115.218 21.7084 115.218C21.7084 115.217 21.7082 115.217 21.7082 115.217C21.7081 115.216 21.7079 115.216 22.6721 114.95C23.6362 114.685 23.6361 114.684 23.6359 114.684C23.6359 114.684 23.6358 114.683 23.6356 114.683C23.6354 114.682 23.6352 114.681 23.635 114.68C23.6345 114.679 23.634 114.677 23.6334 114.675C23.6323 114.671 23.6309 114.666 23.6293 114.661C23.6261 114.65 23.6221 114.636 23.617 114.62C23.607 114.588 23.5931 114.546 23.5749 114.495C23.5386 114.393 23.4848 114.254 23.4096 114.092C23.2599 113.768 23.0207 113.336 22.6579 112.896C21.9173 112 20.6755 111.095 18.746 111.007L18.6547 113.005ZM17.1539 121.596C15.5887 121.605 14.4987 122.118 13.7886 122.68C13.44 122.956 13.1935 123.235 13.0297 123.454C12.9477 123.564 12.886 123.659 12.842 123.732C12.82 123.769 12.8023 123.8 12.7888 123.825C12.782 123.838 12.7763 123.849 12.7715 123.858C12.7691 123.863 12.7669 123.867 12.765 123.871C12.7641 123.873 12.7632 123.874 12.7623 123.876C12.7619 123.877 12.7615 123.878 12.7611 123.878C12.7609 123.879 12.7607 123.879 12.7606 123.88C12.7603 123.88 12.76 123.881 13.6584 124.32C14.5568 124.759 14.5566 124.76 14.5563 124.76C14.5562 124.76 14.556 124.761 14.5558 124.761C14.5555 124.762 14.5551 124.763 14.5548 124.763C14.5542 124.764 14.5536 124.766 14.553 124.767C14.552 124.769 14.5511 124.771 14.5503 124.772C14.5489 124.775 14.5481 124.776 14.5481 124.776C14.5481 124.776 14.551 124.771 14.557 124.761C14.5691 124.741 14.5934 124.702 14.6314 124.652C14.7075 124.55 14.8363 124.401 15.0298 124.248C15.4038 123.952 16.0647 123.602 17.1661 123.596L17.1539 121.596ZM20.5809 122.593C19.8182 122.154 18.8345 121.585 17.1539 121.596L17.1662 123.596C18.2981 123.589 18.8978 123.932 19.5833 124.326L20.5809 122.593ZM22.1926 123.126C21.5876 123.156 21.2233 122.962 20.5809 122.593L19.5833 124.326C20.2307 124.699 21.0488 125.185 22.292 125.123L22.1926 123.126ZM24.2849 123.539C23.6311 122.782 23.6315 122.782 23.6319 122.782C23.6321 122.782 23.6325 122.781 23.6328 122.781C23.6333 122.781 23.6339 122.78 23.6344 122.78C23.6355 122.779 23.6365 122.778 23.6376 122.777C23.6396 122.775 23.6415 122.774 23.6433 122.772C23.6468 122.769 23.6499 122.767 23.6524 122.765C23.6575 122.761 23.6604 122.758 23.6613 122.758C23.663 122.756 23.6561 122.762 23.6401 122.772C23.6082 122.792 23.5389 122.832 23.4274 122.878C23.2062 122.97 22.8066 123.092 22.1866 123.126L22.2979 125.123C23.1369 125.076 23.7586 124.906 24.194 124.725C24.4108 124.635 24.5786 124.544 24.7017 124.467C24.7632 124.428 24.8133 124.393 24.8526 124.364C24.8723 124.35 24.8892 124.336 24.9035 124.325C24.9107 124.319 24.9172 124.314 24.9231 124.309C24.926 124.307 24.9288 124.304 24.9314 124.302C24.9327 124.301 24.9339 124.3 24.9351 124.299C24.9357 124.298 24.9363 124.298 24.9369 124.297C24.9372 124.297 24.9377 124.297 24.9378 124.297C24.9382 124.296 24.9387 124.296 24.2849 123.539ZM21.3102 126.141C22.5846 126.131 23.541 125.613 24.1634 125.115C24.4737 124.866 24.7071 124.618 24.8653 124.429C24.9448 124.333 25.0066 124.252 25.0506 124.19C25.0727 124.16 25.0905 124.134 25.1039 124.114C25.1106 124.104 25.1163 124.095 25.1209 124.088C25.1232 124.084 25.1252 124.081 25.127 124.078C25.1279 124.077 25.1287 124.076 25.1294 124.075C25.1298 124.074 25.1302 124.073 25.1305 124.073C25.1307 124.073 25.1309 124.072 25.131 124.072C25.1313 124.072 25.1315 124.071 24.2849 123.539C23.4383 123.007 23.4385 123.007 23.4387 123.006C23.4388 123.006 23.439 123.006 23.4392 123.006C23.4394 123.005 23.4397 123.005 23.44 123.004C23.4405 123.003 23.4409 123.003 23.4413 123.002C23.4421 123.001 23.4427 123 23.443 122.999C23.4437 122.998 23.4435 122.999 23.4425 123C23.4404 123.003 23.4348 123.012 23.4257 123.024C23.4075 123.05 23.3758 123.092 23.3308 123.146C23.2401 123.254 23.1001 123.404 22.9129 123.554C22.5403 123.852 22.0053 124.136 21.2938 124.141L21.3102 126.141ZM18.5052 125.252C19.1462 125.64 19.9752 126.152 21.3102 126.141L21.2938 124.141C20.5585 124.147 20.1453 123.907 19.541 123.541L18.5052 125.252ZM16.9253 124.651C17.5534 124.687 17.9406 124.91 18.5052 125.252L19.541 123.541C18.9619 123.191 18.2029 122.72 17.0381 122.655L16.9253 124.651ZM13.6584 124.32C14.1285 125.203 14.1282 125.203 14.128 125.203C14.1279 125.203 14.1277 125.203 14.1275 125.203C14.1272 125.203 14.1269 125.203 14.1267 125.204C14.1262 125.204 14.1257 125.204 14.1254 125.204C14.1247 125.205 14.1244 125.205 14.1244 125.205C14.1243 125.205 14.1256 125.204 14.1283 125.203C14.1335 125.2 14.1439 125.195 14.1592 125.187C14.1899 125.173 14.2402 125.149 14.3081 125.12C14.4442 125.062 14.6488 124.982 14.9066 124.904C15.4263 124.748 16.137 124.607 16.9253 124.651L17.0381 122.655C15.954 122.593 15.0031 122.786 14.3292 122.989C13.9902 123.092 13.7152 123.198 13.5207 123.282C13.4233 123.323 13.3456 123.359 13.2896 123.386C13.2616 123.4 13.239 123.411 13.2221 123.42C13.2136 123.424 13.2066 123.428 13.2009 123.431C13.1981 123.432 13.1957 123.433 13.1936 123.435C13.1925 123.435 13.1916 123.436 13.1907 123.436C13.1903 123.436 13.1899 123.436 13.1895 123.437C13.1893 123.437 13.189 123.437 13.1889 123.437C13.1887 123.437 13.1884 123.437 13.6584 124.32ZM16.0605 123.035C15.2193 123.04 14.6187 123.175 14.1939 123.348C13.9815 123.435 13.8166 123.531 13.6908 123.62C13.6281 123.665 13.576 123.708 13.5332 123.747C13.5118 123.766 13.4928 123.785 13.4761 123.802C13.4678 123.81 13.46 123.819 13.4527 123.826C13.4491 123.83 13.4456 123.834 13.4423 123.838C13.4406 123.84 13.439 123.841 13.4374 123.843C13.4366 123.844 13.4358 123.845 13.435 123.846C13.4346 123.846 13.434 123.847 13.4338 123.847C13.4332 123.848 13.4327 123.849 14.1855 124.507C14.9384 125.165 14.9378 125.166 14.9372 125.166C14.9371 125.167 14.9365 125.167 14.9361 125.168C14.9353 125.168 14.9346 125.169 14.9338 125.17C14.9323 125.172 14.9308 125.174 14.9294 125.175C14.9264 125.178 14.9235 125.182 14.9207 125.185C14.9151 125.191 14.9098 125.196 14.9047 125.201C14.8947 125.212 14.8859 125.22 14.8784 125.227C14.8636 125.24 14.8546 125.247 14.853 125.248C14.8493 125.251 14.8779 125.23 14.9513 125.2C15.0979 125.14 15.4376 125.039 16.0715 125.035L16.0605 123.035ZM19.1881 123.959C18.4296 123.549 17.4786 123.025 16.0587 123.035L16.0733 125.035C16.9387 125.029 17.4934 125.317 18.2384 125.719L19.1881 123.959ZM21.2153 124.638C20.429 124.617 19.9017 124.344 19.1881 123.959L18.2384 125.719C18.9544 126.105 19.8547 126.602 21.1623 126.637L21.2153 124.638ZM22.0642 125.621C22.0085 124.623 22.0086 124.623 22.0086 124.623C22.0086 124.623 22.0087 124.623 22.0087 124.623C22.0088 124.623 22.0088 124.623 22.0089 124.623C22.009 124.623 22.0091 124.623 22.0092 124.623C22.0093 124.623 22.0094 124.623 22.0094 124.623C22.0094 124.623 22.0091 124.623 22.0086 124.623C22.0074 124.623 22.0052 124.623 22.0018 124.623C21.995 124.623 21.9836 124.624 21.9677 124.624C21.9359 124.626 21.8858 124.628 21.8175 124.63C21.6808 124.633 21.4713 124.637 21.1888 124.637V126.637C21.4899 126.637 21.718 126.633 21.8732 126.629C21.9508 126.627 22.0101 126.624 22.0512 126.623C22.0718 126.622 22.0878 126.621 22.0992 126.621C22.1049 126.62 22.1095 126.62 22.113 126.62C22.1147 126.62 22.1161 126.62 22.1173 126.62C22.1178 126.62 22.1183 126.62 22.1188 126.62C22.119 126.62 22.1192 126.62 22.1194 126.62C22.1194 126.62 22.1195 126.62 22.1196 126.62C22.1197 126.62 22.1197 126.62 22.1197 126.62C22.1198 126.62 22.1198 126.62 22.0642 125.621ZM19.0894 127.093C20.0871 127.093 20.9061 126.964 21.4836 126.832C21.7726 126.766 22.002 126.699 22.1643 126.646C22.2454 126.62 22.3099 126.597 22.3567 126.58C22.3801 126.571 22.3991 126.564 22.4136 126.558C22.4208 126.555 22.4269 126.553 22.4319 126.551C22.4344 126.55 22.4366 126.549 22.4385 126.548C22.4395 126.548 22.4404 126.548 22.4412 126.547C22.4416 126.547 22.442 126.547 22.4423 126.547C22.4425 126.547 22.4428 126.547 22.4429 126.547C22.4431 126.546 22.4434 126.546 22.0642 125.621C21.685 124.696 21.6852 124.696 21.6854 124.696C21.6855 124.696 21.6858 124.695 21.6859 124.695C21.6862 124.695 21.6865 124.695 21.6868 124.695C21.6873 124.695 21.6878 124.695 21.6882 124.694C21.689 124.694 21.6895 124.694 21.6897 124.694C21.6902 124.694 21.6897 124.694 21.688 124.694C21.6848 124.696 21.6773 124.699 21.6657 124.703C21.6424 124.711 21.6027 124.726 21.5474 124.744C21.4368 124.779 21.2645 124.83 21.0378 124.882C20.5838 124.986 19.9155 125.093 19.0894 125.093V127.093ZM14.1855 124.507C13.5293 125.261 13.5296 125.262 13.53 125.262C13.5301 125.262 13.5304 125.262 13.5306 125.263C13.5311 125.263 13.5316 125.263 13.5321 125.264C13.5332 125.265 13.5344 125.266 13.5356 125.267C13.5382 125.269 13.5412 125.272 13.5447 125.275C13.5517 125.281 13.5605 125.288 13.5712 125.297C13.5925 125.314 13.6211 125.337 13.6568 125.365C13.7284 125.421 13.8288 125.495 13.9571 125.582C14.2134 125.756 14.5826 125.981 15.056 126.204C16.0031 126.651 17.3745 127.093 19.0894 127.093V125.093C17.7242 125.093 16.6437 124.742 15.9089 124.395C15.5413 124.222 15.2621 124.051 15.0801 123.927C14.9893 123.866 14.9232 123.816 14.883 123.785C14.8629 123.769 14.8493 123.758 14.8423 123.753C14.8389 123.75 14.8371 123.748 14.837 123.748C14.8369 123.748 14.8373 123.748 14.8381 123.749C14.8385 123.749 14.839 123.75 14.8396 123.75C14.8399 123.751 14.8402 123.751 14.8406 123.751C14.8407 123.751 14.841 123.752 14.8411 123.752C14.8414 123.752 14.8417 123.752 14.1855 124.507Z" fill="white" mask="url(#path-10-outside-1)"/>
<path d="M14.1855 115.276C14.1855 115.276 15.1014 111.835 18.7003 112.006C21.902 112.153 22.6721 114.95 22.6721 114.95C22.6721 114.95 25.6955 115.788 25.9954 118.871C26.0116 119.562 25.9792 119.968 25.9792 120.212C25.3956 123.344 22.899 123.523 22.899 123.523C22.899 123.523 22.356 123.588 21.9507 123.58C21.1969 123.555 20.3539 122.986 20.3539 122.986L20.3296 116.992L19.4542 117.585L19.4136 122.587L18.7895 122.441V117.854L17.9384 118.423L17.8979 122.27L17.3143 122.254L17.29 118.635L16.374 119.139C16.374 119.139 16.3902 122.107 16.374 122.311C15.4176 122.417 14.5503 122.652 13.2371 123.71C11.3485 122.425 11 120.09 11 120.09C11 120.09 11 119.659 11.0162 119.09C11.4215 116.187 13.529 115.609 13.8937 115.609C14.2017 115.568 14.6232 115.544 14.6232 115.544C14.6232 115.544 15.8796 115.731 16.2281 116.479C16.2849 116.504 16.3335 116.463 16.3335 116.463C16.3335 116.463 16.9009 115.39 18.2788 115.178C18.3356 115.154 18.3194 115.015 18.3194 115.015C18.3194 115.015 17.1846 114.893 16.374 115.65C16.2524 115.65 16.3335 115.65 16.2524 115.65C15.5635 115.146 14.1855 115.276 14.1855 115.276Z" fill="#2E3990"/>
</svg>
