<svg width="48" height="52" viewBox="0 0 48 52" fill="none" xmlns="http://www.w3.org/2000/svg">
<g filter="url(#filter0_d)">
<g filter="url(#filter1_d)">
<rect x="4" y="4" width="40" height="40" rx="20" fill="white"/>
</g>
<path d="M24 19.6364C21.5891 19.6364 19.6364 21.5891 19.6364 24C19.6364 26.4109 21.5891 28.3636 24 28.3636C26.4109 28.3636 28.3636 26.4109 28.3636 24C28.3636 21.5891 26.4109 19.6364 24 19.6364ZM33.7527 22.9091C33.5056 20.6969 32.5136 18.6344 30.9396 17.0604C29.3656 15.4864 27.3031 14.4944 25.0909 14.2473V13.0909C25.0909 12.4909 24.6 12 24 12C23.4 12 22.9091 12.4909 22.9091 13.0909V14.2473C20.6969 14.4944 18.6344 15.4864 17.0604 17.0604C15.4864 18.6344 14.4944 20.6969 14.2473 22.9091H13.0909C12.4909 22.9091 12 23.4 12 24C12 24.6 12.4909 25.0909 13.0909 25.0909H14.2473C14.4944 27.3031 15.4864 29.3656 17.0604 30.9396C18.6344 32.5136 20.6969 33.5056 22.9091 33.7527V34.9091C22.9091 35.5091 23.4 36 24 36C24.6 36 25.0909 35.5091 25.0909 34.9091V33.7527C27.3031 33.5056 29.3656 32.5136 30.9396 30.9396C32.5136 29.3656 33.5056 27.3031 33.7527 25.0909H34.9091C35.5091 25.0909 36 24.6 36 24C36 23.4 35.5091 22.9091 34.9091 22.9091H33.7527ZM24 31.6364C19.7782 31.6364 16.3636 28.2218 16.3636 24C16.3636 19.7782 19.7782 16.3636 24 16.3636C28.2218 16.3636 31.6364 19.7782 31.6364 24C31.6364 28.2218 28.2218 31.6364 24 31.6364Z" fill="#666666"/>
</g>
<defs>
<filter id="filter0_d" x="0" y="0" width="48" height="48" filterUnits="userSpaceOnUse" color-interpolation-filters="sRGB">
<feFlood flood-opacity="0" result="BackgroundImageFix"/>
<feColorMatrix in="SourceAlpha" type="matrix" values="0 0 0 0 0 0 0 0 0 0 0 0 0 0 0 0 0 0 127 0"/>
<feOffset/>
<feGaussianBlur stdDeviation="2"/>
<feColorMatrix type="matrix" values="0 0 0 0 0 0 0 0 0 0 0 0 0 0 0 0 0 0 0.25 0"/>
<feBlend mode="normal" in2="BackgroundImageFix" result="effect1_dropShadow"/>
<feBlend mode="normal" in="SourceGraphic" in2="effect1_dropShadow" result="shape"/>
</filter>
<filter id="filter1_d" x="0" y="4" width="48" height="48" filterUnits="userSpaceOnUse" color-interpolation-filters="sRGB">
<feFlood flood-opacity="0" result="BackgroundImageFix"/>
<feColorMatrix in="SourceAlpha" type="matrix" values="0 0 0 0 0 0 0 0 0 0 0 0 0 0 0 0 0 0 127 0"/>
<feOffset dy="4"/>
<feGaussianBlur stdDeviation="2"/>
<feColorMatrix type="matrix" values="0 0 0 0 0 0 0 0 0 0 0 0 0 0 0 0 0 0 0.25 0"/>
<feBlend mode="normal" in2="BackgroundImageFix" result="effect1_dropShadow"/>
<feBlend mode="normal" in="SourceGraphic" in2="effect1_dropShadow" result="shape"/>
</filter>
</defs>
</svg>
