<svg width="106" height="35" viewBox="0 0 106 35" fill="none" xmlns="http://www.w3.org/2000/svg">
<g filter="url(#filter0_d)">
<path d="M10.488 9.32444L10.4822 9.22461L10.4822 9.22461L10.482 9.22462L10.4815 9.22464L10.4796 9.22476L10.4721 9.2252L10.4432 9.22696L10.3354 9.23385C10.2435 9.23991 10.1143 9.24886 9.96514 9.26046C9.6692 9.28346 9.29319 9.31695 8.97358 9.35893C8.76534 9.36064 8.34219 9.44025 7.8146 9.64597C7.27853 9.85498 6.62799 10.1967 5.9752 10.7281C4.66778 11.7926 3.35674 13.6139 2.93446 16.6391L2.93386 16.6391L2.93354 16.6501C2.91677 17.2391 2.90839 17.7566 2.90419 18.1268C2.9021 18.3119 2.90105 18.4602 2.90052 18.5623L2.90007 18.6796L2.90001 18.71L2.9 18.7178L2.9 18.7197L2.9 18.7202L2.9 18.7204V18.7204V18.7278L2.9011 18.7352L3 18.7204C2.9011 18.7352 2.9011 18.7352 2.90112 18.7353L2.90115 18.7355L2.90127 18.7363L2.90172 18.7392L2.90346 18.7502L2.91051 18.7923C2.91687 18.8291 2.92667 18.883 2.9405 18.9524C2.96816 19.0912 3.01197 19.2919 3.07676 19.5409C3.20631 20.0386 3.4199 20.7296 3.75633 21.5042C4.42882 23.0526 5.59474 24.9408 7.56721 26.2829L7.62847 26.3246L7.68618 26.2781C9.0375 25.19 10.1558 24.5276 11.1791 24.1098C12.202 23.6922 13.1344 23.5172 14.1174 23.4085L14.1995 23.3995L14.2061 23.3171C14.2232 23.1016 14.2231 21.4558 14.2189 19.8736C14.2168 19.0804 14.2137 18.3003 14.2111 17.7185L14.2077 17.0177L14.2067 16.8223L14.2067 16.8127L15.9004 15.8803L15.9496 23.1922L15.9502 23.2888L16.0468 23.2914L17.2529 23.3251L17.3546 23.3279L17.3557 23.2262L17.4389 15.3285L18.9984 14.2853V23.5781V23.6573L19.0755 23.6754L20.3654 23.978L20.4872 24.0066L20.4882 23.8815L20.5716 13.5967L22.182 12.5045L22.2314 24.7047L22.2317 24.7575L22.2755 24.7871L22.3314 24.7043L22.2755 24.7872L22.2756 24.7872L22.2759 24.7874L22.277 24.7882L22.281 24.7909L22.2965 24.8011C22.31 24.8099 22.3299 24.8229 22.3556 24.8393C22.4071 24.8721 22.4822 24.9188 22.5771 24.9749C22.7667 25.0872 23.0358 25.2373 23.3542 25.3891C23.9887 25.6916 24.8286 26.0053 25.6283 26.0312L25.6295 26.0313C26.0534 26.0398 26.5474 26.01 26.9337 25.9784C27.1273 25.9626 27.2945 25.9462 27.4134 25.9338C27.4728 25.9276 27.5202 25.9224 27.5528 25.9187L27.5902 25.9145L27.6 25.9133L27.6013 25.9132L27.6033 25.913L27.6154 25.9119C27.6259 25.911 27.6412 25.9095 27.6609 25.9073C27.7004 25.9028 27.7579 25.8955 27.8312 25.8839C27.9777 25.8606 28.1875 25.8202 28.4426 25.7513C28.9526 25.6135 29.6447 25.3615 30.375 24.9046C31.8385 23.9889 33.447 22.255 34.0554 18.9909L34.0571 18.9818V18.9725C34.0571 18.8196 34.0636 18.631 34.0715 18.4006C34.0891 17.8914 34.1136 17.1785 34.0906 16.1968L34.0909 16.1968L34.0901 16.1895C33.7768 12.9689 32.0394 10.9203 30.3841 9.67935C29.5568 9.05917 28.7494 8.64006 28.1487 8.37592C27.8482 8.24381 27.5992 8.15034 27.4249 8.08979C27.3378 8.05951 27.2693 8.03745 27.2224 8.0229C27.2154 8.02073 27.2089 8.01873 27.2028 8.01689C27.2014 8.01238 27.2 8.0076 27.1984 8.00255C27.1847 7.95897 27.164 7.89549 27.1353 7.81486C27.078 7.65364 26.9889 7.42375 26.8612 7.14729C26.6058 6.59456 26.1958 5.85458 25.5767 5.10485C24.337 3.6036 22.26 2.06563 18.9188 1.91283C15.1616 1.73455 12.8004 3.44337 11.3819 5.19596C10.6735 6.07113 10.2003 6.95691 9.90401 7.62373C9.75583 7.95727 9.65178 8.23641 9.58466 8.43256C9.5511 8.53065 9.52676 8.60803 9.51075 8.66112C9.50274 8.68766 9.49681 8.70814 9.49286 8.72211L9.48838 8.73812L9.48723 8.74236L9.48692 8.74352L9.48682 8.74385C9.4868 8.74396 9.48678 8.74403 9.58341 8.76976L9.48678 8.74403L9.44983 8.88282L9.59281 8.86931L9.59281 8.86931L9.59286 8.86931L9.59317 8.86928L9.59456 8.86915L9.60037 8.86863L9.6238 8.86666C9.64454 8.86499 9.67533 8.86264 9.71514 8.86002C9.79476 8.85477 9.91039 8.8484 10.0537 8.84397C10.3405 8.83512 10.7375 8.83409 11.1782 8.8653C12.0651 8.92812 13.1083 9.12031 13.796 9.62365L13.8224 9.64295H13.8551H13.8561H13.857H13.858H13.859H13.8599H13.8608H13.8618H13.8627H13.8636H13.8645H13.8654H13.8663H13.8672H13.8681H13.869H13.8698H13.8707H13.8716H13.8724H13.8732H13.8741H13.8749H13.8757H13.8765H13.8773H13.8781H13.8789H13.8797H13.8805H13.8812H13.882H13.8828H13.8835H13.8843H13.885H13.8857H13.8864H13.8872H13.8879H13.8886H13.8893H13.89H13.8907H13.8913H13.892H13.8927H13.8933H13.894H13.8946H13.8953H13.8959H13.8966H13.8972H13.8978H13.8984H13.899H13.8996H13.9002H13.9008H13.9014H13.902H13.9025H13.9031H13.9037H13.9042H13.9048H13.9053H13.9059H13.9064H13.9069H13.9075H13.908H13.9085H13.909H13.9095H13.91H13.9105H13.911H13.9115H13.912H13.9124H13.9129H13.9134H13.9138H13.9143H13.9147H13.9152H13.9156H13.916H13.9165H13.9169H13.9173H13.9177H13.9181H13.9186H13.919H13.9194H13.9197H13.9201H13.9205H13.9209H13.9213H13.9217H13.922H13.9224H13.9227H13.9231H13.9235H13.9238H13.9241H13.9245H13.9248H13.9252H13.9255H13.9258H13.9261H13.9264H13.9268H13.9271H13.9274H13.9277H13.928H13.9283H13.9286H13.9288H13.9291H13.9294H13.9297H13.93H13.9302H13.9305H13.9308H13.931H13.9313H13.9315H13.9318H13.932H13.9323H13.9325H13.9328H13.933H13.9332H13.9335H13.9337H13.9339H13.9341H13.9344H13.9346H13.9348H13.935H13.9352H13.9354H13.9356H13.9358H13.936H13.9362H13.9364H13.9366H13.9368H13.937H13.9372H13.9374H13.9375H13.9377H13.9379H13.9381H13.9382H13.9384H13.9386H13.9387H13.9389H13.9391H13.9392H13.9394H13.9395H13.9397H13.9399H13.94H13.9402H13.9403H13.9404H13.9406H13.9407H13.9409H13.941H13.9412H13.9413H13.9414H13.9416H13.9417H13.9418H13.942H13.9421H13.9422H13.9423H13.9425H13.9426H13.9427H13.9428H13.943H13.9431H13.9432H13.9433H13.9434H13.9436H13.9437H13.9438H13.9439H13.944H13.9441H13.9443H13.9444H13.9445H13.9446H13.9447H13.9448H13.9449H13.945H13.9452H13.9453H13.9454H13.9455H13.9456H13.9457H13.9458H13.9459H13.946H13.9461H13.9462H13.9464H13.9465H13.9466H13.9467H13.9468H13.9469H13.947H13.9471H13.9472H13.9473H13.9475H13.9476H13.9477H13.9478H13.9479H13.948H13.9481H13.9483H13.9484H13.9485H13.9486H13.9487H13.9488H13.949H13.9491H13.9492H13.9493H13.9494H13.9496H13.9497H13.9498H13.9499H13.9501H13.9502H13.9503H13.9505H13.9506H13.9507H13.9509H13.951H13.9511H13.9513H13.9514H13.9516H13.9517H13.9519H13.952H13.9522H13.9523H13.9525H13.9526H13.9528H13.9529H13.9531H13.9533H13.9534H13.9536H13.9538H13.9539H13.9541H13.9543H13.9544H13.9546H13.9548H13.955H13.9552H13.9554H13.9555H13.9557H13.9559H13.9561H13.9563H13.9565H13.9567H13.9569H13.9571H13.9574H13.9576H13.9578H13.958H13.9582H13.9585H13.9587H13.9589H13.9591H13.9594H13.9596H13.9599H13.9601H13.9604H13.9606H13.9609H13.9611H13.9614H13.9616H13.9619H13.9622H13.9625H13.9627H13.963H13.9633H13.9636H13.9639H13.9642H13.9645H13.9648H13.9651H13.9654H13.9657H13.966H13.9663H13.9667H13.967H13.9673H13.9677H13.968H13.9683H13.9687H13.969H13.9694H13.9698H13.9701H13.9705H13.9709H13.9712H13.9716H13.972H13.9724H13.9728H13.9732H13.9736H13.974H13.9744H13.9748H13.9752H13.9757H13.9761H13.9765H13.977H13.9774H13.9779H13.9783H13.9788H13.9792H13.9797H13.9802H13.9807H13.9811H13.9816H13.9821H13.9826H13.9831H13.9836H13.9841H13.9847H13.9852H13.9857H13.9862H13.9868H13.9873H13.9879H13.9884H13.989H13.9896H13.9901H13.9907H13.9913H13.9919H13.9925H13.9931H13.9937H13.9943H13.9949H13.9956H13.9962H13.9968H13.9975H13.9981H13.9988H13.9994H14.0001H14.0008H14.0014H14.0021H14.0028H14.0035H14.0042H14.0049H14.0057H14.0064H14.0071H14.0078H14.0086H14.0093H14.0101H14.0109H14.0116H14.0124H14.0132H14.014H14.0148H14.0156H14.0164H14.0172H14.018H14.0189H14.0197H14.0205H14.0214H14.0222H14.0231H14.024H14.0249H14.0258H14.0266H14.0275H14.0285H14.0294H14.0303H14.0312H14.0322H14.0331H14.0341H14.035H14.036H14.037H14.038H14.039H14.04H14.041H14.042H14.043H14.044H14.0451H14.0461H14.0472H14.0482H14.0493H14.0504H14.0515H14.0526H14.0537H14.0548H14.0559H14.057H14.0582H14.0593H14.0605H14.0616H14.0628H14.064H14.0652H14.0664H14.0676H14.0688H14.07H14.0712H14.0725H14.0737H14.075H14.0762H14.0775H14.0788H14.0801H14.0814H14.0827H14.084H14.0853H14.0867H14.088H14.0894H14.0907H14.0921H14.0935H14.0949H14.0963H14.0977H14.0991H14.1006H14.102H14.1034H14.1049H14.1064H14.1458L14.1746 9.61606C14.993 8.85233 15.9773 8.53027 16.7612 8.39986C17.1527 8.33473 17.4927 8.31769 17.7345 8.31691C17.8553 8.31652 17.9515 8.3202 18.017 8.32394C18.0219 8.32422 18.0266 8.3245 18.0312 8.32478C18.0311 8.34013 18.0305 8.35651 18.0292 8.373C18.0264 8.40724 18.0208 8.4367 18.0125 8.45759C18.0096 8.46496 18.007 8.46974 18.0051 8.47274C16.569 8.69853 15.5533 9.37031 14.8965 9.9869C14.5664 10.2967 14.3266 10.5928 14.1691 10.8119C14.0903 10.9215 14.0321 11.012 13.9932 11.0754C13.9738 11.1072 13.9593 11.1322 13.9495 11.1494L13.9466 11.1547C13.9403 11.1583 13.9322 11.1623 13.923 11.1657C13.9081 11.1712 13.8921 11.1745 13.8754 11.1733C13.4884 10.3883 12.6446 9.90498 11.9128 9.61794C11.5377 9.47081 11.1859 9.37288 10.928 9.31171C10.799 9.2811 10.6932 9.25963 10.6194 9.24579C10.5825 9.23886 10.5536 9.23384 10.5338 9.23053L10.5111 9.22682L10.505 9.22588L10.5034 9.22563L10.503 9.22556L10.5028 9.22554L10.488 9.32444ZM10.488 9.32444L10.4822 9.22461L10.4925 9.22401L10.5027 9.22553L10.488 9.32444Z" fill="#2E3990" stroke="white" stroke-width="0.2"/>
<path d="M8.49408 27.4614L8.40424 27.4175L8.26873 27.6947L8.54107 27.5496L8.54108 27.5496L8.54112 27.5496L8.54143 27.5494L8.54286 27.5487L8.54897 27.5455L8.57401 27.5326C8.59633 27.5213 8.62982 27.5045 8.67396 27.4832C8.76225 27.4406 8.89312 27.3797 9.06243 27.3072C9.40109 27.1622 9.89332 26.9707 10.5059 26.786C11.7316 26.4165 13.4366 26.0745 15.3566 26.1829C17.1839 26.2861 18.3497 26.9918 19.5321 27.7076C19.5837 27.7388 19.6353 27.77 19.687 27.8012C20.9262 28.5494 22.2109 29.2761 24.2917 29.259C26.372 29.242 27.9342 28.4025 28.9748 27.5688C29.495 27.1521 29.8855 26.7364 30.1462 26.4245C30.2766 26.2686 30.3746 26.1384 30.4402 26.0469C30.4731 26.0012 30.4978 25.9651 30.5145 25.9402C30.5228 25.9278 30.5291 25.9182 30.5334 25.9116L30.5383 25.9039L30.5396 25.9019L30.54 25.9013L30.5401 25.9011C30.5402 25.901 30.5402 25.901 30.4555 25.8477L30.5402 25.901L30.3906 25.7725L30.3902 25.772L30.3902 25.7721L30.39 25.7722L30.388 25.7739L30.3787 25.7815C30.3701 25.7884 30.3567 25.7989 30.3383 25.8125C30.3014 25.8398 30.2447 25.8797 30.1669 25.9285C30.0113 26.0259 29.7712 26.1589 29.4372 26.2975C28.7695 26.5745 27.7254 26.8746 26.2288 26.9581C24.3494 27.0515 23.1507 26.362 21.8165 25.5944C21.7357 25.5479 21.6544 25.5011 21.5724 25.4542C20.1338 24.6312 18.5032 23.781 15.7302 23.798C12.9514 23.8149 11.1207 24.7139 9.98364 25.6139C9.41575 26.0633 9.02196 26.5121 8.76971 26.8494C8.64357 27.0181 8.55277 27.1589 8.49323 27.2582C8.46346 27.3078 8.4415 27.347 8.42684 27.3742C8.41951 27.3877 8.414 27.3982 8.41026 27.4055L8.40595 27.414L8.40477 27.4164L8.40443 27.4171L8.40431 27.4173C8.40427 27.4174 8.40424 27.4175 8.49408 27.4614Z" fill="#12A64E" stroke="white" stroke-width="0.2"/>
<path d="M9.58337 27.8475L9.50809 27.7817L9.4421 27.8571L9.51775 27.9229L9.58337 27.8475ZM9.58337 27.8475C9.51775 27.9229 9.5178 27.923 9.51786 27.923L9.51805 27.9232L9.51869 27.9237L9.52101 27.9257L9.52977 27.9332C9.53744 27.9397 9.54876 27.9492 9.5637 27.9615C9.59358 27.9861 9.63792 28.0219 9.69646 28.0673C9.81352 28.1582 9.98733 28.2874 10.2156 28.4424C10.6721 28.7522 11.3467 29.1646 12.221 29.5768C13.9696 30.4012 16.5178 31.2251 19.7181 31.2251C21.6113 31.2251 23.1558 30.9803 24.2278 30.7352C24.7638 30.6126 25.1818 30.4899 25.4663 30.3977C25.6085 30.3516 25.7174 30.3131 25.791 30.286C25.8278 30.2724 25.8557 30.2617 25.8747 30.2544L25.8962 30.2459L25.9018 30.2436L25.9033 30.243L25.9037 30.2429L25.9039 30.2428L25.866 30.1502L25.9039 30.2428L25.8605 30.0504L25.8604 30.0504L25.8604 30.0504L25.8601 30.0504L25.8589 30.0505L25.8537 30.0508L25.8329 30.0518C25.8143 30.0527 25.7862 30.054 25.7488 30.0556C25.6738 30.0587 25.5612 30.0629 25.4109 30.0671C25.1105 30.0755 24.6596 30.0839 24.0582 30.0839C21.9193 30.0269 20.4627 29.2409 18.9844 28.4432C18.9475 28.4233 18.9105 28.4034 18.8736 28.3835C17.3557 27.5652 15.7995 26.7556 13.4691 26.7726M9.58337 27.8475C9.50809 27.7817 9.50815 27.7816 9.50821 27.7815L9.50836 27.7813L9.50871 27.781L9.50964 27.7799L9.51247 27.7768L9.52209 27.7667C9.53031 27.7583 9.54219 27.7467 9.55806 27.7323C9.5898 27.7034 9.63748 27.6635 9.70377 27.6161C9.83641 27.5214 10.0432 27.3974 10.3454 27.2738C10.9498 27.0265 11.9344 26.781 13.4691 26.7726M13.4691 26.7726C13.4691 26.7726 13.4691 26.7726 13.469 26.7726L13.4698 26.8726L13.4692 26.7726C13.4692 26.7726 13.4692 26.7726 13.4691 26.7726ZM9.65835 27.9136L9.65855 27.9134L9.65847 27.9135L9.65835 27.9136Z" fill="#12A64E" stroke="white" stroke-width="0.2"/>
<path d="M44.036 11.833H42.584V14.77H49.602V13.615H44.036V11.833ZM43.882 7.158C43.882 6.542 44.696 6.212 46.049 6.212C47.413 6.212 48.227 6.542 48.227 7.158C48.227 7.785 47.413 8.093 46.049 8.093C44.696 8.093 43.882 7.785 43.882 7.158ZM46.764 10.029V9.215C48.568 9.061 49.723 8.291 49.723 7.158C49.723 5.871 48.26 5.068 46.049 5.068C43.849 5.068 42.386 5.871 42.386 7.158C42.386 8.291 43.53 9.05 45.312 9.215V10.029H41.473V11.184H50.625V10.029H46.764ZM53.6161 9.589H56.9051V5.673H52.1201V6.828H55.4201V8.445H52.1311V12.614H53.0441C54.8811 12.614 56.3661 12.548 58.0161 12.262L57.8621 11.085C56.4321 11.327 55.1561 11.404 53.6161 11.415V9.589ZM58.5661 4.804V14.968H60.0181V4.804H58.5661ZM66.8813 10.7V11.69H68.7843V12.493H70.2363V4.815H68.7843V10.7H66.8813ZM64.9343 6.212C65.6053 6.212 66.0783 6.476 66.0783 6.971C66.0783 7.466 65.6053 7.719 64.9343 7.719C64.2523 7.719 63.7793 7.466 63.7793 6.971C63.7793 6.476 64.2523 6.212 64.9343 6.212ZM64.9343 8.775C66.4083 8.775 67.4533 8.049 67.4533 6.971C67.4533 5.893 66.4083 5.156 64.9343 5.156C63.4493 5.156 62.4153 5.893 62.4153 6.971C62.4153 8.049 63.4493 8.775 64.9343 8.775ZM64.3953 13.615V12.229H65.7923V10.315C66.6063 10.249 67.4203 10.161 68.2123 10.029L68.1133 8.995C65.9793 9.27 63.5153 9.292 61.6673 9.303L61.8543 10.458C62.6133 10.458 63.4603 10.447 64.3513 10.403V11.756H62.9433V14.77H70.4563V13.615H64.3953ZM82.2096 11.503C82.6166 9.347 82.6166 7.917 82.6166 6.652V5.684H75.2576V6.839H81.1646C81.1646 8.016 81.1426 9.424 80.7576 11.338L82.2096 11.503ZM79.0196 12.559V9.072H77.5676V12.559H74.3336V13.725H83.4966V12.559H79.0196ZM86.9608 11.503H85.5088V14.77H92.6918V13.615H86.9608V11.503ZM92.3398 9.083C92.5488 7.917 92.5488 6.993 92.5488 6.168V5.277H85.5748V6.443H91.1188C91.1188 7.213 91.0968 8.027 90.8878 9.083H84.4418V10.249H88.3798V12.394H89.8318V10.249H93.6158V9.083H92.3398ZM100.622 9.622C98.9829 9.094 98.3009 7.818 98.3009 6.531V5.431H96.8269V6.52C96.8269 7.906 96.1119 9.259 94.4069 9.809L95.1769 10.942C96.3319 10.557 97.1349 9.765 97.5859 8.753C98.0259 9.666 98.7739 10.392 99.8739 10.755L100.622 9.622ZM97.4649 11.525H96.0129V14.77H102.888V13.615H97.4649V11.525ZM102.536 7.752V4.815H101.084V12.229H102.536V8.951H103.878V7.752H102.536ZM44.905 20.707H47.094V19.959H41.759V20.707H44.014V21.961C44.014 23.633 42.826 25.503 41.418 26.207L41.946 26.922C43.057 26.35 44.014 25.096 44.465 23.655C44.916 24.975 45.84 26.13 46.94 26.68L47.457 25.954C46.027 25.283 44.905 23.534 44.905 21.961V20.707ZM50.801 22.929H49.173V18.958H48.271V28.814H49.173V23.688H50.801V22.929ZM56.1571 19.739C57.7741 19.739 58.6981 20.113 58.6981 20.773C58.6981 21.433 57.7741 21.807 56.1571 21.807C54.5511 21.807 53.6161 21.433 53.6161 20.773C53.6161 20.113 54.5511 19.739 56.1571 19.739ZM56.1571 22.478C58.3351 22.478 59.6221 21.884 59.6221 20.773C59.6221 19.662 58.3351 19.057 56.1571 19.057C53.9901 19.057 52.6921 19.662 52.6921 20.773C52.6921 21.884 53.9901 22.478 56.1571 22.478ZM57.2571 24.777H55.0131V23.798H57.2571V24.777ZM60.6121 23.798V23.072H51.7021V23.798H54.1221V24.777H52.7801V25.459H58.5881V26.339H52.8021V28.704H59.7761V28H53.6821V26.999H59.4791V24.777H58.1481V23.798H60.6121ZM62.7013 23.743C64.2303 23.479 65.6823 22.654 66.2873 21.488C66.8813 22.654 68.3443 23.479 69.8733 23.743L70.2253 23.028C68.4873 22.775 66.7823 21.642 66.7823 20.344V20.289H69.8733V19.563H62.6683V20.289H65.7813V20.344C65.7813 21.642 64.0763 22.775 62.3603 23.028L62.7013 23.743ZM70.7423 24.568H61.8323V25.305H65.8143V28.814H66.7163V25.305H70.7533L70.7423 24.568ZM78.1444 22.368H79.3984V25.195H80.2674V18.947H79.3984V21.631H78.1444V19.134H77.2864V24.832H78.1444V22.368ZM76.8904 20.124H74.8444V19.024H73.9534V20.124H71.8854V20.839H76.9014L76.8904 20.124ZM73.1064 23.039C73.1064 22.434 73.6234 22.027 74.4044 22.027C75.1744 22.027 75.7024 22.434 75.7024 23.039C75.7024 23.655 75.1744 24.062 74.4044 24.062C73.6234 24.062 73.1064 23.655 73.1064 23.039ZM76.5054 23.039C76.5054 22.027 75.6474 21.356 74.4044 21.356C73.1614 21.356 72.2924 22.027 72.2924 23.039C72.2924 24.073 73.1614 24.733 74.4044 24.733C75.6474 24.733 76.5054 24.073 76.5054 23.039ZM77.0224 28.11C75.5154 28.11 74.6134 27.736 74.6134 27.087C74.6134 26.427 75.5154 26.053 77.0224 26.053C78.5184 26.053 79.4204 26.427 79.4204 27.087C79.4204 27.736 78.5184 28.11 77.0224 28.11ZM77.0224 25.36C74.9654 25.36 73.7224 25.976 73.7224 27.087C73.7224 28.187 74.9654 28.803 77.0224 28.803C79.0794 28.803 80.3224 28.187 80.3224 27.087C80.3224 25.976 79.0794 25.36 77.0224 25.36ZM87.9735 19.805H87.0715V21.565C87.0715 23.402 85.9495 25.294 84.5195 26.02L85.0695 26.735C86.1805 26.13 87.0935 24.898 87.5225 23.435C87.9625 24.832 88.8755 26.02 89.9865 26.592L90.5255 25.866C89.0955 25.184 87.9735 23.38 87.9735 21.565V19.805ZM91.7355 18.947V21.092H89.6015V21.84H91.7355V23.556H89.6015V24.304H91.7355V28.836H92.6485V18.947H91.7355ZM102.515 22.115H96.7067V21.268H102.196V20.63H96.7067V19.86H102.46V19.2H95.8047V22.764H102.515V22.115ZM96.6187 27.098H102.416V24.953H95.7057V25.613H101.525V26.46H95.7387V28.704H102.713V28.033H96.6187V27.098ZM94.6497 23.512V24.194H103.549V23.512H94.6497Z" fill="#4B5075"/>
</g>
<defs>
<filter id="filter0_d" x="0.799988" y="0.800049" width="105.078" height="33.5251" filterUnits="userSpaceOnUse" color-interpolation-filters="sRGB">
<feFlood flood-opacity="0" result="BackgroundImageFix"/>
<feColorMatrix in="SourceAlpha" type="matrix" values="0 0 0 0 0 0 0 0 0 0 0 0 0 0 0 0 0 0 127 0"/>
<feOffset dy="1"/>
<feGaussianBlur stdDeviation="1"/>
<feColorMatrix type="matrix" values="0 0 0 0 1 0 0 0 0 1 0 0 0 0 1 0 0 0 0.35 0"/>
<feBlend mode="normal" in2="BackgroundImageFix" result="effect1_dropShadow"/>
<feBlend mode="normal" in="SourceGraphic" in2="effect1_dropShadow" result="shape"/>
</filter>
</defs>
</svg>
