<svg width="49" height="32" viewBox="0 0 49 32" fill="none" xmlns="http://www.w3.org/2000/svg">
<path d="M18.8091 28.1949V4.51904" stroke="#CFCECE" stroke-width="0.1" stroke-linejoin="round"/>
<path d="M49 21.8313V22.4816H48.5337H42.5708V21.8313H48.5092H49Z" fill="#CDCCCC"/>
<path d="M42.5709 22.4818H48.5338C48.5338 25.6227 45.9654 28.1952 42.8203 28.1952H42.5709C42.5709 26.2976 41.029 24.7598 39.1354 24.7598C37.2378 24.7598 35.7 26.2976 35.7 28.1952H32.6531V16.8992H45.7895H46.6852H48.3498L48.5134 21.8315H42.575V22.4818H42.5709ZM40.2765 19.8152V19.2181H37.9862V19.8152H40.2765Z" fill="#FDFDFD"/>
<path d="M48.0022 6.76026L48.3457 16.903H46.6812V4.51904H47.5441C47.8386 5.20613 48.0022 5.96684 48.0022 6.76026Z" fill="#A7DAEC"/>
<path d="M47.5441 4.51912H46.6812H45.7855H32.649H24.5308H24.4694H16.3511H1.45605C2.33127 2.47831 4.35982 1.04688 6.70737 1.04688H9.05492H11.3452H37.9862H40.2765H42.2887C44.6363 1.04687 46.6689 2.4824 47.5441 4.51912Z" fill="#E61873"/>
<path d="M46.6811 4.51904H45.7854V16.8989H46.6811V4.51904Z" fill="#CDCCCC"/>
<path d="M45.7854 4.51904H32.6489V16.8989H45.7854V4.51904Z" fill="#A7DAEC"/>
<path d="M39.1312 24.7598C41.0289 24.7598 42.5667 26.2975 42.5667 28.1952C42.5667 30.0929 41.0248 31.6306 39.1312 31.6306C37.2336 31.6306 35.6958 30.0888 35.6958 28.1952C35.6958 26.2975 37.2336 24.7598 39.1312 24.7598ZM41.3111 28.1952C41.3111 26.9928 40.3377 26.0153 39.1312 26.0153C37.9247 26.0153 36.9514 26.9928 36.9514 28.1952C36.9514 29.3976 37.9288 30.3751 39.1312 30.3751C40.3336 30.3751 41.3111 29.3976 41.3111 28.1952Z" fill="#B5B5B5"/>
<path d="M39.1313 26.0151C40.3337 26.0151 41.3112 26.9926 41.3112 28.195C41.3112 29.3974 40.3378 30.3749 39.1313 30.3749C37.9248 30.3749 36.9514 29.4015 36.9514 28.195C36.9514 26.9926 37.9289 26.0151 39.1313 26.0151Z" fill="#424242"/>
<path d="M40.2764 19.2139H37.9861V19.811H40.2764V19.2139Z" fill="#CDCCCC"/>
<path d="M40.2764 0H37.9861V1.04699H40.2764V0Z" fill="#424242"/>
<path d="M32.649 16.8992H24.5308V28.1952H32.649V16.8992Z" fill="#FAFAFA"/>
<path d="M32.649 4.51904V16.8989H24.5308V4.51904H32.649ZM31.8024 16.359V5.24703H25.3733V16.359H31.8024Z" fill="#FAFAFA"/>
<path d="M31.8022 5.24707H25.373V16.3591H31.8022V5.24707Z" fill="#A7DAEC"/>
<path d="M24.4693 16.8992H16.3511V28.1952H24.4693V16.8992Z" fill="#FAFAFA"/>
<path d="M24.4693 4.51904V16.8989H16.3511V4.51904H24.4693ZM23.6268 16.359V5.24703H17.1936V16.359H23.6268Z" fill="#FAFAFA"/>
<path d="M23.6228 5.24707H17.1936V16.3591H23.6228V5.24707Z" fill="#A7DAEC"/>
<path d="M16.3511 16.8992V28.1952H13.5946C13.5946 26.2976 12.0527 24.7598 10.1592 24.7598C8.26149 24.7598 6.71963 26.2976 6.71963 28.1952H6.17977C3.0388 28.1952 0.466309 25.6268 0.466309 22.4818H6.43334V21.8315H0.486758L0.65035 16.8992H16.3511ZM11.3002 19.8152V19.2181H9.00992V19.8152H11.3002Z" fill="#FDFDFD"/>
<path d="M16.3512 4.51904V16.8989H0.654541L0.998085 6.75617C0.998085 5.96275 1.16168 5.20613 1.45614 4.51904H16.3512Z" fill="#A7DAEC"/>
<path d="M10.1551 24.7598C12.0528 24.7598 13.5905 26.2975 13.5905 28.1952C13.5905 30.0929 12.0487 31.6306 10.1551 31.6306C8.25743 31.6306 6.71558 30.0888 6.71558 28.1952C6.71558 26.2975 8.25743 24.7598 10.1551 24.7598ZM12.335 28.1952C12.335 26.9928 11.3616 26.0153 10.1551 26.0153C8.94861 26.0153 7.97524 26.9928 7.97524 28.1952C7.97524 29.3976 8.94861 30.3751 10.1551 30.3751C11.3616 30.3751 12.335 29.3976 12.335 28.1952Z" fill="#B5B5B5"/>
<path d="M10.155 26.0151C11.3574 26.0151 12.3348 26.9926 12.3348 28.195C12.3348 29.3974 11.3615 30.3749 10.155 30.3749C8.94847 30.3749 7.9751 29.4015 7.9751 28.195C7.9751 26.9926 8.94847 26.0151 10.155 26.0151Z" fill="#424242"/>
<path d="M11.3452 0H9.05493V1.04699H11.3452V0Z" fill="#424242"/>
<path d="M11.3003 19.2139H9.01001V19.811H11.3003V19.2139Z" fill="#CDCCCC"/>
<path d="M6.43327 21.8313V22.4816H0.466238H0V21.8313H0.486687H6.43327Z" fill="#CDCCCC"/>
<path d="M16.3512 4.51904H10.1061L0.756786 13.8683L0.654541 16.8989H4.50305L16.3512 5.05481V4.51904Z" fill="#DAEFF7"/>
<path d="M3.21452 4.51904H2.31885V16.8989H3.21452V4.51904Z" fill="#CDCCCC"/>
<path d="M32.6489 16.8991H34.6448L47.4172 4.51929H41.1271L32.6489 12.7398V16.8991Z" fill="#DAEFF7"/>
<path d="M46.6811 4.51904H45.7854V16.8989H46.6811V4.51904Z" fill="#CDCCCC"/>
<path opacity="0.6" d="M16.4083 16.8992H16.2856V28.1952H16.4083V16.8992Z" fill="#CFCECE"/>
<path opacity="0.6" d="M32.7103 16.8992H32.5876V28.1952H32.7103V16.8992Z" fill="#CFCECE"/>
<path opacity="0.6" d="M24.6002 4.51929H24.3958V28.1952H24.6002V4.51929Z" fill="#CFCECE"/>
</svg>
