<svg width="94" height="102" viewBox="0 0 94 102" fill="none" xmlns="http://www.w3.org/2000/svg">
<rect x="1" y="48" width="92" height="53" rx="5" fill="#FAFAFA" stroke="#5B5B5B" stroke-width="2"/>
<path d="M71.6748 48.1956L71.6748 52.9782" stroke="#5B5B5B" stroke-width="2"/>
<path d="M71.6748 58.9565L71.6748 66.1305" stroke="#5B5B5B" stroke-width="2"/>
<path d="M71.6748 72.1086L71.6748 79.2826" stroke="#5B5B5B" stroke-width="2"/>
<path d="M71.6748 84.0652L71.6748 91.2391" stroke="#5B5B5B" stroke-width="2"/>
<path d="M71.6748 96.0217L71.6748 100.804" stroke="#5B5B5B" stroke-width="2"/>
<path fill-rule="evenodd" clip-rule="evenodd" d="M67 19C67 24.0391 64.9982 28.8718 61.435 32.435C57.8718 35.9982 53.0391 38 48 38C42.9609 38 38.1282 35.9982 34.565 32.435C31.0018 28.8718 29 24.0391 29 19C29 13.9609 31.0018 9.12816 34.565 5.56497C38.1282 2.00178 42.9609 0 48 0C53.0391 0 57.8718 2.00178 61.435 5.56497C64.9982 9.12816 67 13.9609 67 19ZM57.5712 11.8037C57.4016 11.6347 57.1996 11.5016 56.9773 11.4124C56.7551 11.3232 56.5171 11.2797 56.2776 11.2846C56.0382 11.2895 55.8022 11.3426 55.5837 11.4408C55.3653 11.539 55.1689 11.6802 55.0063 11.856L46.7579 22.3654L41.787 17.3921C41.4493 17.0775 41.0027 16.9062 40.5413 16.9143C40.0798 16.9225 39.6395 17.1094 39.3131 17.4358C38.9868 17.7621 38.7999 18.2024 38.7917 18.6639C38.7836 19.1253 38.9549 19.572 39.2695 19.9096L45.5537 26.1962C45.723 26.3652 45.9246 26.4984 46.1465 26.5878C46.3684 26.6772 46.606 26.7209 46.8451 26.7165C47.0843 26.7121 47.3201 26.6595 47.5385 26.562C47.7569 26.4644 47.9535 26.3239 48.1164 26.1488L57.5974 14.2975C57.9206 13.9614 58.0992 13.512 58.0947 13.0458C58.0903 12.5795 57.9032 12.1336 57.5736 11.8037H57.5712Z" fill="#E61773"/>
<line x1="11" y1="65.5" x2="37" y2="65.5" stroke="#D6D4D4" stroke-width="3"/>
<line x1="11" y1="84.5" x2="27" y2="84.5" stroke="#D6D4D4" stroke-width="3"/>
<line x1="11" y1="75.5" x2="47" y2="75.5" stroke="#D6D4D4" stroke-width="3"/>
</svg>
