<svg width="105" height="64" viewBox="0 0 105 64" fill="none" xmlns="http://www.w3.org/2000/svg">
<rect x="12" y="11" width="92" height="52" rx="5" fill="#FAFAFA" stroke="#5B5B5B" stroke-width="2"/>
<path d="M82.6748 11.1738L82.6748 15.8695" stroke="#5B5B5B" stroke-width="2"/>
<path d="M82.6748 21.739L82.6748 28.7825" stroke="#5B5B5B" stroke-width="2"/>
<path d="M82.6748 34.6521L82.6748 41.6956" stroke="#5B5B5B" stroke-width="2"/>
<path d="M82.6748 46.3914L82.6748 53.4348" stroke="#5B5B5B" stroke-width="2"/>
<path d="M82.6748 58.1304L82.6748 62.826" stroke="#5B5B5B" stroke-width="2"/>
<path d="M65.3341 23.9015C65.0347 23.6032 64.6786 23.3664 64.2861 23.2048C63.8937 23.0432 63.4728 22.96 63.0477 22.96C62.6226 22.96 62.2017 23.0432 61.8093 23.2048C61.4168 23.3664 61.0607 23.6032 60.7613 23.9015L40.5381 43.8921C40.4718 43.9614 40.392 44.0167 40.3034 44.0545C40.2148 44.0922 40.1193 44.1117 40.0228 44.1117C39.9263 44.1117 39.8309 44.0922 39.7423 44.0545C39.6537 44.0167 39.5738 43.9614 39.5076 43.8921L31.779 36.2524C31.1768 35.653 30.3585 35.3145 29.504 35.3116C28.6494 35.3086 27.8287 35.6413 27.2223 36.2365C26.6159 36.8316 26.2735 37.6406 26.2705 38.4853C26.2675 39.33 26.6041 40.1413 27.2062 40.7407L34.967 48.3804C35.6309 49.0368 36.4191 49.5575 37.2866 49.9128C38.1541 50.268 39.0838 50.4509 40.0228 50.4509C40.9618 50.4509 41.8916 50.268 42.7591 49.9128C43.6266 49.5575 44.4148 49.0368 45.0786 48.3804L65.3341 28.3899C65.9339 27.7935 66.2705 26.9867 66.2705 26.1457C66.2705 25.3047 65.9339 24.498 65.3341 23.9015Z" fill="#E61773"/>
<rect x="1" y="1" width="92" height="53" rx="5" fill="#FAFAFA" stroke="#5B5B5B" stroke-width="2"/>
<path d="M71.6748 1.19556L71.6748 5.97816" stroke="#5B5B5B" stroke-width="2"/>
<path d="M71.6748 11.9565L71.6748 19.1305" stroke="#5B5B5B" stroke-width="2"/>
<path d="M71.6748 25.1086L71.6748 32.2826" stroke="#5B5B5B" stroke-width="2"/>
<path d="M71.6748 37.0652L71.6748 44.2391" stroke="#5B5B5B" stroke-width="2"/>
<path d="M71.6748 49.0217L71.6748 53.8043" stroke="#5B5B5B" stroke-width="2"/>
<path d="M54.3341 14.159C54.0347 13.8551 53.6786 13.6139 53.2861 13.4493C52.8937 13.2847 52.4728 13.2 52.0477 13.2C51.6226 13.2 51.2017 13.2847 50.8093 13.4493C50.4168 13.6139 50.0607 13.8551 49.7613 14.159L29.5381 34.5197C29.4718 34.5903 29.392 34.6466 29.3034 34.6851C29.2148 34.7236 29.1193 34.7434 29.0228 34.7434C28.9263 34.7434 28.8309 34.7236 28.7423 34.6851C28.6537 34.6466 28.5738 34.5903 28.5076 34.5197L20.779 26.7385C20.1768 26.128 19.3585 25.7833 18.504 25.7803C17.6494 25.7772 16.8287 26.1161 16.2223 26.7223C15.6159 27.3285 15.2735 28.1524 15.2705 29.0128C15.2675 29.8731 15.6041 30.6994 16.2062 31.3099L23.967 39.0911C24.6309 39.7597 25.4191 40.29 26.2866 40.6519C27.1541 41.0137 28.0838 41.2 29.0228 41.2C29.9618 41.2 30.8916 41.0137 31.7591 40.6519C32.6266 40.29 33.4148 39.7597 34.0786 39.0911L54.3341 18.7304C54.9339 18.123 55.2705 17.3012 55.2705 16.4447C55.2705 15.5882 54.9339 14.7664 54.3341 14.159Z" fill="#E61773"/>
</svg>
