<svg width="17" height="17" viewBox="0 0 17 17" fill="none" xmlns="http://www.w3.org/2000/svg">
<path d="M8.5 10.625C9.6736 10.625 10.625 9.6736 10.625 8.5C10.625 7.32639 9.6736 6.375 8.5 6.375C7.32639 6.375 6.375 7.32639 6.375 8.5C6.375 9.6736 7.32639 10.625 8.5 10.625Z" fill="#828282"/>
<path d="M16.6353 10.1261L16.6175 10.112L15.4199 9.19737C15.344 9.13894 15.2835 9.06382 15.2433 8.97818C15.203 8.89254 15.1842 8.79883 15.1884 8.70474V8.27752C15.1846 8.18403 15.2037 8.09099 15.244 8.00606C15.2843 7.92112 15.3447 7.84672 15.4203 7.78896L16.6175 6.87391L16.6353 6.85987C16.8199 6.71007 16.9439 6.50119 16.9849 6.27059C17.0259 6.03998 16.9813 5.80268 16.8592 5.60113L15.2385 2.87004C15.2366 2.86747 15.235 2.86475 15.2336 2.86191C15.1108 2.66315 14.9204 2.51255 14.6954 2.43626C14.4705 2.35997 14.2252 2.36282 14.0022 2.4443L13.9889 2.44911L12.5811 3.00087C12.4923 3.03586 12.3961 3.04978 12.3007 3.04149C12.2052 3.03321 12.1131 3.00294 12.032 2.9532C11.9076 2.87682 11.7811 2.80463 11.6526 2.73663C11.5693 2.69263 11.4977 2.63017 11.4437 2.55429C11.3898 2.47841 11.3548 2.39124 11.3418 2.2998L11.1297 0.836696L11.1251 0.810087C11.0789 0.583469 10.9541 0.379237 10.7715 0.231715C10.5889 0.0841926 10.3598 0.00237079 10.1226 0H6.87741C6.63686 0.000749673 6.40429 0.0841561 6.22068 0.235525C6.03708 0.386895 5.91421 0.596515 5.87373 0.827457L5.87032 0.848152L5.65895 2.31422C5.64599 2.40539 5.61135 2.49236 5.55779 2.56819C5.50423 2.64403 5.43323 2.70664 5.35045 2.75104C5.22157 2.81865 5.09501 2.89039 4.97099 2.96613C4.89003 3.01557 4.79819 3.04561 4.703 3.05377C4.60782 3.06192 4.512 3.04798 4.42342 3.01307L3.01447 2.45872L3.00119 2.45354C2.77786 2.37197 2.53224 2.36923 2.30705 2.4458C2.08186 2.52237 1.89136 2.67341 1.7687 2.87263L1.76376 2.88076L0.140799 5.6137C0.0184717 5.81545 -0.0261759 6.05301 0.0148407 6.28389C0.0558572 6.51477 0.179863 6.72391 0.364683 6.87391L0.382518 6.88796L1.5801 7.80263C1.65594 7.86106 1.71647 7.93618 1.75671 8.02182C1.79695 8.10746 1.81575 8.20117 1.81158 8.29526V8.72248C1.81538 8.81597 1.79634 8.90901 1.75604 8.99394C1.71573 9.07888 1.6553 9.15328 1.57972 9.21104L0.382518 10.1261L0.364683 10.1401C0.180046 10.2899 0.0561409 10.4988 0.0151245 10.7294C-0.0258918 10.96 0.018655 11.1973 0.140799 11.3989L1.76149 14.13C1.76335 14.1325 1.765 14.1353 1.76642 14.1381C1.88922 14.3369 2.07963 14.4875 2.30456 14.5637C2.5295 14.64 2.77477 14.6372 2.99778 14.5557L3.01106 14.5509L4.41773 13.9991C4.50659 13.9641 4.60271 13.9502 4.69817 13.9585C4.79364 13.9668 4.88571 13.9971 4.96681 14.0468C5.09128 14.1234 5.21777 14.1956 5.34628 14.2634C5.4296 14.3074 5.50114 14.3698 5.55512 14.4457C5.6091 14.5216 5.64402 14.6088 5.65706 14.7002L5.86804 16.1633L5.87259 16.1899C5.91885 16.4169 6.04405 16.6214 6.22709 16.769C6.41012 16.9165 6.63981 16.9981 6.87741 17H10.1226C10.3631 16.9993 10.5957 16.9158 10.7793 16.7645C10.9629 16.6131 11.0858 16.4035 11.1263 16.1725L11.1297 16.1518L11.341 14.6858C11.3542 14.5944 11.3891 14.5074 11.443 14.4315C11.4969 14.3557 11.5683 14.2931 11.6514 14.249C11.7812 14.181 11.908 14.1089 12.0309 14.0339C12.1119 13.9844 12.2037 13.9544 12.2989 13.9462C12.3941 13.9381 12.4899 13.952 12.5785 13.9869L13.9874 14.5394L14.0007 14.5446C14.224 14.6263 14.4697 14.6291 14.6949 14.5526C14.9201 14.476 15.1106 14.3249 15.2332 14.1255C15.2347 14.1227 15.2363 14.12 15.2381 14.1174L16.8588 11.3867C16.9814 11.1849 17.0262 10.9473 16.9852 10.7163C16.9443 10.4854 16.8202 10.2761 16.6353 10.1261ZM11.5323 8.63896C11.5047 9.21126 11.3069 9.76341 10.963 10.2283C10.6191 10.6931 10.144 11.0507 9.59535 11.2574C9.04671 11.4641 8.44821 11.5112 7.87263 11.3928C7.29705 11.2744 6.76919 10.9957 6.35324 10.5905C5.93728 10.1854 5.65117 9.67126 5.52967 9.11068C5.40818 8.55009 5.45654 7.96721 5.66888 7.4329C5.88123 6.8986 6.2484 6.43589 6.72575 6.10104C7.2031 5.7662 7.77007 5.57365 8.3577 5.5468C8.77957 5.52871 9.20069 5.59632 9.59428 5.74532C9.98788 5.89432 10.3453 6.12145 10.6439 6.41228C10.9425 6.70311 11.1757 7.05126 11.3286 7.4346C11.4815 7.81795 11.5509 8.22809 11.5323 8.63896Z" fill="#828282"/>
</svg>
