<svg width="86" height="24" viewBox="0 0 86 24" fill="none" xmlns="http://www.w3.org/2000/svg">
<path d="M6.71417 15.2931V17.6253H19.485V23.872H0V0.559945H19.485V6.80664H6.71417V9.04641H19.485V15.2931H6.71417Z" fill="#E61773"/>
<path d="M41.1379 8.769L36.1395 23.8772H29.0503L37.7782 0.559945H44.4924L53.2203 23.8772H46.1311L41.1379 8.769Z" fill="#E61773"/>
<path d="M65.1026 3.50349C67.5222 1.16612 70.399 0 73.7329 0C77.1285 0 80.0207 1.16612 82.4146 3.50349C84.8033 5.84086 86.0003 8.63544 86.0003 11.8923C86.0003 15.2109 84.8033 18.0363 82.4146 20.3737C80.0258 22.711 77.1285 23.8772 73.7329 23.8772C70.399 23.8772 67.5222 22.711 65.0975 20.3737C62.6779 18.0414 61.4656 15.2109 61.4656 11.8923C61.4707 8.63544 62.6779 5.84086 65.1026 3.50349ZM69.8339 7.85974C68.7345 8.93339 68.1849 10.2947 68.1849 11.9386C68.1849 13.5208 68.7345 14.8616 69.8339 15.9712C70.9332 17.0757 72.2483 17.6305 73.7792 17.6305C75.31 17.6305 76.6097 17.0757 77.6782 15.9712C78.7467 14.8667 79.2861 13.5208 79.2861 11.9386C79.2861 10.2947 78.7519 8.93852 77.6782 7.85974C76.6097 6.78609 75.31 6.24669 73.7792 6.24669C72.2483 6.24669 70.9332 6.78609 69.8339 7.85974Z" fill="#E61773"/>
<path d="M59.6673 17.4455V23.8772H53.2202V0.559945H59.6673V12.6115" fill="#E61773"/>
<path d="M27.6636 17.4455V23.8772H21.2166V0.559945H27.6636V12.6115" fill="#E61773"/>
<path d="M33.1089 0.559945L21.2166 9.63203V0.559945H33.1089Z" fill="#E61773"/>
</svg>
