<svg width="135" height="49" viewBox="0 0 135 49" fill="none" xmlns="http://www.w3.org/2000/svg">
<g filter="url(#filter0_d)">
<path d="M12.7689 12.0706L12.6723 12.045L12.6354 12.1837L12.7784 12.1702L12.7689 12.0706ZM12.7689 12.0706L12.7784 12.1702L12.7785 12.1702L12.779 12.1701L12.7811 12.1699L12.7899 12.1691L12.825 12.1662C12.856 12.1637 12.9019 12.1602 12.9612 12.1562C13.0799 12.1484 13.252 12.1389 13.4653 12.1323C13.892 12.1191 14.4828 12.1175 15.1388 12.1641C16.4563 12.2577 18.0162 12.5441 19.0484 13.3014L19.0748 13.3208H19.1076H19.109H19.1104H19.1119H19.1133H19.1147H19.1161H19.1175H19.1188H19.1202H19.1216H19.1229H19.1242H19.1255H19.1269H19.1282H19.1294H19.1307H19.132H19.1332H19.1345H19.1357H19.1369H19.1381H19.1394H19.1405H19.1417H19.1429H19.1441H19.1452H19.1464H19.1475H19.1486H19.1497H19.1508H19.1519H19.153H19.1541H19.1551H19.1562H19.1572H19.1583H19.1593H19.1603H19.1613H19.1623H19.1633H19.1643H19.1653H19.1662H19.1672H19.1681H19.1691H19.17H19.1709H19.1718H19.1727H19.1736H19.1745H19.1754H19.1763H19.1771H19.178H19.1788H19.1797H19.1805H19.1813H19.1821H19.1829H19.1837H19.1845H19.1853H19.186H19.1868H19.1876H19.1883H19.189H19.1898H19.1905H19.1912H19.1919H19.1926H19.1933H19.194H19.1947H19.1954H19.196H19.1967H19.1973H19.198H19.1986H19.1993H19.1999H19.2005H19.2011H19.2017H19.2023H19.2029H19.2035H19.2041H19.2046H19.2052H19.2058H19.2063H19.2069H19.2074H19.2079H19.2085H19.209H19.2095H19.21H19.2105H19.211H19.2115H19.212H19.2125H19.213H19.2134H19.2139H19.2144H19.2148H19.2153H19.2157H19.2161H19.2166H19.217H19.2174H19.2178H19.2183H19.2187H19.2191H19.2195H19.2198H19.2202H19.2206H19.221H19.2214H19.2217H19.2221H19.2225H19.2228H19.2232H19.2235H19.2239H19.2242H19.2245H19.2249H19.2252H19.2255H19.2258H19.2261H19.2265H19.2268H19.2271H19.2274H19.2277H19.228H19.2282H19.2285H19.2288H19.2291H19.2294H19.2296H19.2299H19.2302H19.2304H19.2307H19.2309H19.2312H19.2314H19.2317H19.2319H19.2322H19.2324H19.2326H19.2329H19.2331H19.2333H19.2336H19.2338H19.234H19.2342H19.2344H19.2346H19.2348H19.2351H19.2353H19.2355H19.2357H19.2359H19.2361H19.2363H19.2365H19.2366H19.2368H19.237H19.2372H19.2374H19.2376H19.2378H19.238H19.2381H19.2383H19.2385H19.2387H19.2388H19.239H19.2392H19.2394H19.2395H19.2397H19.2399H19.24H19.2402H19.2404H19.2405H19.2407H19.2409H19.241H19.2412H19.2414H19.2415H19.2417H19.2418H19.242H19.2422H19.2423H19.2425H19.2427H19.2428H19.243H19.2431H19.2433H19.2435H19.2436H19.2438H19.244H19.2441H19.2443H19.2444H19.2446H19.2448H19.2449H19.2451H19.2453H19.2455H19.2456H19.2458H19.246H19.2461H19.2463H19.2465H19.2467H19.2468H19.247H19.2472H19.2474H19.2476H19.2477H19.2479H19.2481H19.2483H19.2485H19.2487H19.2489H19.2491H19.2493H19.2495H19.2497H19.2499H19.2501H19.2503H19.2505H19.2507H19.2509H19.2512H19.2514H19.2516H19.2518H19.252H19.2523H19.2525H19.2527H19.253H19.2532H19.2535H19.2537H19.254H19.2542H19.2545H19.2547H19.255H19.2552H19.2555H19.2558H19.2561H19.2563H19.2566H19.2569H19.2572H19.2575H19.2578H19.2581H19.2584H19.2587H19.259H19.2593H19.2596H19.2599H19.2603H19.2606H19.2609H19.2613H19.2616H19.262H19.2623H19.2627H19.263H19.2634H19.2638H19.2641H19.2645H19.2649H19.2653H19.2657H19.2661H19.2665H19.2669H19.2673H19.2677H19.2681H19.2686H19.269H19.2694H19.2699H19.2703H19.2708H19.2712H19.2717H19.2722H19.2726H19.2731H19.2736H19.2741H19.2746H19.2751H19.2756H19.2761H19.2766H19.2772H19.2777H19.2782H19.2788H19.2793H19.2799H19.2805H19.281H19.2816H19.2822H19.2828H19.2834H19.284H19.2846H19.2852H19.2858H19.2865H19.2871H19.2877H19.2884H19.2891H19.2897H19.2904H19.2911H19.2918H19.2925H19.2932H19.2939H19.2946H19.2953H19.296H19.2968H19.2975H19.2983H19.299H19.2998H19.3006H19.3014H19.3022H19.303H19.3038H19.3046H19.3054H19.3063H19.3071H19.308H19.3088H19.3097H19.3106H19.3114H19.3123H19.3132H19.3141H19.3151H19.316H19.3169H19.3179H19.3188H19.3198H19.3208H19.3217H19.3227H19.3237H19.3247H19.3257H19.3268H19.3278H19.3289H19.3299H19.331H19.332H19.3331H19.3342H19.3353H19.3364H19.3376H19.3387H19.3398H19.341H19.3421H19.3433H19.3445H19.3457H19.3469H19.3481H19.3493H19.3506H19.3518H19.3531H19.3543H19.3556H19.3569H19.3582H19.3595H19.3608H19.3621H19.3635H19.3648H19.3662H19.3675H19.3689H19.3703H19.3717H19.3731H19.3746H19.376H19.3775H19.3789H19.3804H19.3819H19.3834H19.3849H19.3864H19.3879H19.3895H19.391H19.3926H19.3942H19.3957H19.3973H19.399H19.4006H19.4022H19.4039H19.4055H19.4072H19.4089H19.4106H19.4123H19.414H19.4158H19.4175H19.4193H19.4211H19.4228H19.4246H19.4265H19.4283H19.4301H19.432H19.4338H19.4357H19.4376H19.4395H19.4414H19.4433H19.4453H19.4472H19.4492H19.4512H19.4532H19.4552H19.4572H19.4593H19.4613H19.4634H19.4655H19.4676H19.4697H19.4718H19.4739H19.4761H19.4782H19.4804H19.5199L19.5487 13.2938C20.7725 12.149 22.243 11.6672 23.4119 11.4723C23.9959 11.3749 24.5031 11.3494 24.8639 11.3482C25.0443 11.3476 25.1879 11.3531 25.2861 11.3587C25.3111 11.3602 25.3332 11.3616 25.3521 11.363C25.3532 11.3982 25.3531 11.4408 25.3496 11.4844C25.3453 11.5376 25.3364 11.5868 25.3216 11.6242C25.3101 11.6535 25.2984 11.6676 25.2896 11.6744C23.1614 12.0059 21.6576 13.0024 20.6858 13.9169C20.1987 14.3752 19.845 14.8132 19.6128 15.1371C19.4966 15.2991 19.4108 15.4326 19.3538 15.5261C19.3253 15.5728 19.304 15.6095 19.2897 15.6347C19.2856 15.6419 19.2821 15.6482 19.2792 15.6535C19.2784 15.654 19.2776 15.6545 19.2767 15.6551C19.2645 15.6628 19.2467 15.6726 19.2251 15.6806C19.1904 15.6934 19.1494 15.7006 19.1053 15.6903C18.5446 14.5264 17.2982 13.8066 16.2079 13.3778C15.654 13.16 15.1342 13.0149 14.7531 12.9243C14.5624 12.8789 14.4062 12.8472 14.2974 12.8267C14.243 12.8165 14.2004 12.809 14.1713 12.8042L14.1379 12.7987L14.1292 12.7973L14.1269 12.797L14.1263 12.7969L14.1261 12.7969L14.1112 12.8958M12.7689 12.0706C12.6723 12.045 12.6723 12.0449 12.6723 12.0447L12.6725 12.0443L12.6729 12.0427L12.6746 12.0365L12.6811 12.0131C12.6869 11.9926 12.6956 11.9624 12.7074 11.9232C12.731 11.8447 12.7669 11.7302 12.8165 11.5849C12.9157 11.2943 13.0696 10.8804 13.2888 10.3857C13.7272 9.39656 14.4274 8.08281 15.4751 6.78505C17.5725 4.18728 21.0624 1.65469 26.6192 1.91903C31.5614 2.14561 34.6313 4.42537 36.4637 6.64989C37.3792 7.76125 37.9855 8.85825 38.363 9.67759C38.5518 10.0874 38.6835 10.4279 38.7682 10.6665C38.8105 10.7859 38.8411 10.8797 38.8611 10.944C38.8666 10.9615 38.8713 10.9768 38.8752 10.9899C38.8901 10.9943 38.9079 10.9998 38.9286 11.0062C38.9978 11.0277 39.0989 11.0603 39.2277 11.1052C39.4852 11.1949 39.8535 11.3335 40.298 11.5294C41.1868 11.9213 42.3816 12.543 43.6055 13.4628C46.0542 15.3031 48.6223 18.3393 49.0856 23.1128L49.0863 23.1201L49.0861 23.1201C49.1202 24.5794 49.0839 25.6351 49.0579 26.3919C49.0461 26.7358 49.0364 27.018 49.0364 27.2482V27.2574L49.0347 27.2665C48.1345 32.1082 45.756 34.6761 43.5955 36.0312C42.5166 36.7079 41.4941 37.081 40.7409 37.2851C40.3643 37.3871 40.0547 37.4469 39.8387 37.4812C39.7308 37.4984 39.6461 37.5092 39.5882 37.5157C39.5732 37.5174 39.5599 37.5189 39.5485 37.52C39.538 37.5211 39.529 37.5219 39.5217 37.5226L39.5043 37.5241L39.5012 37.5243L39.4996 37.5245L39.4975 37.5248L39.4832 37.5265L39.4278 37.5328C39.3796 37.5383 39.3094 37.546 39.2213 37.5552C39.0452 37.5737 38.7974 37.5979 38.5107 37.6215C37.9379 37.6684 37.2068 37.7125 36.5803 37.6999L36.579 37.6999C35.4024 37.6617 34.1632 37.1983 33.2238 36.7494C32.7529 36.5243 32.3548 36.3017 32.0744 36.1353C31.9341 36.052 31.8232 35.9828 31.7472 35.9343C31.7091 35.91 31.6799 35.8909 31.66 35.8778L31.6373 35.8628L31.6314 35.8589L31.6299 35.8578L31.6295 35.8576L31.6294 35.8575L31.6854 35.7746L31.6293 35.8574L31.5856 35.8278L31.5854 35.775L31.5116 17.5349L29.0258 19.225L28.9019 34.5502L28.9009 34.6754L28.779 34.6468L26.865 34.1967L26.7879 34.1786V34.0993V20.1844L24.3773 21.801L24.2536 33.5753L24.2525 33.6771L24.1508 33.6742L22.3611 33.6242L22.2645 33.6215L22.2639 33.5249L22.1904 22.5662L19.5807 24.0065L19.581 24.0497L19.5825 24.3405C19.5837 24.5913 19.5855 24.9503 19.5874 25.383C19.5913 26.2484 19.596 27.4088 19.5991 28.5888C19.6053 30.9444 19.6054 33.3892 19.5801 33.7072L19.5736 33.7896L19.4914 33.7987C18.0302 33.9606 16.6419 34.2216 15.1185 34.8451C13.5947 35.4688 11.9313 36.457 9.92344 38.0778L9.86564 38.1245L9.80428 38.0826C6.8875 36.093 5.16232 33.2931 4.16664 30.9948C3.66861 29.8452 3.35245 28.8197 3.16072 28.0813C3.06484 27.712 3.00004 27.4143 2.95916 27.2087C2.93872 27.1059 2.92426 27.026 2.91488 26.9717C2.91019 26.9445 2.90677 26.9238 2.90451 26.9097L2.90197 26.8936L2.90133 26.8894L2.90116 26.8883L2.90111 26.888C2.9011 26.8879 2.90109 26.8879 3 26.8731L2.90109 26.8879L2.9 26.8805V26.8731V26.8731L2.9 26.8729L2.9 26.8721L2.9 26.8692L2.90001 26.8577L2.9001 26.8125L2.90078 26.6382C2.90156 26.4864 2.90311 26.2659 2.90622 25.9906C2.91244 25.4401 2.92488 24.6706 2.94975 23.7948L2.95007 23.7837L2.95067 23.7838C3.57557 19.2957 5.51474 16.5974 7.44527 15.0218C8.40961 14.2347 9.37045 13.7288 10.1617 13.4195C10.9444 13.1136 11.5677 12.9975 11.8673 12.9958C12.341 12.9333 12.8993 12.8835 13.3391 12.8492C13.5602 12.832 13.7517 12.8187 13.8879 12.8097C13.956 12.8051 14.0104 12.8017 14.0477 12.7994L14.0905 12.7968L14.1016 12.7962L14.1045 12.796L14.1052 12.7959L14.1054 12.7959L14.1054 12.7959L14.1112 12.8958M14.1112 12.8958L14.1054 12.7959L14.1158 12.7953L14.126 12.7969L14.1112 12.8958Z" fill="#2E3990" stroke="white" stroke-width="0.2"/>
<path d="M11 39.4184L10.91 39.3749L10.7757 39.6528L11.0474 39.5064L11.0475 39.5063L11.0481 39.5061L11.0503 39.5048L11.0597 39.4999L11.0978 39.4801C11.1316 39.4627 11.1822 39.4371 11.2489 39.4045C11.3821 39.3394 11.5795 39.2465 11.8346 39.1359C12.345 38.9148 13.0863 38.6231 14.0089 38.3416C15.8544 37.7785 18.4223 37.2573 21.3147 37.4226C24.0729 37.5802 25.8338 38.6588 27.6104 39.747C27.6883 39.7948 27.7662 39.8425 27.8443 39.8902C29.7045 41.0266 31.6251 42.1254 34.7377 42.0996C37.8497 42.0738 40.1867 40.8031 41.744 39.5408C42.5226 38.9096 43.107 38.2801 43.497 37.8081C43.692 37.572 43.8385 37.3752 43.9365 37.237C43.9855 37.1679 44.0224 37.1135 44.0471 37.0761C44.0595 37.0574 44.0688 37.043 44.0751 37.0332L44.0823 37.0219L44.0842 37.0189L44.0847 37.0181L44.0849 37.0178C44.0849 37.0178 44.0849 37.0177 44 36.9649L44.0849 37.0177L43.9346 36.89L43.9342 36.8896L43.9342 36.8896L43.9335 36.8902L43.9302 36.893L43.9155 36.9051C43.9021 36.916 43.8814 36.9324 43.8533 36.9535C43.7969 36.9958 43.7106 37.0572 43.5925 37.132C43.3564 37.2817 42.9932 37.4851 42.4887 37.6969C41.4801 38.1204 39.9056 38.578 37.6514 38.7051C34.8124 38.848 32.9998 37.7927 30.9956 36.626C30.8736 36.555 30.751 36.4836 30.6273 36.412C28.4689 35.1625 26.0277 33.8747 21.8735 33.9004C17.7093 33.9261 14.9691 35.2889 13.269 36.6505C12.4196 37.3307 11.8309 38.0097 11.4541 38.5195C11.2657 38.7745 11.1302 38.9871 11.0416 39.1366C10.9972 39.2114 10.9646 39.2704 10.9429 39.3109C10.9321 39.3312 10.924 39.3469 10.9185 39.3577L10.9123 39.3701L10.9106 39.3734L10.9102 39.3744L10.91 39.3747C10.91 39.3748 10.91 39.3749 11 39.4184Z" fill="#12A64E" stroke="white" stroke-width="0.2"/>
<path d="M13 40.3758L12.9262 40.3083L12.8555 40.3857L12.936 40.4526L13 40.3758ZM13 40.3758C12.9262 40.3083 12.9262 40.3083 12.9263 40.3082L12.9265 40.308L12.9269 40.3076L12.928 40.3063L12.9318 40.3024C12.9349 40.2992 12.9393 40.2947 12.9451 40.2891C12.9566 40.2778 12.9735 40.262 12.9962 40.2422C13.0416 40.2027 13.1105 40.1474 13.2067 40.0816C13.3991 39.9501 13.7006 39.7769 14.1425 39.6039C15.0264 39.2577 16.471 38.9123 18.7278 38.9004M13 40.3758C12.936 40.4526 12.9361 40.4527 12.9362 40.4527L12.9364 40.453L12.9373 40.4537L12.9406 40.4564L12.9533 40.4667C12.9644 40.4758 12.9809 40.489 13.0028 40.5063C13.0465 40.5407 13.1115 40.5909 13.1974 40.6548C13.3692 40.7824 13.6246 40.9642 13.9602 41.1822C14.6313 41.6181 15.6234 42.1987 16.9095 42.779C19.4816 43.9398 23.2302 45.1 27.9383 45.1C30.7243 45.1 32.9969 44.7551 34.5739 44.41C35.3623 44.2374 35.977 44.0647 36.395 43.935C36.604 43.8701 36.7639 43.816 36.8717 43.778C36.9257 43.759 36.9666 43.744 36.9942 43.7337L37.0255 43.7219L37.0336 43.7188L37.0357 43.718L37.0363 43.7178L37.0364 43.7177L37 43.6246L37.0365 43.7177L36.9947 43.5247L36.9947 43.5247L36.9946 43.5247L36.9941 43.5248L36.9922 43.5249L36.9846 43.5252L36.9537 43.5267C36.9261 43.528 36.8847 43.5299 36.8293 43.5321C36.7187 43.5365 36.5524 43.5424 36.3307 43.5483C35.8873 43.5602 35.222 43.572 34.3346 43.572C31.1693 43.4914 29.0129 42.3777 26.8347 41.2527C26.7796 41.2242 26.7245 41.1958 26.6693 41.1673C24.4328 40.0132 22.1488 38.8765 18.7278 38.9004M18.7278 38.9004C18.7278 38.9004 18.7278 38.9004 18.7279 38.9004L18.7284 39.0004L18.7277 38.9004C18.7277 38.9004 18.7278 38.9004 18.7278 38.9004Z" fill="#12A64E" stroke="white" stroke-width="0.2"/>
<path d="M61.588 17.439H59.872V20.91H68.166V19.545H61.588V17.439ZM61.406 11.914C61.406 11.186 62.368 10.796 63.967 10.796C65.579 10.796 66.541 11.186 66.541 11.914C66.541 12.655 65.579 13.019 63.967 13.019C62.368 13.019 61.406 12.655 61.406 11.914ZM64.812 15.307V14.345C66.944 14.163 68.309 13.253 68.309 11.914C68.309 10.393 66.58 9.444 63.967 9.444C61.367 9.444 59.638 10.393 59.638 11.914C59.638 13.253 60.99 14.15 63.096 14.345V15.307H58.559V16.672H69.375V15.307H64.812ZM72.91 14.787H76.797V10.159H71.142V11.524H75.042V13.435H71.155V18.362H72.234C74.405 18.362 76.16 18.284 78.11 17.946L77.928 16.555C76.238 16.841 74.73 16.932 72.91 16.945V14.787ZM78.76 9.132V21.144H80.476V9.132H78.76ZM88.587 16.1V17.27H90.836V18.219H92.552V9.145H90.836V16.1H88.587ZM86.286 10.796C87.079 10.796 87.638 11.108 87.638 11.693C87.638 12.278 87.079 12.577 86.286 12.577C85.48 12.577 84.921 12.278 84.921 11.693C84.921 11.108 85.48 10.796 86.286 10.796ZM86.286 13.825C88.028 13.825 89.263 12.967 89.263 11.693C89.263 10.419 88.028 9.548 86.286 9.548C84.531 9.548 83.309 10.419 83.309 11.693C83.309 12.967 84.531 13.825 86.286 13.825ZM85.649 19.545V17.907H87.3V15.645C88.262 15.567 89.224 15.463 90.16 15.307L90.043 14.085C87.521 14.41 84.609 14.436 82.425 14.449L82.646 15.814C83.543 15.814 84.544 15.801 85.597 15.749V17.348H83.933V20.91H92.812V19.545H85.649ZM106.702 17.049C107.183 14.501 107.183 12.811 107.183 11.316V10.172H98.4863V11.537H105.467C105.467 12.928 105.441 14.592 104.986 16.854L106.702 17.049ZM102.932 18.297V14.176H101.216V18.297H97.3943V19.675H108.223V18.297H102.932ZM112.317 17.049H110.601V20.91H119.09V19.545H112.317V17.049ZM118.674 14.189C118.921 12.811 118.921 11.719 118.921 10.744V9.691H110.679V11.069H117.231C117.231 11.979 117.205 12.941 116.958 14.189H109.34V15.567H113.994V18.102H115.71V15.567H120.182V14.189H118.674ZM128.462 14.826C126.525 14.202 125.719 12.694 125.719 11.173V9.873H123.977V11.16C123.977 12.798 123.132 14.397 121.117 15.047L122.027 16.386C123.392 15.931 124.341 14.995 124.874 13.799C125.394 14.878 126.278 15.736 127.578 16.165L128.462 14.826ZM124.731 17.075H123.015V20.91H131.14V19.545H124.731V17.075ZM130.724 12.616V9.145H129.008V17.907H130.724V14.033H132.31V12.616H130.724ZM62.615 27.381H65.202V26.497H58.897V27.381H61.562V28.863C61.562 30.839 60.158 33.049 58.494 33.881L59.118 34.726C60.431 34.05 61.562 32.568 62.095 30.865C62.628 32.425 63.72 33.79 65.02 34.44L65.631 33.582C63.941 32.789 62.615 30.722 62.615 28.863V27.381ZM69.583 30.007H67.659V25.314H66.593V36.962H67.659V30.904H69.583V30.007ZM75.913 26.237C77.824 26.237 78.916 26.679 78.916 27.459C78.916 28.239 77.824 28.681 75.913 28.681C74.015 28.681 72.91 28.239 72.91 27.459C72.91 26.679 74.015 26.237 75.913 26.237ZM75.913 29.474C78.487 29.474 80.008 28.772 80.008 27.459C80.008 26.146 78.487 25.431 75.913 25.431C73.352 25.431 71.818 26.146 71.818 27.459C71.818 28.772 73.352 29.474 75.913 29.474ZM77.213 32.191H74.561V31.034H77.213V32.191ZM81.178 31.034V30.176H70.648V31.034H73.508V32.191H71.922V32.997H78.786V34.037H71.948V36.832H80.19V36H72.988V34.817H79.839V32.191H78.266V31.034H81.178ZM83.647 30.969C85.454 30.657 87.17 29.682 87.885 28.304C88.587 29.682 90.316 30.657 92.123 30.969L92.539 30.124C90.485 29.825 88.47 28.486 88.47 26.952V26.887H92.123V26.029H83.608V26.887H87.287V26.952C87.287 28.486 85.272 29.825 83.244 30.124L83.647 30.969ZM93.15 31.944H82.62V32.815H87.326V36.962H88.392V32.815H93.163L93.15 31.944ZM101.898 29.344H103.38V32.685H104.407V25.301H103.38V28.473H101.898V25.522H100.884V32.256H101.898V29.344ZM100.416 26.692H97.998V25.392H96.945V26.692H94.501V27.537H100.429L100.416 26.692ZM95.944 30.137C95.944 29.422 96.555 28.941 97.478 28.941C98.388 28.941 99.012 29.422 99.012 30.137C99.012 30.865 98.388 31.346 97.478 31.346C96.555 31.346 95.944 30.865 95.944 30.137ZM99.961 30.137C99.961 28.941 98.947 28.148 97.478 28.148C96.009 28.148 94.982 28.941 94.982 30.137C94.982 31.359 96.009 32.139 97.478 32.139C98.947 32.139 99.961 31.359 99.961 30.137ZM100.572 36.13C98.791 36.13 97.725 35.688 97.725 34.921C97.725 34.141 98.791 33.699 100.572 33.699C102.34 33.699 103.406 34.141 103.406 34.921C103.406 35.688 102.34 36.13 100.572 36.13ZM100.572 32.88C98.141 32.88 96.672 33.608 96.672 34.921C96.672 36.221 98.141 36.949 100.572 36.949C103.003 36.949 104.472 36.221 104.472 34.921C104.472 33.608 103.003 32.88 100.572 32.88ZM113.514 26.315H112.448V28.395C112.448 30.566 111.122 32.802 109.432 33.66L110.082 34.505C111.395 33.79 112.474 32.334 112.981 30.605C113.501 32.256 114.58 33.66 115.893 34.336L116.53 33.478C114.84 32.672 113.514 30.54 113.514 28.395V26.315ZM117.96 25.301V27.836H115.438V28.72H117.96V30.748H115.438V31.632H117.96V36.988H119.039V25.301H117.96ZM130.699 29.045H123.835V28.044H130.322V27.29H123.835V26.38H130.634V25.6H122.769V29.812H130.699V29.045ZM123.731 34.934H130.582V32.399H122.652V33.179H129.529V34.18H122.691V36.832H130.933V36.039H123.731V34.934ZM121.404 30.696V31.502H131.921V30.696H121.404Z" fill="#4B5075"/>
</g>
<defs>
<filter id="filter0_d" x="0.799988" y="0.799805" width="133.51" height="47.4" filterUnits="userSpaceOnUse" color-interpolation-filters="sRGB">
<feFlood flood-opacity="0" result="BackgroundImageFix"/>
<feColorMatrix in="SourceAlpha" type="matrix" values="0 0 0 0 0 0 0 0 0 0 0 0 0 0 0 0 0 0 127 0"/>
<feOffset dy="1"/>
<feGaussianBlur stdDeviation="1"/>
<feColorMatrix type="matrix" values="0 0 0 0 1 0 0 0 0 1 0 0 0 0 1 0 0 0 0.35 0"/>
<feBlend mode="normal" in2="BackgroundImageFix" result="effect1_dropShadow"/>
<feBlend mode="normal" in="SourceGraphic" in2="effect1_dropShadow" result="shape"/>
</filter>
</defs>
</svg>
