<svg width="168" height="73" viewBox="0 0 168 73" fill="none" xmlns="http://www.w3.org/2000/svg">
<g clip-path="url(#clip0)">
<path d="M99.32 54.0575C99.47 54.1875 99.54 54.3475 99.54 54.5475C99.54 54.7275 99.47 54.8775 99.32 55.0075C99.17 55.1575 98.98 55.2275 98.73 55.2275H93.77V71.4875C93.77 71.7175 93.69 71.9075 93.53 72.0475C93.38 72.1775 93.21 72.2475 93.02 72.2475C92.81 72.2475 92.63 72.1775 92.48 72.0475C92.33 71.8975 92.26 71.7175 92.26 71.4875V55.2275H87.08C86.69 55.2275 86.49 54.9975 86.49 54.5475C86.49 54.0875 86.69 53.8675 87.08 53.8675H98.73C98.98 53.8675 99.17 53.9275 99.32 54.0575Z" fill="black"/>
<path d="M110.29 53.7375C110.53 53.5575 110.81 53.4675 111.12 53.4675C111.4 53.4675 111.66 53.5575 111.9 53.7375C112.16 53.9375 112.36 54.2175 112.49 54.5875L118.54 71.1375C118.62 71.3775 118.61 71.6075 118.52 71.8175C118.44 71.9975 118.3 72.1175 118.1 72.1875C117.9 72.2475 117.71 72.2475 117.51 72.1675C117.31 72.0575 117.17 71.8775 117.07 71.6275L115.02 65.9375H107.18L105.1 71.6275C105 71.8675 104.85 72.0475 104.64 72.1675C104.46 72.2675 104.27 72.2775 104.08 72.2175C103.88 72.1475 103.74 72.0175 103.64 71.8275C103.54 71.6375 103.55 71.4075 103.66 71.1475L109.69 54.5975C109.83 54.2275 110.03 53.9375 110.29 53.7375ZM114.51 64.6075L111.14 55.3275H111.07L107.68 64.6075H114.51Z" fill="black"/>
<path d="M133.96 54.9175C134.71 55.6475 135.18 56.6175 135.38 57.8275C135.43 58.1375 135.38 58.3875 135.23 58.5875C135.12 58.7675 134.94 58.8775 134.72 58.9075C134.51 58.9275 134.31 58.8675 134.13 58.7375C133.95 58.6075 133.84 58.4075 133.81 58.1475C133.61 56.9875 133.17 56.1475 132.47 55.6075C131.77 55.0875 130.79 54.8275 129.52 54.8275C128.15 54.8275 127.08 55.0775 126.3 55.5875C125.47 56.1275 125.05 56.8975 125.05 57.9075C125.05 58.9175 125.38 59.6975 126.03 60.2475C126.71 60.8375 127.94 61.3075 129.72 61.6675C132.05 62.1375 133.69 62.8175 134.65 63.6975C135.58 64.5475 136.04 65.7475 136.04 67.3075C136.04 68.8375 135.41 70.0575 134.14 70.9675C132.97 71.8275 131.49 72.2575 129.72 72.2575C127.72 72.2575 126.18 71.8375 125.11 70.9875C123.94 70.0875 123.27 68.6975 123.11 66.8175C123.08 66.5575 123.14 66.3475 123.31 66.1875C123.44 66.0575 123.6 65.9875 123.8 65.9675C124.01 65.9475 124.19 66.0075 124.34 66.1375C124.5 66.2875 124.6 66.4975 124.63 66.7675C124.74 68.2275 125.25 69.2975 126.14 69.9675C126.94 70.5875 128.12 70.8975 129.68 70.8975C130.85 70.8975 131.9 70.6275 132.83 70.0875C133.95 69.4575 134.51 68.5775 134.51 67.4775C134.51 66.2775 134.22 65.3875 133.63 64.8175C132.93 64.1375 131.54 63.5575 129.46 63.0875C127.46 62.6175 126.01 62.0475 125.11 61.3775C124.05 60.5675 123.52 59.4275 123.52 57.9575C123.52 56.5375 124.06 55.4375 125.13 54.6375C126.22 53.8575 127.72 53.4675 129.62 53.4675C131.5 53.4475 132.95 53.9375 133.96 54.9175Z" fill="black"/>
<path d="M142.85 53.6475C143 53.5175 143.18 53.4475 143.39 53.4475C143.59 53.4475 143.76 53.5175 143.9 53.6475C144.06 53.7975 144.14 53.9975 144.14 54.2575V71.4675C144.14 71.7075 144.06 71.9075 143.9 72.0575C143.75 72.1875 143.58 72.2575 143.39 72.2575C143.18 72.2575 143 72.1875 142.85 72.0575C142.7 71.9075 142.63 71.7175 142.63 71.4675V54.2575C142.63 53.9975 142.71 53.7875 142.85 53.6475Z" fill="black"/>
<path d="M165.06 56.3275C166.36 58.0375 167.01 60.2075 167.01 62.8475C167.01 65.4875 166.36 67.6475 165.06 69.3375C163.6 71.2775 161.53 72.2475 158.86 72.2475C156.17 72.2475 154.1 71.2775 152.63 69.3375C151.36 67.6475 150.73 65.4775 150.73 62.8475C150.73 60.2175 151.36 58.0375 152.63 56.3275C154.09 54.4075 156.17 53.4475 158.86 53.4475C161.52 53.4475 163.59 54.4075 165.06 56.3275ZM153.78 57.2075C152.75 58.6275 152.24 60.5075 152.24 62.8475C152.24 65.1775 152.75 67.0575 153.78 68.4875C154.94 70.0975 156.63 70.9075 158.86 70.9075C161.07 70.9075 162.77 70.0975 163.94 68.4875C164.98 67.0375 165.5 65.1575 165.5 62.8475C165.5 60.5175 164.98 58.6375 163.94 57.2075C162.77 55.5975 161.07 54.7875 158.86 54.7875C156.62 54.7875 154.93 55.5975 153.78 57.2075Z" fill="black"/>
<path d="M13.07 30.3875V34.9275H37.93V47.0875H0V1.70752H37.93V13.8675H13.07V18.2275H37.93V30.3875H13.07Z" fill="#E61773"/>
<path d="M80.0801 17.6875L70.35 47.0975H56.55L73.5401 1.70752H86.6101L103.6 47.0975H89.8001L80.0801 17.6875Z" fill="#E61773"/>
<path d="M126.73 7.43749C131.44 2.88749 137.04 0.617493 143.53 0.617493C150.14 0.617493 155.77 2.88749 160.43 7.43749C165.08 11.9875 167.41 17.4275 167.41 23.7675C167.41 30.2275 165.08 35.7275 160.43 40.2775C155.78 44.8275 150.14 47.0975 143.53 47.0975C137.04 47.0975 131.44 44.8275 126.72 40.2775C122.01 35.7375 119.65 30.2275 119.65 23.7675C119.66 17.4275 122.01 11.9875 126.73 7.43749ZM135.94 15.9175C133.8 18.0075 132.73 20.6575 132.73 23.8575C132.73 26.9375 133.8 29.5475 135.94 31.7075C138.08 33.8575 140.64 34.9375 143.62 34.9375C146.6 34.9375 149.13 33.8575 151.21 31.7075C153.29 29.5575 154.34 26.9375 154.34 23.8575C154.34 20.6575 153.3 18.0075 151.21 15.9175C149.13 13.8275 146.6 12.7775 143.62 12.7775C140.64 12.7775 138.08 13.8275 135.94 15.9175Z" fill="#E61773"/>
<path d="M116.15 34.5775V47.0975H103.6V1.70752H116.15V25.1675" fill="#E61773"/>
<path d="M53.85 34.5775V47.0975H41.3V1.70752H53.85V25.1675" fill="#E61773"/>
<path d="M64.45 1.70752L41.3 19.3675V1.70752H64.45Z" fill="#E61773"/>
</g>
<defs>
<clipPath id="clip0">
<rect y="0.617493" width="167.41" height="71.65" fill="white"/>
</clipPath>
</defs>
</svg>
