<svg width="13" height="13" viewBox="0 0 13 13" fill="none" xmlns="http://www.w3.org/2000/svg">
<rect width="13" height="12.6927" rx="3" fill="#E61773"/>
<path d="M10.696 7.48078H10.4219V3.46203C10.4219 2.48081 9.55335 1.68433 8.48457 1.68433H6.94147V1.52685C6.94147 1.42086 6.84907 1.33606 6.73511 1.33606H6.2577C6.14374 1.33606 6.05134 1.42086 6.05134 1.52685V1.68433H4.50823C3.43945 1.68433 2.57088 2.48081 2.57088 3.46203V7.48078H2.29984C2.13659 7.48078 2.00415 7.60192 2.00415 7.75334V7.95322C2.00415 8.10161 2.13659 8.22275 2.29984 8.22275H2.57396V9.56738C2.57396 10.055 2.88812 10.4729 3.33781 10.6697V10.9877C3.33781 11.2058 3.53185 11.3844 3.7721 11.3844H3.83062C4.07086 11.3844 4.26491 11.2058 4.26491 10.9877V10.7909H8.73714V10.9877C8.73714 11.2058 8.93118 11.3844 9.17143 11.3844H9.22995C9.47019 11.3844 9.66423 11.2058 9.66423 10.9877V10.6697C10.117 10.4729 10.4281 10.055 10.4281 9.56738V8.22275H10.7022C10.8655 8.22275 10.9948 8.10161 10.9948 7.95322V7.75334C10.9917 7.60192 10.8562 7.48078 10.696 7.48078ZM4.78852 2.44447H8.20429C8.87574 2.44447 9.41783 2.95628 9.41783 3.58317V7.37478H3.57498V3.5862C3.57498 2.95628 4.12014 2.44447 4.78852 2.44447ZM3.79982 9.15854C3.52569 9.15854 3.30701 8.95563 3.30701 8.70427C3.30701 8.45291 3.52877 8.25001 3.79982 8.25001C4.07394 8.25001 4.29263 8.45291 4.29263 8.70427C4.29571 8.95261 4.07394 9.15854 3.79982 9.15854ZM9.19607 9.15854C8.92194 9.15854 8.70326 8.95563 8.70326 8.70427C8.70326 8.45291 8.92502 8.25001 9.19607 8.25001C9.46711 8.25001 9.68887 8.45291 9.68887 8.70427C9.68887 8.95261 9.46711 9.15854 9.19607 9.15854Z" fill="white"/>
</svg>
