<svg width="43" height="43" viewBox="0 0 43 43" fill="none" xmlns="http://www.w3.org/2000/svg">
<circle cx="21.5" cy="21.5" r="21.5" fill="#E61773"/>
<path d="M22.65 29.55V31.85C22.65 32.155 22.5288 32.4475 22.3132 32.6632C22.0975 32.8788 21.805 33 21.5 33C21.195 33 20.9025 32.8788 20.6868 32.6632C20.4712 32.4475 20.35 32.155 20.35 31.85V29.55H18.05V31.85C18.05 32.155 17.9288 32.4475 17.7132 32.6632C17.4975 32.8788 17.205 33 16.9 33C16.595 33 16.3025 32.8788 16.0868 32.6632C15.8712 32.4475 15.75 32.155 15.75 31.85V29.55C15.75 29.4844 15.7557 29.4212 15.7661 29.3591C15.2748 29.1875 14.8286 28.9073 14.4606 28.5394C14.0927 28.1714 13.8125 27.7252 13.6409 27.2339C13.5779 27.2451 13.514 27.2504 13.45 27.25H11.15C10.845 27.25 10.5525 27.1288 10.3368 26.9132C10.1212 26.6975 10 26.405 10 26.1C10 25.795 10.1212 25.5025 10.3368 25.2868C10.5525 25.0712 10.845 24.95 11.15 24.95H13.45V22.65H11.15C10.845 22.65 10.5525 22.5288 10.3368 22.3132C10.1212 22.0975 10 21.805 10 21.5C10 21.195 10.1212 20.9025 10.3368 20.6868C10.5525 20.4712 10.845 20.35 11.15 20.35H13.45V18.05H11.15C10.845 18.05 10.5525 17.9288 10.3368 17.7132C10.1212 17.4975 10 17.205 10 16.9C10 16.595 10.1212 16.3025 10.3368 16.0868C10.5525 15.8712 10.845 15.75 11.15 15.75H13.45C13.5155 15.75 13.5788 15.7557 13.6409 15.7661C13.9859 14.7725 14.7725 13.9859 15.7661 13.6409C15.7555 13.5778 15.7501 13.514 15.75 13.45V11.15C15.75 10.845 15.8712 10.5525 16.0868 10.3368C16.3025 10.1212 16.595 10 16.9 10C17.205 10 17.4975 10.1212 17.7132 10.3368C17.9288 10.5525 18.05 10.845 18.05 11.15V13.45H20.35V11.15C20.35 10.845 20.4712 10.5525 20.6868 10.3368C20.9025 10.1212 21.195 10 21.5 10C21.805 10 22.0975 10.1212 22.3132 10.3368C22.5288 10.5525 22.65 10.845 22.65 11.15V13.45H24.95V11.15C24.95 10.845 25.0712 10.5525 25.2868 10.3368C25.5025 10.1212 25.795 10 26.1 10C26.405 10 26.6975 10.1212 26.9132 10.3368C27.1288 10.5525 27.25 10.845 27.25 11.15V13.45C27.25 13.5144 27.2442 13.5788 27.2339 13.6409C28.2275 13.9859 29.0141 14.7725 29.3591 15.7661C29.4221 15.7549 29.486 15.7496 29.55 15.75H31.85C32.155 15.75 32.4475 15.8712 32.6632 16.0868C32.8788 16.3025 33 16.595 33 16.9C33 17.205 32.8788 17.4975 32.6632 17.7132C32.4475 17.9288 32.155 18.05 31.85 18.05H29.55V20.35H31.85C32.155 20.35 32.4475 20.4712 32.6632 20.6868C32.8788 20.9025 33 21.195 33 21.5C33 21.805 32.8788 22.0975 32.6632 22.3132C32.4475 22.5288 32.155 22.65 31.85 22.65H29.55V24.95H31.85C32.155 24.95 32.4475 25.0712 32.6632 25.2868C32.8788 25.5025 33 25.795 33 26.1C33 26.405 32.8788 26.6975 32.6632 26.9132C32.4475 27.1288 32.155 27.25 31.85 27.25H29.55C29.4844 27.25 29.4212 27.2442 29.3591 27.2339C29.1875 27.7252 28.9073 28.1714 28.5394 28.5394C28.1714 28.9073 27.7252 29.1875 27.2339 29.3591C27.2454 29.4212 27.25 29.4856 27.25 29.55V31.85C27.25 32.155 27.1288 32.4475 26.9132 32.6632C26.6975 32.8788 26.405 33 26.1 33C25.795 33 25.5025 32.8788 25.2868 32.6632C25.0712 32.4475 24.95 32.155 24.95 31.85V29.55H22.65ZM19.2 18.05C18.895 18.05 18.6025 18.1712 18.3868 18.3868C18.1712 18.6025 18.05 18.895 18.05 19.2V23.8C18.05 24.105 18.1712 24.3975 18.3868 24.6132C18.6025 24.8288 18.895 24.95 19.2 24.95H23.8C24.105 24.95 24.3975 24.8288 24.6132 24.6132C24.8288 24.3975 24.95 24.105 24.95 23.8V19.2C24.95 18.895 24.8288 18.6025 24.6132 18.3868C24.3975 18.1712 24.105 18.05 23.8 18.05H19.2Z" fill="white"/>
</svg>
