<svg width="86" height="24" viewBox="0 0 86 24" fill="none" xmlns="http://www.w3.org/2000/svg">
<path d="M6.71417 15.2931V17.6253H19.485V23.872H0V0.559944H19.485V6.80664H6.71417V9.04641H19.485V15.2931H6.71417Z" fill="#E61773"/>
<path d="M41.1379 8.769L36.1395 23.8772H29.0503L37.7782 0.559944H44.4924L53.2203 23.8772H46.1311L41.1379 8.769Z" fill="#E61773"/>
<path d="M65.1024 3.50349C67.522 1.16612 70.3987 0 73.7327 0C77.1283 0 80.0205 1.16612 82.4143 3.50349C84.8031 5.84086 86 8.63544 86 11.8923C86 15.2109 84.8031 18.0363 82.4143 20.3737C80.0256 22.711 77.1283 23.8772 73.7327 23.8772C70.3987 23.8772 67.522 22.711 65.0972 20.3737C62.6777 18.0414 61.4653 15.2109 61.4653 11.8923C61.4705 8.63544 62.6777 5.84086 65.1024 3.50349ZM69.8336 7.85974C68.7343 8.93339 68.1846 10.2947 68.1846 11.9386C68.1846 13.5208 68.7343 14.8616 69.8336 15.9712C70.933 17.0757 72.2481 17.6305 73.7789 17.6305C75.3098 17.6305 76.6095 17.0757 77.678 15.9712C78.7465 14.8667 79.2859 13.5208 79.2859 11.9386C79.2859 10.2947 78.7516 8.93852 77.678 7.85974C76.6095 6.78609 75.3098 6.24669 73.7789 6.24669C72.2481 6.24669 70.933 6.78609 69.8336 7.85974Z" fill="#E61773"/>
<path d="M59.6673 17.4455V23.8772H53.2202V0.559944H59.6673V12.6115" fill="#E61773"/>
<path d="M27.6638 17.4455V23.8772H21.2168V0.559944H27.6638V12.6115" fill="#E61773"/>
<path d="M33.1091 0.559944L21.2168 9.63203V0.559944H33.1091Z" fill="#E61773"/>
</svg>
