<svg width="202" height="178" viewBox="0 0 202 178" fill="none" xmlns="http://www.w3.org/2000/svg">
<mask id="path-1-inside-1" fill="white">
<path fill-rule="evenodd" clip-rule="evenodd" d="M8 0C5.23858 0 3 2.23857 3 5V68C3 70.7614 5.23857 73 8 73H183.264L186.053 81.2119C186.36 82.1165 187.64 82.1165 187.947 81.2119L190.736 73H194C196.761 73 199 70.7614 199 68V5C199 2.23858 196.761 0 194 0H8Z"/>
</mask>
<path d="M183.264 73L184.211 72.6784L183.981 72H183.264V73ZM186.053 81.2119L187 80.8903L186.053 81.2119ZM187.947 81.2119L187 80.8903L187.947 81.2119ZM190.736 73V72H190.019L189.789 72.6784L190.736 73ZM4 5C4 2.79086 5.79086 1 8 1V-1C4.68629 -1 2 1.68629 2 5H4ZM4 68V5H2V68H4ZM8 72C5.79086 72 4 70.2091 4 68H2C2 71.3137 4.68629 74 8 74V72ZM183.264 72H8V74H183.264V72ZM187 80.8903L184.211 72.6784L182.317 73.3216L185.106 81.5335L187 80.8903ZM187 80.8903L185.106 81.5335C185.721 83.3426 188.279 83.3426 188.894 81.5335L187 80.8903ZM189.789 72.6784L187 80.8903L188.894 81.5335L191.683 73.3216L189.789 72.6784ZM194 72H190.736V74H194V72ZM198 68C198 70.2091 196.209 72 194 72V74C197.314 74 200 71.3137 200 68H198ZM198 5V68H200V5H198ZM194 1C196.209 1 198 2.79086 198 5H200C200 1.68629 197.314 -1 194 -1V1ZM8 1H194V-1H8V1Z" fill="#C4C4C4" mask="url(#path-1-inside-1)"/>
<path d="M72.7333 19.478V32.064H73.8813V19.478H72.7333ZM67.2593 20.444C65.3973 20.444 64.0673 22.152 64.0673 24.826C64.0673 27.5 65.3973 29.208 67.2593 29.208C69.1213 29.208 70.4513 27.5 70.4513 24.826C70.4513 22.152 69.1213 20.444 67.2593 20.444ZM67.2593 21.48C68.4773 21.48 69.3453 22.796 69.3453 24.826C69.3453 26.87 68.4773 28.186 67.2593 28.186C66.0273 28.186 65.1593 26.87 65.1593 24.826C65.1593 22.796 66.0273 21.48 67.2593 21.48ZM82.1542 31.14C80.1802 31.14 79.0182 30.65 79.0182 29.796C79.0182 28.942 80.1802 28.452 82.1542 28.452C84.1142 28.452 85.2902 28.942 85.2902 29.796C85.2902 30.65 84.1142 31.14 82.1542 31.14ZM82.1542 27.556C79.4662 27.556 77.8562 28.354 77.8562 29.796C77.8562 31.238 79.4662 32.022 82.1542 32.022C84.8562 32.022 86.4522 31.238 86.4522 29.796C86.4522 28.354 84.8562 27.556 82.1542 27.556ZM80.4182 24.224C80.9362 24.308 81.5242 24.364 82.1542 24.364C82.7982 24.364 83.3862 24.308 83.9042 24.224V25.694H80.4182V24.224ZM78.9202 22.04C78.9202 21.13 80.1522 20.598 82.1542 20.598C84.1562 20.598 85.3882 21.13 85.3882 22.04C85.3882 22.936 84.1562 23.482 82.1542 23.482C80.1522 23.482 78.9202 22.936 78.9202 22.04ZM85.0382 25.694V23.916C86.0042 23.524 86.5642 22.88 86.5642 22.04C86.5642 20.57 84.8842 19.702 82.1542 19.702C79.4382 19.702 77.7442 20.57 77.7442 22.04C77.7442 22.894 78.2902 23.524 79.2842 23.93V25.694H76.4702V26.618H87.8382V25.694H85.0382ZM92.4711 28.172C91.4911 28.172 90.8051 27.374 90.8051 26.254C90.8051 25.162 91.4911 24.364 92.4711 24.364C93.4371 24.364 94.1371 25.162 94.1371 26.254C94.1371 27.374 93.4371 28.172 92.4711 28.172ZM92.4711 23.398C90.9171 23.398 89.7831 24.574 89.7831 26.254C89.7831 27.962 90.9171 29.124 92.4711 29.124C94.0251 29.124 95.1591 27.962 95.1591 26.254C95.1591 24.574 94.0251 23.398 92.4711 23.398ZM93.0311 19.842H91.8971V21.62H89.3491V22.558H95.5791V21.62H93.0311V19.842ZM98.8971 19.464V24.77H97.2871V19.758H96.2091V31.42H97.2871V25.708H98.8971V32.022H100.003V19.464H98.8971ZM103.362 25.582C105.308 25.246 107.156 24.196 107.926 22.712C108.682 24.196 110.544 25.246 112.49 25.582L112.938 24.672C110.726 24.35 108.556 22.908 108.556 21.256V21.186H112.49V20.262H103.32V21.186H107.282V21.256C107.282 22.908 105.112 24.35 102.928 24.672L103.362 25.582ZM113.596 26.632H102.256V27.57H107.324V32.036H108.472V27.57H113.61L113.596 26.632ZM119.517 20.57H118.369V22.81C118.369 25.148 116.941 27.556 115.121 28.48L115.821 29.39C117.235 28.62 118.397 27.052 118.943 25.19C119.503 26.968 120.665 28.48 122.079 29.208L122.765 28.284C120.945 27.416 119.517 25.12 119.517 22.81V20.57ZM124.305 19.478V22.208H121.589V23.16H124.305V25.344H121.589V26.296H124.305V32.064H125.467V19.478H124.305ZM132.396 20.556H131.248V22.81C131.248 25.134 129.82 27.556 128 28.466L128.7 29.376C130.114 28.62 131.276 27.038 131.822 25.176C132.396 26.94 133.544 28.438 134.972 29.152L135.644 28.242C133.824 27.374 132.396 25.092 132.396 22.81V20.556ZM137.198 19.478V23.734H134.286V24.672H137.198V32.05H138.346V19.478H137.198ZM48.7947 41.942H52.3367V41.004H47.6607V48.942H48.4867C50.3627 48.942 51.6367 48.886 53.1347 48.564L53.0367 47.612C51.6647 47.906 50.4747 47.976 48.7947 47.99V41.942ZM56.7747 39.478V44.518H54.9967V39.758H53.9187V51.406H54.9967V45.456H56.7747V52.036H57.8807V39.478H56.7747ZM67.3576 44.98C65.7196 45.302 64.2916 45.4 61.8136 45.4V41.494H66.2236V40.57H60.6656V46.338H61.6456C64.2776 46.338 65.7616 46.254 67.4836 45.904L67.3576 44.98ZM63.1716 47.654H62.0236V51.756H70.3956V50.818H63.1716V47.654ZM69.8356 43.202V39.478H68.6876V48.564H69.8356V44.154H71.6976V43.202H69.8356ZM77.0305 48.284C75.8685 48.284 75.0285 47.472 75.0285 46.338C75.0285 45.218 75.8685 44.406 77.0305 44.406C78.1925 44.406 79.0465 45.218 79.0465 46.338C79.0465 47.472 78.1925 48.284 77.0305 48.284ZM77.0305 43.454C75.2385 43.454 73.9365 44.644 73.9365 46.338C73.9365 48.06 75.2385 49.236 77.0305 49.236C78.8505 49.236 80.1385 48.06 80.1385 46.338C80.1385 44.644 78.8505 43.454 77.0305 43.454ZM77.5905 39.604H76.4425V41.508H73.2505V42.446H80.7825V41.508H77.5905V39.604ZM82.0985 39.478V52.036H83.2465V39.478H82.0985ZM89.5263 40.276V41.214H94.0903C93.8663 43.342 92.0323 44.994 88.9663 45.82L89.4143 46.73C93.1103 45.722 95.3223 43.468 95.3223 40.276H89.5263ZM91.9483 48.116H97.5903V50.93H91.9483V48.116ZM90.8143 51.854H98.7243V47.192H90.8143V51.854ZM100.586 42.544H98.7243V39.464H97.5763V46.604H98.7243V43.496H100.586V42.544ZM106.073 40.57H104.939V42.824C104.939 45.106 103.511 47.514 101.705 48.438L102.391 49.362C103.805 48.606 104.967 47.038 105.513 45.204C106.087 46.926 107.221 48.396 108.551 49.11L109.265 48.2C107.501 47.318 106.073 45.036 106.073 42.824V40.57ZM113.591 44.574H111.519V39.492H110.371V52.036H111.519V45.526H113.591V44.574ZM122.186 40.766H119.05V39.352H117.902V40.766H114.78V41.69H122.186V40.766ZM116.572 44.476C116.572 43.664 117.328 43.146 118.476 43.146C119.624 43.146 120.394 43.664 120.394 44.476C120.394 45.302 119.624 45.806 118.476 45.806C117.328 45.806 116.572 45.302 116.572 44.476ZM121.486 44.476C121.486 43.146 120.268 42.292 118.476 42.292C116.684 42.292 115.48 43.146 115.48 44.476C115.48 45.82 116.684 46.674 118.476 46.674C120.268 46.674 121.486 45.82 121.486 44.476ZM123.348 50.944H117.72V49.558H123.348V50.944ZM123.348 48.662H117.72V47.332H116.586V51.868H124.482V47.332H123.348V48.662ZM126.344 42.67H124.482V39.478H123.334V46.772H124.482V43.636H126.344V42.67ZM129.549 40.696H128.401V48.788H129.437C131.439 48.788 133.413 48.648 135.597 48.2L135.471 47.22C133.385 47.64 131.439 47.808 129.549 47.808V40.696ZM136.759 39.478V52.022H137.907V39.478H136.759ZM142.176 41.634H146.866V40.682H141.028V48.928H142.022C144.388 48.928 146.04 48.844 147.958 48.48L147.832 47.528C146.012 47.85 144.402 47.948 142.176 47.948V41.634ZM152.228 44.434H150.156V39.478H149.008V52.064H150.156V45.386H152.228V44.434ZM154.579 51.182C155.083 51.182 155.503 50.79 155.503 50.216C155.503 49.628 155.083 49.222 154.579 49.222C154.075 49.222 153.655 49.628 153.655 50.216C153.655 50.79 154.075 51.182 154.579 51.182Z" fill="#4F4F4F"/>
<path d="M122.41 162.74H107.29C106.71 162.74 106.25 162.27 106.25 161.7C106.25 161.12 106.72 160.66 107.29 160.66H122.41C122.99 160.66 123.45 161.13 123.45 161.7C123.46 162.27 122.99 162.74 122.41 162.74Z" fill="#DAEFF7"/>
<path d="M130.04 162.74H126.46C125.88 162.74 125.42 162.27 125.42 161.7C125.42 161.12 125.89 160.66 126.46 160.66H130.04C130.62 160.66 131.08 161.13 131.08 161.7C131.09 162.27 130.62 162.74 130.04 162.74Z" fill="#DAEFF7"/>
<path d="M127.55 127.97H117.65C117.22 127.97 116.87 127.62 116.87 127.19C116.87 126.76 117.22 126.41 117.65 126.41H127.55C127.98 126.41 128.33 126.76 128.33 127.19C128.33 127.62 127.98 127.97 127.55 127.97Z" fill="#DAEFF7"/>
<path d="M132.63 127.97H130.42C129.99 127.97 129.64 127.62 129.64 127.19C129.64 126.76 129.99 126.41 130.42 126.41H132.63C133.06 126.41 133.41 126.76 133.41 127.19C133.41 127.62 133.06 127.97 132.63 127.97Z" fill="#DAEFF7"/>
<path d="M114.36 177.36H25.7002C25.1302 177.36 24.6602 176.9 24.6602 176.32C24.6602 175.75 25.1202 175.28 25.7002 175.28H114.36C114.93 175.28 115.4 175.74 115.4 176.32C115.4 176.9 114.93 177.36 114.36 177.36Z" fill="#6E6E6D"/>
<path d="M135.58 177.36H118.77C118.2 177.36 117.73 176.9 117.73 176.32C117.73 175.75 118.19 175.28 118.77 175.28H135.58C136.15 175.28 136.62 175.74 136.62 176.32C136.61 176.9 136.15 177.36 135.58 177.36Z" fill="#6E6E6D"/>
<path d="M139.66 177.36H138.52C137.95 177.36 137.48 176.9 137.48 176.32C137.48 175.75 137.94 175.28 138.52 175.28H139.66C140.23 175.28 140.7 175.74 140.7 176.32C140.69 176.9 140.23 177.36 139.66 177.36Z" fill="#6E6E6D"/>
<path d="M45.9902 168.94V111.05" stroke="#CFCECE" stroke-width="0.1" stroke-linejoin="round"/>
<path d="M119.81 153.38V154.97H118.67H104.09V153.38H118.61H119.81Z" fill="#CDCCCC"/>
<path d="M104.09 154.97H118.67C118.67 162.65 112.39 168.94 104.7 168.94H104.09C104.09 164.3 100.32 160.54 95.6898 160.54C91.0499 160.54 87.2898 164.3 87.2898 168.94H79.8398V141.32H111.96H114.15H118.22L118.62 153.38H104.1V154.97H104.09ZM98.4799 148.45V146.99H92.8798V148.45H98.4799Z" fill="#FDFDFD"/>
<path d="M117.37 116.53L118.21 141.33H114.14V111.05H116.25C116.97 112.73 117.37 114.59 117.37 116.53Z" fill="#A7DAEC"/>
<path d="M116.25 111.05H114.14H111.95H79.8301H59.9801H59.8301H39.9801H3.56006C5.70006 106.06 10.6601 102.56 16.4001 102.56H22.1401H27.7401H92.8801H98.4801H103.4C109.14 102.56 114.11 106.07 116.25 111.05Z" fill="#E61873"/>
<path d="M114.14 111.05H111.95V141.32H114.14V111.05Z" fill="#CDCCCC"/>
<path d="M111.95 111.05H79.8301V141.32H111.95V111.05Z" fill="#A7DAEC"/>
<path d="M95.6798 160.54C100.32 160.54 104.08 164.3 104.08 168.94C104.08 173.58 100.31 177.34 95.6798 177.34C91.0398 177.34 87.2798 173.57 87.2798 168.94C87.2798 164.3 91.0398 160.54 95.6798 160.54ZM101.01 168.94C101.01 166 98.6298 163.61 95.6798 163.61C92.7298 163.61 90.3498 166 90.3498 168.94C90.3498 171.88 92.7398 174.27 95.6798 174.27C98.6198 174.27 101.01 171.88 101.01 168.94Z" fill="#B5B5B5"/>
<path d="M95.6801 163.61C98.6201 163.61 101.01 166 101.01 168.94C101.01 171.88 98.6301 174.27 95.6801 174.27C92.7301 174.27 90.3501 171.89 90.3501 168.94C90.3501 166 92.7401 163.61 95.6801 163.61Z" fill="#424242"/>
<path d="M98.4799 146.98H92.8799V148.44H98.4799V146.98Z" fill="#CDCCCC"/>
<path d="M98.4799 100H92.8799V102.56H98.4799V100Z" fill="#424242"/>
<path d="M79.83 141.32H59.98V168.94H79.83V141.32Z" fill="#FAFAFA"/>
<path d="M79.83 111.05V141.32H59.98V111.05H79.83ZM77.76 140V112.83H62.04V140H77.76Z" fill="#FAFAFA"/>
<path d="M77.76 112.83H62.04V140H77.76V112.83Z" fill="#A7DAEC"/>
<path d="M59.83 141.32H39.98V168.94H59.83V141.32Z" fill="#FAFAFA"/>
<path d="M59.83 111.05V141.32H39.98V111.05H59.83ZM57.77 140V112.83H42.04V140H57.77Z" fill="#FAFAFA"/>
<path d="M57.76 112.83H42.04V140H57.76V112.83Z" fill="#A7DAEC"/>
<path d="M39.9801 141.32V168.94H33.2401C33.2401 164.3 29.4701 160.54 24.8401 160.54C20.2001 160.54 16.4301 164.3 16.4301 168.94H15.1101C7.43014 168.94 1.14014 162.66 1.14014 154.97H15.7301V153.38H1.19014L1.59014 141.32H39.9801ZM27.6301 148.45V146.99H22.0301V148.45H27.6301Z" fill="#FDFDFD"/>
<path d="M39.9801 111.05V141.32H1.6001L2.4401 116.52C2.4401 114.58 2.8401 112.73 3.5601 111.05H39.9801Z" fill="#A7DAEC"/>
<path d="M24.8299 160.54C29.4699 160.54 33.2299 164.3 33.2299 168.94C33.2299 173.58 29.4599 177.34 24.8299 177.34C20.1899 177.34 16.4199 173.57 16.4199 168.94C16.4199 164.3 20.1899 160.54 24.8299 160.54ZM30.1599 168.94C30.1599 166 27.7799 163.61 24.8299 163.61C21.8799 163.61 19.4999 166 19.4999 168.94C19.4999 171.88 21.8799 174.27 24.8299 174.27C27.7799 174.27 30.1599 171.88 30.1599 168.94Z" fill="#B5B5B5"/>
<path d="M24.83 163.61C27.77 163.61 30.16 166 30.16 168.94C30.16 171.88 27.78 174.27 24.83 174.27C21.88 174.27 19.5 171.89 19.5 168.94C19.5 166 21.88 163.61 24.83 163.61Z" fill="#424242"/>
<path d="M27.7401 100H22.1401V102.56H27.7401V100Z" fill="#424242"/>
<path d="M27.6298 146.98H22.0298V148.44H27.6298V146.98Z" fill="#CDCCCC"/>
<path d="M15.73 153.38V154.97H1.14H0V153.38H1.19H15.73Z" fill="#CDCCCC"/>
<path d="M39.9801 111.05H24.7101L1.8501 133.91L1.6001 141.32H11.0101L39.9801 112.36V111.05Z" fill="#DAEFF7"/>
<path d="M7.85992 111.05H5.66992V141.32H7.85992V111.05Z" fill="#CDCCCC"/>
<path d="M79.8301 141.32H84.7101L115.94 111.05H100.56L79.8301 131.15V141.32Z" fill="#DAEFF7"/>
<path d="M114.14 111.05H111.95V141.32H114.14V111.05Z" fill="#CDCCCC"/>
<path opacity="0.6" d="M40.1198 141.32H39.8198V168.94H40.1198V141.32Z" fill="#CFCECE"/>
<path opacity="0.6" d="M79.9802 141.32H79.6802V168.94H79.9802V141.32Z" fill="#CFCECE"/>
<path opacity="0.6" d="M60.1499 111.05H59.6499V168.94H60.1499V111.05Z" fill="#CFCECE"/>
<path d="M201.31 109.05H172.47V174.65H201.31V109.05Z" fill="#424242"/>
<path d="M198.26 117.74H175.51V149H198.26V117.74Z" fill="#CDCCCC"/>
<path d="M198.26 118.22L175.51 140.97V148.99H175.79L198.26 126.52V118.22Z" fill="#E2E2E1"/>
<path d="M198.26 133.58L182.85 148.99H189.49L198.26 140.22V133.58Z" fill="#E2E2E1"/>
<path d="M138.46 141.52H123.09C122.58 141.52 122.17 141.11 122.17 140.6C122.17 140.09 122.58 139.68 123.09 139.68H138.46C138.97 139.68 139.38 140.09 139.38 140.6C139.38 141.1 138.97 141.52 138.46 141.52Z" fill="#DAEFF7"/>
<path d="M146.09 141.52H142.27C141.76 141.52 141.35 141.11 141.35 140.6C141.35 140.09 141.76 139.68 142.27 139.68H146.09C146.6 139.68 147.01 140.09 147.01 140.6C147.01 141.1 146.6 141.52 146.09 141.52Z" fill="#DAEFF7"/>
<path d="M180.78 130.69C181.901 130.69 182.81 129.781 182.81 128.66C182.81 127.539 181.901 126.63 180.78 126.63C179.659 126.63 178.75 127.539 178.75 128.66C178.75 129.781 179.659 130.69 180.78 130.69Z" fill="#0B0C0C"/>
<path d="M192.08 130.69C193.201 130.69 194.11 129.781 194.11 128.66C194.11 127.539 193.201 126.63 192.08 126.63C190.959 126.63 190.05 127.539 190.05 128.66C190.05 129.781 190.959 130.69 192.08 130.69Z" fill="#0B0C0C"/>
<path d="M179.62 135.89C179.86 135.89 180.1 136 180.26 136.21C180.31 136.28 182.68 139.29 186.53 139.29C190.44 139.29 192.82 136.24 192.84 136.21C193.11 135.86 193.61 135.79 193.97 136.06C194.32 136.33 194.39 136.83 194.13 137.18C194.02 137.33 191.27 140.9 186.58 140.9C181.85 140.9 179.1 137.33 178.99 137.18C178.72 136.83 178.79 136.32 179.15 136.05C179.28 135.94 179.45 135.89 179.62 135.89Z" fill="#0B0C0C"/>
<mask id="path-51-outside-2" maskUnits="userSpaceOnUse" x="180" y="155" width="15" height="14" fill="black">
<rect fill="white" x="180" y="155" width="15" height="14"/>
<path fill-rule="evenodd" clip-rule="evenodd" d="M187.557 156.005C184.492 155.86 183.712 158.789 183.712 158.789C183.712 158.789 184.886 158.678 185.472 159.108H185.576C186.266 158.464 187.232 158.568 187.232 158.568C187.232 158.568 187.246 158.685 187.198 158.706C186.025 158.886 185.541 159.8 185.541 159.8C185.541 159.8 185.5 159.835 185.452 159.814C185.155 159.177 184.085 159.018 184.085 159.018C184.085 159.018 183.726 159.039 183.464 159.073C183.153 159.073 181.359 159.565 181.014 162.037C181 162.522 181 162.889 181 162.889C181 162.889 181.297 164.877 182.905 165.971C184.023 165.07 184.762 164.87 185.576 164.78C185.59 164.606 185.576 162.079 185.576 162.079L186.356 161.649L186.377 164.731L186.873 164.745L186.908 161.469L187.633 160.985V164.89L188.164 165.015L188.199 160.756L188.944 160.25L188.965 165.354C188.965 165.354 189.683 165.839 190.324 165.86C190.669 165.867 191.132 165.811 191.132 165.811C191.132 165.811 193.258 165.659 193.755 162.993C193.755 162.928 193.757 162.849 193.761 162.753C193.768 162.543 193.778 162.254 193.768 161.85C193.513 159.225 190.939 158.512 190.939 158.512C190.939 158.512 190.283 156.13 187.557 156.005ZM183.264 166.49C183.264 166.49 183.974 165.036 186.245 165.022C187.443 165.015 188.117 165.402 188.733 165.757C189.282 166.073 189.786 166.363 190.573 166.324C191.815 166.255 192.312 165.825 192.312 165.825C192.312 165.825 191.463 167.176 189.772 167.189C188.891 167.197 188.362 166.876 187.832 166.556C187.345 166.261 186.857 165.965 186.093 165.922C184.499 165.832 183.264 166.49 183.264 166.49ZM183.712 166.65C183.712 166.65 184.057 166.255 185.314 166.248C186.287 166.241 186.928 166.587 187.568 166.932C188.176 167.261 188.784 167.589 189.676 167.612C190.172 167.612 190.421 167.598 190.421 167.598C190.421 167.598 189.441 168 187.888 168C185.265 168 183.712 166.65 183.712 166.65Z"/>
</mask>
<path fill-rule="evenodd" clip-rule="evenodd" d="M187.557 156.005C184.492 155.86 183.712 158.789 183.712 158.789C183.712 158.789 184.886 158.678 185.472 159.108H185.576C186.266 158.464 187.232 158.568 187.232 158.568C187.232 158.568 187.246 158.685 187.198 158.706C186.025 158.886 185.541 159.8 185.541 159.8C185.541 159.8 185.5 159.835 185.452 159.814C185.155 159.177 184.085 159.018 184.085 159.018C184.085 159.018 183.726 159.039 183.464 159.073C183.153 159.073 181.359 159.565 181.014 162.037C181 162.522 181 162.889 181 162.889C181 162.889 181.297 164.877 182.905 165.971C184.023 165.07 184.762 164.87 185.576 164.78C185.59 164.606 185.576 162.079 185.576 162.079L186.356 161.649L186.377 164.731L186.873 164.745L186.908 161.469L187.633 160.985V164.89L188.164 165.015L188.199 160.756L188.944 160.25L188.965 165.354C188.965 165.354 189.683 165.839 190.324 165.86C190.669 165.867 191.132 165.811 191.132 165.811C191.132 165.811 193.258 165.659 193.755 162.993C193.755 162.928 193.757 162.849 193.761 162.753C193.768 162.543 193.778 162.254 193.768 161.85C193.513 159.225 190.939 158.512 190.939 158.512C190.939 158.512 190.283 156.13 187.557 156.005ZM183.264 166.49C183.264 166.49 183.974 165.036 186.245 165.022C187.443 165.015 188.117 165.402 188.733 165.757C189.282 166.073 189.786 166.363 190.573 166.324C191.815 166.255 192.312 165.825 192.312 165.825C192.312 165.825 191.463 167.176 189.772 167.189C188.891 167.197 188.362 166.876 187.832 166.556C187.345 166.261 186.857 165.965 186.093 165.922C184.499 165.832 183.264 166.49 183.264 166.49ZM183.712 166.65C183.712 166.65 184.057 166.255 185.314 166.248C186.287 166.241 186.928 166.587 187.568 166.932C188.176 167.261 188.784 167.589 189.676 167.612C190.172 167.612 190.421 167.598 190.421 167.598C190.421 167.598 189.441 168 187.888 168C185.265 168 183.712 166.65 183.712 166.65Z" fill="#12A64E"/>
<path d="M183.712 158.789L183.229 158.661C183.187 158.819 183.225 158.987 183.331 159.112C183.436 159.237 183.597 159.302 183.759 159.287L183.712 158.789ZM187.557 156.005L187.533 156.505L187.534 156.505L187.557 156.005ZM185.472 159.108L185.177 159.511C185.263 159.574 185.366 159.608 185.472 159.608V159.108ZM185.576 159.108V159.608C185.703 159.608 185.824 159.56 185.917 159.473L185.576 159.108ZM187.232 158.568L187.729 158.509C187.702 158.278 187.518 158.095 187.286 158.07L187.232 158.568ZM187.198 158.706L187.274 159.2C187.316 159.194 187.356 159.182 187.395 159.165L187.198 158.706ZM185.541 159.8L185.862 160.184C185.912 160.142 185.953 160.091 185.983 160.034L185.541 159.8ZM185.452 159.814L184.998 160.025C185.05 160.137 185.141 160.225 185.254 160.273L185.452 159.814ZM184.085 159.018L184.159 158.523C184.125 158.518 184.09 158.517 184.056 158.519L184.085 159.018ZM183.464 159.073V159.573C183.486 159.573 183.508 159.572 183.529 159.569L183.464 159.073ZM181.014 162.037L180.519 161.968C180.516 161.986 180.515 162.005 180.514 162.023L181.014 162.037ZM181 162.889H180.5C180.5 162.914 180.502 162.938 180.505 162.963L181 162.889ZM182.905 165.971L182.624 166.384C182.806 166.508 183.047 166.498 183.218 166.36L182.905 165.971ZM185.576 164.78L185.631 165.277C185.869 165.25 186.055 165.058 186.074 164.819L185.576 164.78ZM185.576 162.079L185.335 161.641C185.174 161.729 185.075 161.898 185.076 162.081L185.576 162.079ZM186.356 161.649L186.856 161.646C186.855 161.47 186.761 161.307 186.609 161.218C186.457 161.129 186.269 161.126 186.115 161.211L186.356 161.649ZM186.377 164.731L185.877 164.734C185.878 165.004 186.093 165.223 186.363 165.231L186.377 164.731ZM186.873 164.745L186.86 165.245C186.994 165.248 187.124 165.198 187.22 165.105C187.317 165.012 187.372 164.884 187.373 164.75L186.873 164.745ZM186.908 161.469L186.63 161.054C186.493 161.145 186.41 161.299 186.408 161.464L186.908 161.469ZM187.633 160.985H188.133C188.133 160.8 188.031 160.63 187.868 160.543C187.705 160.457 187.508 160.466 187.355 160.569L187.633 160.985ZM187.633 164.89H187.133C187.133 165.123 187.292 165.324 187.518 165.377L187.633 164.89ZM188.164 165.015L188.05 165.502C188.198 165.537 188.354 165.502 188.473 165.408C188.593 165.314 188.663 165.171 188.664 165.019L188.164 165.015ZM188.199 160.756L187.918 160.342C187.782 160.434 187.7 160.588 187.699 160.752L188.199 160.756ZM188.944 160.25L189.444 160.248C189.443 160.064 189.341 159.894 189.177 159.808C189.014 159.722 188.816 159.733 188.663 159.837L188.944 160.25ZM188.965 165.354L188.465 165.356C188.465 165.522 188.548 165.676 188.685 165.769L188.965 165.354ZM190.324 165.86L190.308 166.36L190.314 166.36L190.324 165.86ZM191.132 165.811L191.096 165.313C191.088 165.313 191.08 165.314 191.072 165.315L191.132 165.811ZM193.755 162.993L194.246 163.084C194.252 163.054 194.255 163.024 194.255 162.993H193.755ZM193.761 162.753L193.261 162.735L193.761 162.753ZM193.768 161.85L194.268 161.838C194.268 161.826 194.267 161.814 194.266 161.802L193.768 161.85ZM190.939 158.512L190.457 158.645C190.503 158.814 190.636 158.947 190.805 158.994L190.939 158.512ZM186.245 165.022L186.248 165.522H186.248L186.245 165.022ZM183.264 166.49L182.814 166.27C182.719 166.465 182.76 166.699 182.916 166.85C183.072 167 183.307 167.033 183.499 166.931L183.264 166.49ZM188.733 165.757L188.983 165.324H188.983L188.733 165.757ZM190.573 166.324L190.597 166.823L190.6 166.823L190.573 166.324ZM192.312 165.825L192.735 166.091C192.867 165.882 192.826 165.607 192.638 165.446C192.45 165.285 192.172 165.285 191.985 165.447L192.312 165.825ZM189.772 167.189L189.776 167.689L189.772 167.189ZM187.832 166.556L187.573 166.983L187.832 166.556ZM186.093 165.922L186.122 165.423L186.093 165.922ZM185.314 166.248L185.316 166.748L185.317 166.748L185.314 166.248ZM183.712 166.65L183.336 166.321C183.249 166.421 183.204 166.551 183.214 166.684C183.223 166.816 183.284 166.94 183.384 167.027L183.712 166.65ZM187.568 166.932L187.805 166.492L187.568 166.932ZM189.676 167.612L189.662 168.112H189.676V167.612ZM190.421 167.598L190.611 168.061C190.836 167.969 190.962 167.726 190.909 167.488C190.855 167.25 190.637 167.086 190.393 167.099L190.421 167.598ZM183.712 158.789C184.196 158.918 184.196 158.918 184.195 158.918C184.195 158.918 184.195 158.919 184.195 158.919C184.195 158.919 184.195 158.919 184.195 158.919C184.195 158.919 184.195 158.92 184.195 158.919C184.195 158.919 184.195 158.919 184.196 158.917C184.197 158.914 184.198 158.909 184.201 158.901C184.205 158.885 184.213 158.859 184.225 158.825C184.248 158.758 184.285 158.658 184.339 158.537C184.447 158.293 184.619 157.972 184.874 157.657C185.374 157.039 186.192 156.441 187.533 156.505L187.58 155.506C185.857 155.424 184.753 156.218 184.097 157.028C183.773 157.428 183.559 157.83 183.425 158.131C183.358 158.282 183.31 158.41 183.279 158.502C183.263 158.548 183.251 158.585 183.243 158.612C183.239 158.625 183.236 158.636 183.234 158.644C183.233 158.649 183.232 158.652 183.231 158.655C183.23 158.656 183.23 158.657 183.23 158.658C183.23 158.659 183.23 158.659 183.23 158.659C183.229 158.66 183.229 158.66 183.229 158.66C183.229 158.66 183.229 158.661 183.712 158.789ZM185.768 158.704C185.353 158.401 184.79 158.316 184.408 158.289C184.203 158.274 184.021 158.275 183.889 158.279C183.823 158.281 183.769 158.284 183.731 158.286C183.712 158.288 183.697 158.289 183.685 158.29C183.68 158.29 183.675 158.291 183.672 158.291C183.67 158.291 183.669 158.291 183.668 158.291C183.667 158.291 183.667 158.291 183.666 158.291C183.666 158.291 183.666 158.291 183.666 158.291C183.666 158.291 183.666 158.291 183.666 158.291C183.666 158.291 183.665 158.291 183.712 158.789C183.759 159.287 183.759 159.287 183.759 159.287C183.759 159.287 183.759 159.287 183.759 159.287C183.759 159.287 183.759 159.287 183.759 159.287C183.759 159.287 183.759 159.287 183.759 159.287C183.759 159.287 183.759 159.287 183.76 159.287C183.761 159.287 183.763 159.287 183.766 159.286C183.772 159.286 183.783 159.285 183.797 159.284C183.825 159.282 183.867 159.28 183.92 159.278C184.027 159.275 184.175 159.275 184.337 159.286C184.688 159.311 185.005 159.385 185.177 159.511L185.768 158.704ZM185.576 158.608H185.472V159.608H185.576V158.608ZM187.232 158.568C187.286 158.07 187.286 158.07 187.285 158.07C187.285 158.07 187.285 158.07 187.285 158.07C187.285 158.07 187.284 158.07 187.284 158.07C187.284 158.07 187.283 158.07 187.282 158.07C187.281 158.07 187.279 158.07 187.277 158.07C187.273 158.069 187.269 158.069 187.263 158.068C187.251 158.067 187.236 158.066 187.218 158.065C187.181 158.063 187.131 158.061 187.069 158.061C186.946 158.062 186.776 158.07 186.581 158.103C186.194 158.167 185.676 158.331 185.235 158.742L185.917 159.473C186.166 159.241 186.476 159.134 186.745 159.089C186.877 159.067 186.992 159.062 187.072 159.061C187.112 159.061 187.142 159.063 187.161 159.064C187.17 159.064 187.177 159.065 187.18 159.065C187.181 159.065 187.182 159.065 187.182 159.065C187.182 159.065 187.182 159.065 187.181 159.065C187.181 159.065 187.181 159.065 187.18 159.065C187.18 159.065 187.18 159.065 187.18 159.065C187.179 159.065 187.179 159.065 187.179 159.065C187.179 159.065 187.179 159.065 187.232 158.568ZM187.395 159.165C187.581 159.086 187.66 158.933 187.689 158.859C187.72 158.78 187.728 158.709 187.732 158.669C187.735 158.625 187.734 158.587 187.733 158.563C187.733 158.55 187.732 158.538 187.731 158.529C187.731 158.525 187.73 158.521 187.73 158.518C187.73 158.516 187.73 158.514 187.729 158.513C187.729 158.512 187.729 158.512 187.729 158.511C187.729 158.511 187.729 158.511 187.729 158.51C187.729 158.51 187.729 158.51 187.729 158.51C187.729 158.51 187.729 158.51 187.729 158.51C187.729 158.509 187.729 158.509 187.232 158.568C186.736 158.626 186.736 158.626 186.736 158.626C186.736 158.626 186.736 158.625 186.736 158.625C186.736 158.625 186.736 158.625 186.736 158.625C186.736 158.625 186.736 158.624 186.736 158.624C186.736 158.624 186.735 158.623 186.735 158.623C186.735 158.622 186.735 158.621 186.735 158.62C186.735 158.619 186.735 158.617 186.735 158.616C186.735 158.614 186.734 158.612 186.734 158.61C186.734 158.608 186.734 158.601 186.735 158.589C186.735 158.582 186.738 158.543 186.758 158.492C186.777 158.446 186.839 158.316 187 158.247L187.395 159.165ZM185.541 159.8C185.983 160.034 185.983 160.034 185.983 160.034C185.983 160.034 185.983 160.035 185.983 160.035C185.983 160.035 185.983 160.035 185.983 160.035C185.982 160.036 185.982 160.036 185.982 160.036C185.982 160.037 185.982 160.038 185.981 160.038C185.981 160.038 185.981 160.038 185.982 160.037C185.983 160.035 185.986 160.029 185.991 160.022C186.001 160.006 186.017 159.98 186.041 159.946C186.089 159.879 186.166 159.785 186.272 159.685C186.483 159.487 186.808 159.272 187.274 159.2L187.122 158.212C186.414 158.321 185.911 158.652 185.587 158.956C185.426 159.107 185.308 159.253 185.229 159.363C185.19 159.418 185.159 159.465 185.138 159.5C185.127 159.517 185.119 159.532 185.112 159.543C185.109 159.549 185.106 159.554 185.104 159.558C185.103 159.56 185.102 159.561 185.101 159.563C185.101 159.564 185.101 159.564 185.1 159.565C185.1 159.565 185.1 159.566 185.1 159.566C185.1 159.566 185.1 159.566 185.1 159.566C185.099 159.566 185.099 159.567 185.541 159.8ZM185.254 160.273C185.431 160.349 185.592 160.319 185.688 160.284C185.736 160.266 185.774 160.245 185.801 160.228C185.815 160.22 185.827 160.211 185.837 160.204C185.842 160.2 185.846 160.197 185.851 160.193C185.853 160.192 185.855 160.19 185.857 160.188C185.858 160.188 185.859 160.187 185.859 160.186C185.86 160.186 185.86 160.185 185.861 160.185C185.861 160.185 185.861 160.185 185.861 160.184C185.862 160.184 185.862 160.184 185.862 160.184C185.862 160.184 185.862 160.184 185.541 159.8C185.221 159.417 185.221 159.417 185.221 159.416C185.221 159.416 185.221 159.416 185.221 159.416C185.222 159.416 185.222 159.416 185.222 159.416C185.222 159.415 185.223 159.415 185.223 159.415C185.224 159.414 185.225 159.413 185.226 159.412C185.228 159.411 185.229 159.41 185.231 159.408C185.235 159.405 185.239 159.402 185.242 159.4C185.25 159.394 185.258 159.388 185.268 159.382C185.285 159.371 185.31 159.358 185.341 159.346C185.405 159.323 185.521 159.3 185.649 159.355L185.254 160.273ZM184.085 159.018C184.011 159.512 184.011 159.512 184.011 159.512C184.011 159.512 184.011 159.512 184.011 159.512C184.011 159.512 184.011 159.512 184.011 159.512C184.01 159.512 184.01 159.512 184.01 159.512C184.01 159.512 184.01 159.512 184.01 159.512C184.011 159.512 184.012 159.512 184.015 159.513C184.02 159.514 184.028 159.515 184.039 159.517C184.062 159.522 184.098 159.529 184.142 159.539C184.23 159.56 184.35 159.594 184.475 159.642C184.751 159.751 184.935 159.889 184.998 160.025L185.905 159.603C185.672 159.102 185.172 158.842 184.84 158.712C184.66 158.641 184.493 158.595 184.372 158.566C184.311 158.552 184.261 158.541 184.224 158.534C184.206 158.531 184.191 158.528 184.18 158.527C184.174 158.526 184.17 158.525 184.166 158.524C184.164 158.524 184.163 158.524 184.162 158.524C184.161 158.524 184.16 158.523 184.16 158.523C184.16 158.523 184.16 158.523 184.159 158.523C184.159 158.523 184.159 158.523 184.159 158.523C184.159 158.523 184.159 158.523 184.085 159.018ZM183.529 159.569C183.647 159.553 183.792 159.54 183.912 159.531C183.971 159.526 184.022 159.523 184.058 159.52C184.076 159.519 184.09 159.518 184.1 159.518C184.105 159.517 184.108 159.517 184.111 159.517C184.112 159.517 184.113 159.517 184.113 159.517C184.114 159.517 184.114 159.517 184.114 159.517C184.114 159.517 184.114 159.517 184.114 159.517C184.114 159.517 184.114 159.517 184.114 159.517C184.114 159.517 184.114 159.517 184.114 159.517C184.114 159.517 184.114 159.517 184.085 159.018C184.056 158.519 184.056 158.519 184.056 158.519C184.056 158.519 184.056 158.519 184.056 158.519C184.056 158.519 184.056 158.519 184.056 158.519C184.056 158.519 184.056 158.519 184.056 158.519C184.056 158.519 184.055 158.519 184.055 158.519C184.054 158.519 184.053 158.519 184.051 158.519C184.048 158.519 184.044 158.519 184.038 158.52C184.027 158.52 184.012 158.521 183.992 158.523C183.953 158.525 183.898 158.529 183.834 158.534C183.709 158.544 183.543 158.558 183.399 158.577L183.529 159.569ZM181.509 162.106C181.664 160.995 182.135 160.368 182.567 160.016C182.788 159.836 183.006 159.722 183.18 159.654C183.368 159.581 183.473 159.573 183.464 159.573V158.573C183.3 158.573 183.064 158.626 182.817 158.723C182.556 158.824 182.246 158.988 181.936 159.24C181.307 159.752 180.709 160.607 180.519 161.968L181.509 162.106ZM181 162.889C181.5 162.889 181.5 162.889 181.5 162.889C181.5 162.889 181.5 162.889 181.5 162.889C181.5 162.889 181.5 162.889 181.5 162.889C181.5 162.889 181.5 162.889 181.5 162.889C181.5 162.889 181.5 162.888 181.5 162.888C181.5 162.888 181.5 162.887 181.5 162.885C181.5 162.883 181.5 162.879 181.5 162.873C181.5 162.863 181.5 162.847 181.5 162.827C181.5 162.786 181.501 162.726 181.502 162.65C181.503 162.5 181.507 162.29 181.514 162.051L180.514 162.023C180.507 162.269 180.504 162.485 180.502 162.639C180.501 162.716 180.5 162.779 180.5 162.821C180.5 162.843 180.5 162.86 180.5 162.871C180.5 162.877 180.5 162.881 180.5 162.884C180.5 162.886 180.5 162.887 180.5 162.888C180.5 162.888 180.5 162.888 180.5 162.889C180.5 162.889 180.5 162.889 180.5 162.889C180.5 162.889 180.5 162.889 180.5 162.889C180.5 162.889 180.5 162.889 180.5 162.889C180.5 162.889 180.5 162.889 181 162.889ZM183.186 165.557C182.487 165.081 182.061 164.402 181.808 163.82C181.683 163.532 181.603 163.274 181.555 163.091C181.532 162.999 181.516 162.927 181.506 162.879C181.501 162.855 181.498 162.837 181.496 162.826C181.495 162.821 181.495 162.817 181.495 162.815C181.494 162.814 181.494 162.814 181.494 162.814C181.494 162.814 181.494 162.814 181.494 162.814C181.494 162.814 181.494 162.814 181.494 162.815C181.494 162.815 181.494 162.815 181.494 162.815C181.494 162.815 181.495 162.815 181 162.889C180.505 162.963 180.506 162.963 180.506 162.963C180.506 162.963 180.506 162.963 180.506 162.964C180.506 162.964 180.506 162.964 180.506 162.965C180.506 162.965 180.506 162.966 180.506 162.967C180.506 162.969 180.507 162.971 180.507 162.974C180.508 162.98 180.509 162.987 180.511 162.997C180.514 163.016 180.519 163.042 180.526 163.074C180.539 163.139 180.558 163.231 180.588 163.343C180.646 163.566 180.741 163.874 180.891 164.219C181.189 164.904 181.715 165.766 182.624 166.384L183.186 165.557ZM185.521 164.283C185.087 164.331 184.649 164.411 184.165 164.608C183.684 164.805 183.178 165.109 182.591 165.581L183.218 166.36C183.75 165.932 184.172 165.686 184.543 165.534C184.912 165.384 185.251 165.319 185.631 165.277L185.521 164.283ZM185.576 162.079C185.076 162.081 185.076 162.081 185.076 162.081C185.076 162.081 185.076 162.081 185.076 162.082C185.076 162.082 185.076 162.082 185.076 162.082C185.076 162.082 185.076 162.083 185.076 162.083C185.076 162.084 185.076 162.086 185.076 162.089C185.076 162.093 185.076 162.1 185.076 162.11C185.076 162.128 185.076 162.155 185.076 162.19C185.077 162.26 185.077 162.359 185.078 162.479C185.079 162.718 185.08 163.039 185.081 163.366C185.082 163.692 185.082 164.023 185.082 164.283C185.081 164.413 185.081 164.525 185.08 164.608C185.079 164.65 185.079 164.684 185.078 164.709C185.078 164.738 185.077 164.745 185.077 164.74L186.074 164.819C186.083 164.706 186.083 163.996 186.081 163.363C186.08 163.036 186.079 162.714 186.078 162.474C186.077 162.354 186.077 162.255 186.076 162.185C186.076 162.15 186.076 162.123 186.076 162.104C186.076 162.095 186.076 162.088 186.076 162.083C186.076 162.081 186.076 162.079 186.076 162.078C186.076 162.077 186.076 162.077 186.076 162.076C186.076 162.076 186.076 162.076 186.076 162.076C186.076 162.076 186.076 162.076 186.076 162.076C186.076 162.076 186.076 162.076 185.576 162.079ZM186.115 161.211L185.335 161.641L185.817 162.517L186.597 162.087L186.115 161.211ZM186.877 164.728L186.856 161.646L185.856 161.653L185.877 164.734L186.877 164.728ZM186.887 164.245L186.39 164.231L186.363 165.231L186.86 165.245L186.887 164.245ZM186.408 161.464L186.373 164.74L187.373 164.75L187.408 161.475L186.408 161.464ZM187.355 160.569L186.63 161.054L187.186 161.885L187.911 161.4L187.355 160.569ZM188.133 164.89V160.985H187.133V164.89H188.133ZM188.278 164.528L187.747 164.404L187.518 165.377L188.05 165.502L188.278 164.528ZM187.699 160.752L187.664 165.011L188.664 165.019L188.699 160.76L187.699 160.752ZM188.663 159.837L187.918 160.342L188.479 161.17L189.225 160.664L188.663 159.837ZM189.465 165.352L189.444 160.248L188.444 160.252L188.465 165.356L189.465 165.352ZM190.341 165.36C190.123 165.353 189.858 165.262 189.619 165.148C189.505 165.094 189.409 165.04 189.342 165C189.308 164.98 189.282 164.964 189.265 164.953C189.257 164.948 189.251 164.944 189.247 164.942C189.246 164.941 189.245 164.94 189.244 164.94C189.244 164.939 189.244 164.939 189.244 164.939C189.244 164.94 189.244 164.94 189.244 164.94C189.244 164.94 189.244 164.94 189.244 164.94C189.244 164.94 189.244 164.94 189.244 164.94C189.244 164.94 189.245 164.94 188.965 165.354C188.685 165.769 188.685 165.769 188.685 165.769C188.685 165.769 188.685 165.769 188.685 165.769C188.685 165.769 188.686 165.769 188.686 165.769C188.686 165.769 188.686 165.77 188.687 165.77C188.687 165.77 188.688 165.771 188.69 165.772C188.692 165.773 188.695 165.775 188.698 165.778C188.706 165.783 188.716 165.789 188.728 165.797C188.753 165.813 188.788 165.835 188.832 165.861C188.919 165.912 189.043 165.981 189.189 166.051C189.469 166.184 189.884 166.346 190.308 166.36L190.341 165.36ZM191.132 165.811C191.072 165.315 191.072 165.315 191.072 165.315C191.072 165.315 191.072 165.315 191.072 165.315C191.073 165.315 191.073 165.315 191.073 165.315C191.073 165.315 191.073 165.315 191.072 165.315C191.072 165.315 191.072 165.315 191.072 165.315C191.071 165.315 191.07 165.315 191.069 165.315C191.066 165.316 191.061 165.316 191.055 165.317C191.043 165.318 191.025 165.32 191.002 165.323C190.957 165.327 190.892 165.334 190.817 165.34C190.663 165.352 190.481 165.363 190.334 165.36L190.314 166.36C190.512 166.364 190.734 166.35 190.898 166.337C190.982 166.33 191.054 166.323 191.106 166.317C191.132 166.315 191.153 166.312 191.167 166.311C191.175 166.31 191.18 166.309 191.184 166.309C191.186 166.308 191.188 166.308 191.189 166.308C191.19 166.308 191.19 166.308 191.191 166.308C191.191 166.308 191.191 166.308 191.191 166.308C191.191 166.308 191.191 166.308 191.191 166.308C191.191 166.308 191.191 166.308 191.191 166.308C191.191 166.308 191.191 166.308 191.132 165.811ZM193.263 162.901C193.041 164.092 192.471 164.678 191.992 164.978C191.745 165.133 191.511 165.217 191.341 165.263C191.257 165.286 191.189 165.299 191.146 165.306C191.124 165.309 191.109 165.311 191.1 165.312C191.096 165.313 191.093 165.313 191.092 165.313C191.092 165.313 191.092 165.313 191.093 165.313C191.093 165.313 191.094 165.313 191.094 165.313C191.094 165.313 191.095 165.313 191.095 165.313C191.095 165.313 191.095 165.313 191.096 165.313C191.096 165.313 191.096 165.313 191.132 165.811C191.168 166.31 191.168 166.31 191.168 166.31C191.168 166.31 191.169 166.31 191.169 166.31C191.169 166.31 191.17 166.31 191.17 166.31C191.172 166.31 191.173 166.31 191.174 166.31C191.177 166.309 191.18 166.309 191.184 166.309C191.191 166.308 191.2 166.307 191.212 166.306C191.235 166.303 191.265 166.299 191.303 166.293C191.377 166.282 191.48 166.262 191.602 166.229C191.847 166.163 192.175 166.043 192.522 165.826C193.23 165.383 193.971 164.56 194.246 163.084L193.263 162.901ZM193.261 162.735C193.258 162.828 193.255 162.917 193.255 162.993H194.255C194.255 162.938 194.257 162.869 194.26 162.77L193.261 162.735ZM193.269 161.862C193.278 162.251 193.268 162.529 193.261 162.735L194.26 162.77C194.268 162.558 194.278 162.257 194.268 161.838L193.269 161.862ZM190.939 158.512C190.805 158.994 190.805 158.994 190.805 158.994C190.805 158.994 190.804 158.994 190.804 158.994C190.804 158.994 190.804 158.994 190.804 158.994C190.804 158.994 190.803 158.994 190.803 158.994C190.804 158.994 190.804 158.994 190.805 158.994C190.808 158.995 190.813 158.996 190.82 158.998C190.833 159.003 190.856 159.01 190.886 159.02C190.945 159.041 191.034 159.074 191.144 159.122C191.363 159.219 191.658 159.372 191.958 159.597C192.555 160.044 193.16 160.763 193.271 161.899L194.266 161.802C194.121 160.313 193.312 159.362 192.558 158.797C192.182 158.516 191.818 158.326 191.546 158.207C191.41 158.147 191.296 158.104 191.214 158.076C191.173 158.061 191.14 158.051 191.116 158.043C191.104 158.04 191.094 158.037 191.087 158.034C191.083 158.033 191.08 158.033 191.078 158.032C191.076 158.032 191.075 158.031 191.074 158.031C191.074 158.031 191.074 158.031 191.073 158.031C191.073 158.031 191.073 158.03 191.073 158.03C191.072 158.03 191.072 158.03 190.939 158.512ZM187.534 156.505C188.733 156.56 189.454 157.102 189.884 157.624C190.104 157.889 190.249 158.152 190.34 158.348C190.385 158.445 190.415 158.524 190.434 158.577C190.443 158.603 190.45 158.623 190.453 158.635C190.455 158.641 190.456 158.644 190.457 158.646C190.457 158.647 190.457 158.647 190.457 158.647C190.457 158.647 190.457 158.647 190.457 158.646C190.457 158.646 190.457 158.646 190.457 158.646C190.457 158.646 190.457 158.645 190.457 158.645C190.457 158.645 190.457 158.645 190.939 158.512C191.421 158.38 191.421 158.379 191.421 158.379C191.421 158.379 191.42 158.379 191.42 158.378C191.42 158.378 191.42 158.378 191.42 158.377C191.42 158.376 191.419 158.375 191.419 158.374C191.418 158.371 191.418 158.368 191.416 158.365C191.414 158.357 191.411 158.348 191.408 158.336C191.401 158.313 191.39 158.281 191.376 158.242C191.348 158.164 191.307 158.056 191.248 157.928C191.13 157.673 190.941 157.333 190.656 156.987C190.077 156.286 189.107 155.576 187.58 155.506L187.534 156.505ZM186.242 164.522C184.991 164.529 184.138 164.937 183.593 165.369C183.323 165.582 183.134 165.797 183.01 165.963C182.948 166.046 182.902 166.117 182.87 166.17C182.854 166.197 182.841 166.219 182.832 166.236C182.828 166.244 182.824 166.252 182.821 166.257C182.82 166.26 182.818 166.263 182.817 166.265C182.817 166.266 182.816 166.267 182.816 166.268C182.815 166.268 182.815 166.269 182.815 166.269C182.815 166.269 182.815 166.27 182.815 166.27C182.815 166.27 182.814 166.27 183.264 166.49C183.713 166.71 183.713 166.71 183.713 166.71C183.712 166.71 183.712 166.71 183.712 166.711C183.712 166.711 183.712 166.711 183.712 166.712C183.712 166.712 183.711 166.713 183.711 166.713C183.711 166.714 183.71 166.714 183.71 166.714C183.71 166.715 183.711 166.714 183.712 166.711C183.714 166.707 183.719 166.698 183.727 166.685C183.743 166.658 183.771 166.616 183.811 166.562C183.891 166.455 184.021 166.305 184.213 166.153C184.591 165.854 185.229 165.528 186.248 165.522L186.242 164.522ZM188.983 165.324C188.347 164.958 187.577 164.514 186.242 164.522L186.248 165.522C187.308 165.515 187.887 165.847 188.484 166.191L188.983 165.324ZM190.548 165.824C189.921 165.856 189.531 165.639 188.983 165.324L188.484 166.191C189.034 166.507 189.651 166.87 190.597 166.823L190.548 165.824ZM192.312 165.825C191.985 165.447 191.985 165.447 191.985 165.446C191.985 165.446 191.986 165.446 191.986 165.446C191.986 165.446 191.986 165.446 191.987 165.445C191.987 165.445 191.988 165.445 191.988 165.444C191.989 165.443 191.99 165.443 191.99 165.442C191.992 165.441 191.993 165.44 191.993 165.44C191.994 165.439 191.993 165.44 191.99 165.442C191.985 165.446 191.971 165.456 191.949 165.47C191.906 165.497 191.83 165.54 191.716 165.587C191.491 165.68 191.111 165.793 190.545 165.825L190.6 166.823C191.276 166.785 191.767 166.649 192.1 166.51C192.266 166.441 192.391 166.373 192.48 166.317C192.525 166.289 192.56 166.265 192.586 166.245C192.599 166.236 192.61 166.227 192.619 166.22C192.623 166.217 192.627 166.213 192.63 166.211C192.632 166.209 192.634 166.208 192.635 166.207C192.636 166.206 192.636 166.206 192.637 166.205C192.637 166.205 192.638 166.205 192.638 166.204C192.638 166.204 192.638 166.204 192.638 166.204C192.639 166.204 192.639 166.204 192.312 165.825ZM189.776 167.689C190.762 167.681 191.503 167.282 191.989 166.892C192.231 166.698 192.414 166.504 192.536 166.357C192.598 166.283 192.645 166.221 192.678 166.175C192.695 166.152 192.708 166.133 192.717 166.119C192.722 166.112 192.726 166.106 192.729 166.101C192.73 166.099 192.732 166.097 192.733 166.095C192.733 166.094 192.734 166.094 192.734 166.093C192.734 166.093 192.735 166.092 192.735 166.092C192.735 166.092 192.735 166.092 192.735 166.092C192.735 166.091 192.735 166.091 192.312 165.825C191.889 165.559 191.889 165.559 191.889 165.559C191.889 165.559 191.889 165.559 191.889 165.558C191.889 165.558 191.889 165.558 191.889 165.558C191.89 165.558 191.89 165.557 191.89 165.557C191.89 165.557 191.89 165.557 191.89 165.557C191.89 165.557 191.888 165.559 191.887 165.562C191.883 165.568 191.876 165.578 191.866 165.592C191.846 165.62 191.814 165.663 191.769 165.716C191.68 165.822 191.544 165.967 191.363 166.112C191.002 166.401 190.473 166.684 189.768 166.689L189.776 167.689ZM187.573 166.983C188.112 167.31 188.745 167.698 189.776 167.689L189.768 166.689C189.036 166.695 188.612 166.443 188.091 166.128L187.573 166.983ZM186.065 166.421C186.694 166.457 187.089 166.691 187.573 166.983L188.091 166.128C187.6 165.831 187.019 165.474 186.122 165.423L186.065 166.421ZM183.264 166.49C183.499 166.931 183.498 166.931 183.498 166.931C183.498 166.931 183.498 166.932 183.498 166.932C183.498 166.932 183.498 166.932 183.498 166.932C183.498 166.932 183.497 166.932 183.497 166.932C183.497 166.932 183.498 166.932 183.498 166.932C183.499 166.931 183.501 166.93 183.504 166.928C183.511 166.925 183.522 166.92 183.537 166.912C183.568 166.897 183.615 166.875 183.678 166.848C183.805 166.794 183.991 166.722 184.225 166.651C184.695 166.509 185.342 166.381 186.065 166.421L186.122 165.423C185.25 165.374 184.483 165.529 183.936 165.694C183.662 165.776 183.44 165.862 183.285 165.929C183.207 165.962 183.146 165.991 183.102 166.012C183.081 166.022 183.064 166.031 183.051 166.037C183.045 166.04 183.04 166.043 183.036 166.045C183.034 166.046 183.033 166.046 183.032 166.047C183.031 166.047 183.03 166.048 183.03 166.048C183.03 166.048 183.029 166.048 183.029 166.048C183.029 166.048 183.029 166.049 183.029 166.049C183.029 166.049 183.029 166.049 183.264 166.49ZM185.311 165.748C184.631 165.752 184.165 165.861 183.853 165.989C183.696 166.053 183.58 166.121 183.495 166.181C183.453 166.211 183.42 166.239 183.393 166.263C183.38 166.275 183.369 166.286 183.359 166.295C183.355 166.3 183.35 166.305 183.346 166.309C183.344 166.311 183.343 166.313 183.341 166.315C183.34 166.316 183.339 166.317 183.338 166.318C183.338 166.318 183.338 166.319 183.337 166.319C183.337 166.32 183.337 166.32 183.337 166.32C183.336 166.32 183.336 166.321 183.712 166.65C184.089 166.979 184.089 166.979 184.088 166.979C184.088 166.98 184.088 166.98 184.088 166.98C184.087 166.981 184.087 166.981 184.087 166.981C184.086 166.982 184.085 166.983 184.084 166.984C184.083 166.985 184.082 166.987 184.08 166.988C184.078 166.991 184.076 166.993 184.074 166.995C184.07 166.999 184.067 167.002 184.066 167.003C184.063 167.005 184.067 167.002 184.076 166.995C184.096 166.981 184.144 166.95 184.231 166.914C184.405 166.843 184.74 166.751 185.316 166.748L185.311 165.748ZM187.805 166.492C187.162 166.145 186.422 165.74 185.31 165.748L185.317 166.748C186.152 166.742 186.694 167.029 187.33 167.372L187.805 166.492ZM189.689 167.112C188.928 167.092 188.413 166.82 187.805 166.492L187.33 167.372C187.939 167.701 188.641 168.085 189.662 168.112L189.689 167.112ZM190.421 167.598C190.393 167.099 190.393 167.099 190.393 167.099C190.393 167.099 190.393 167.099 190.393 167.099C190.393 167.099 190.393 167.099 190.393 167.099C190.393 167.099 190.393 167.099 190.393 167.099C190.393 167.099 190.393 167.099 190.393 167.099C190.393 167.099 190.393 167.099 190.392 167.099C190.391 167.099 190.388 167.1 190.385 167.1C190.378 167.1 190.368 167.1 190.353 167.101C190.325 167.102 190.28 167.104 190.221 167.106C190.101 167.109 189.919 167.112 189.676 167.112V168.112C189.929 168.112 190.12 168.109 190.249 168.105C190.313 168.103 190.362 168.102 190.395 168.1C190.412 168.1 190.425 168.099 190.434 168.098C190.438 168.098 190.442 168.098 190.444 168.098C190.445 168.098 190.446 168.098 190.447 168.098C190.448 168.098 190.448 168.098 190.448 168.098C190.448 168.098 190.448 168.098 190.449 168.098C190.449 168.098 190.449 168.098 190.449 168.098C190.449 168.098 190.449 168.098 190.449 168.098C190.449 168.098 190.449 168.098 190.421 167.598ZM187.888 168.5C188.707 168.5 189.378 168.394 189.848 168.287C190.083 168.233 190.269 168.179 190.398 168.137C190.462 168.116 190.513 168.098 190.549 168.085C190.566 168.078 190.581 168.073 190.591 168.069C190.596 168.067 190.6 168.065 190.604 168.064C190.605 168.063 190.607 168.063 190.608 168.062C190.608 168.062 190.609 168.062 190.609 168.062C190.61 168.062 190.61 168.061 190.61 168.061C190.61 168.061 190.61 168.061 190.61 168.061C190.61 168.061 190.611 168.061 190.421 167.598C190.231 167.136 190.231 167.136 190.232 167.136C190.232 167.136 190.232 167.136 190.232 167.136C190.232 167.136 190.232 167.136 190.232 167.135C190.232 167.135 190.233 167.135 190.233 167.135C190.233 167.135 190.233 167.135 190.233 167.135C190.232 167.136 190.231 167.136 190.228 167.137C190.223 167.139 190.215 167.142 190.203 167.147C190.179 167.155 190.141 167.169 190.089 167.186C189.986 167.219 189.829 167.265 189.625 167.312C189.217 167.405 188.622 167.5 187.888 167.5V168.5ZM183.712 166.65C183.384 167.027 183.384 167.027 183.385 167.027C183.385 167.027 183.385 167.027 183.385 167.028C183.385 167.028 183.386 167.028 183.386 167.028C183.386 167.029 183.387 167.029 183.388 167.03C183.39 167.032 183.391 167.033 183.394 167.035C183.399 167.039 183.405 167.044 183.413 167.051C183.428 167.064 183.45 167.081 183.478 167.103C183.533 167.146 183.613 167.205 183.715 167.274C183.92 167.414 184.219 167.596 184.603 167.777C185.373 168.14 186.489 168.5 187.888 168.5V167.5C186.664 167.5 185.693 167.185 185.03 166.873C184.698 166.716 184.445 166.561 184.277 166.447C184.193 166.39 184.131 166.344 184.091 166.313C184.071 166.297 184.057 166.286 184.048 166.279C184.044 166.275 184.041 166.273 184.04 166.272C184.039 166.271 184.039 166.271 184.039 166.271C184.039 166.271 184.039 166.271 184.04 166.272C184.04 166.272 184.04 166.272 184.04 166.272C184.04 166.272 184.04 166.272 184.04 166.272C184.04 166.272 184.04 166.272 183.712 166.65Z" fill="white" mask="url(#path-51-outside-2)"/>
<path d="M183.712 158.789C183.712 158.789 184.492 155.86 187.557 156.005C190.283 156.13 190.939 158.512 190.939 158.512C190.939 158.512 193.513 159.225 193.768 161.85C193.782 162.439 193.755 162.785 193.755 162.993C193.258 165.659 191.132 165.811 191.132 165.811C191.132 165.811 190.669 165.867 190.324 165.86C189.683 165.839 188.965 165.354 188.965 165.354L188.944 160.25L188.199 160.756L188.164 165.015L187.633 164.89V160.985L186.908 161.469L186.873 164.745L186.377 164.731L186.356 161.649L185.576 162.079C185.576 162.079 185.59 164.606 185.576 164.78C184.762 164.87 184.023 165.07 182.905 165.971C181.297 164.877 181 162.889 181 162.889C181 162.889 181 162.522 181.014 162.037C181.359 159.565 183.153 159.073 183.464 159.073C183.726 159.039 184.085 159.018 184.085 159.018C184.085 159.018 185.155 159.177 185.452 159.814C185.5 159.835 185.541 159.8 185.541 159.8C185.541 159.8 186.025 158.886 187.198 158.706C187.246 158.685 187.232 158.568 187.232 158.568C187.232 158.568 186.266 158.464 185.576 159.108C185.472 159.108 185.541 159.108 185.472 159.108C184.886 158.678 183.712 158.789 183.712 158.789Z" fill="#2E3990"/>
</svg>
