<svg width="34" height="53" viewBox="0 0 34 53" fill="none" xmlns="http://www.w3.org/2000/svg">
<g clip-path="url(#clip0)">
<path fill-rule="evenodd" clip-rule="evenodd" d="M17 -3.05176e-05C26.3917 -3.05176e-05 34 7.61469 34 17C34 26.0132 26.7317 30.8437 21.9717 37.5924C20.0215 40.3573 18.3279 43.2698 17 46.5351C15.6721 43.2698 13.9785 40.3573 12.0283 37.5924C7.30679 30.8951 0 25.9426 0 17C0 7.61469 7.61472 -3.05176e-05 17 -3.05176e-05Z" fill="#666666"/>
<path fill-rule="evenodd" clip-rule="evenodd" d="M17.0001 3.90034C24.1208 3.90034 29.8944 9.67393 29.8944 16.7947C29.8944 23.9154 24.1208 29.689 17.0001 29.689C9.8793 29.689 4.10571 23.9154 4.10571 16.7947C4.10571 9.67393 9.8793 3.90034 17.0001 3.90034Z" fill="white"/>
<path d="M22.7735 17.1796C22.7735 16.923 22.7093 16.5253 22.7093 16.5253L21.9844 11.2777C21.901 10.8671 21.6701 10.7645 21.6701 10.7645C21.6701 10.7645 20.881 10.1102 18.161 9.97545H15.8452C13.1252 10.1102 12.3361 10.7645 12.3361 10.7645C12.3361 10.7645 12.0988 10.8671 12.0218 11.2777L11.2969 16.5253C11.2969 16.5253 11.2327 16.923 11.2327 17.1796L11.2263 21.4136H11.778V22.9211C11.778 23.306 12.0924 23.6204 12.4773 23.6204H12.6505C13.0354 23.6204 13.3497 23.306 13.3497 22.9211V21.4136H20.6308V22.9211C20.6308 23.306 20.9452 23.6204 21.3301 23.6204H21.5033C21.8882 23.6204 22.2025 23.306 22.2025 22.9211V21.4136H22.7542L22.7735 17.1796ZM14.5365 10.8415H19.4505C19.6365 10.8415 19.7905 10.9954 19.7905 11.1815C19.7905 11.3675 19.6365 11.5215 19.4505 11.5215H14.5365C14.3505 11.5215 14.1965 11.3675 14.1965 11.1815C14.1965 10.9954 14.3505 10.8415 14.5365 10.8415ZM12.4773 12.6762C12.4773 12.4196 12.7467 12.1566 12.9969 12.1566H21.0029C21.2595 12.1566 21.5225 12.426 21.5225 12.6762L21.8754 16.1853C21.8754 16.4419 21.6701 16.6471 21.4135 16.6471H12.5286C12.272 16.6471 12.0667 16.4419 12.0667 16.1853L12.4773 12.6762ZM12.5671 20.4513C12.1244 20.4513 11.7716 20.0921 11.7716 19.6558C11.7716 19.2132 12.1308 18.8604 12.5671 18.8604C13.0097 18.8604 13.3625 19.2196 13.3625 19.6558C13.3625 20.0921 13.0033 20.4513 12.5671 20.4513ZM21.4007 20.4513C20.958 20.4513 20.6052 20.0921 20.6052 19.6558C20.6052 19.2132 20.9644 18.8604 21.4007 18.8604C21.8369 18.8604 22.1961 19.2196 22.1961 19.6558C22.1961 20.0921 21.8433 20.4513 21.4007 20.4513Z" fill="#E51473"/>
</g>
<defs>
<clipPath id="clip0">
<rect width="34" height="52.7385" fill="white"/>
</clipPath>
</defs>
</svg>
