<svg width="38" height="48" viewBox="0 0 38 48" fill="none" xmlns="http://www.w3.org/2000/svg">
<path d="M19 47.2697C18.1003 46.6312 13.7018 43.4521 9.38889 38.6861C4.73282 33.5409 0.216184 26.5896 0.250193 19.0196V19.0185C0.250193 8.6753 8.66233 0.25 19 0.25C29.3376 0.25 37.7498 8.67521 37.7498 19.0304L37.7498 19.0315C37.7838 26.5935 33.0891 33.6696 28.341 38.8796C25.9715 41.4795 23.5992 43.6035 21.819 45.0775C20.929 45.8144 20.1876 46.3884 19.6691 46.7779C19.4098 46.9726 19.2064 47.1212 19.068 47.2209C19.0432 47.2387 19.0205 47.255 19 47.2697ZM19 47.576C19 47.576 38.0687 34.3499 37.9998 19.0304C37.9998 8.53751 29.476 0 19 0C8.52398 0 0.000193429 8.53751 0.000193429 19.0185L19 47.576Z" fill="#663048" stroke="white" stroke-width="0.5"/>
<path d="M29.0699 22.4469H28.4071V12.538C28.4071 10.1186 26.3072 8.15474 23.7233 8.15474H19.9927V7.76645C19.9927 7.5051 19.7693 7.29602 19.4938 7.29602H18.3396C18.0641 7.29602 17.8407 7.5051 17.8407 7.76645V8.15474H14.1101C11.5262 8.15474 9.42629 10.1186 9.42629 12.538V22.4469H8.77101C8.37635 22.4469 8.05615 22.7456 8.05615 23.1189V23.6117C8.05615 23.9776 8.37635 24.2763 8.77101 24.2763H9.43373V27.5917C9.43373 28.7939 10.1933 29.8244 11.2804 30.3098V31.0938C11.2804 31.6315 11.7496 32.072 12.3304 32.072H12.4719C13.0527 32.072 13.5218 31.6315 13.5218 31.0938V30.6085H24.334V31.0938C24.334 31.6315 24.8031 32.072 25.3839 32.072H25.5254C26.1062 32.072 26.5753 31.6315 26.5753 31.0938V30.3098C27.6699 29.8244 28.422 28.7939 28.422 27.5917V24.2763H29.0847C29.4794 24.2763 29.7922 23.9776 29.7922 23.6117V23.1189C29.7847 22.7456 29.4571 22.4469 29.0699 22.4469ZM14.7877 10.029H23.0457C24.669 10.029 25.9796 11.2909 25.9796 12.8366V22.1855H11.8538V12.8441C11.8538 11.2909 13.1718 10.029 14.7877 10.029ZM12.3974 26.5837C11.7347 26.5837 11.206 26.0834 11.206 25.4636C11.206 24.8438 11.7421 24.3435 12.3974 24.3435C13.0601 24.3435 13.5888 24.8438 13.5888 25.4636C13.5963 26.0759 13.0601 26.5837 12.3974 26.5837ZM25.4435 26.5837C24.7807 26.5837 24.252 26.0834 24.252 25.4636C24.252 24.8438 24.7882 24.3435 25.4435 24.3435C26.0987 24.3435 26.6349 24.8438 26.6349 25.4636C26.6349 26.0759 26.0987 26.5837 25.4435 26.5837Z" fill="white"/>
</svg>
