<svg width="38" height="38" viewBox="0 0 38 38" fill="none" xmlns="http://www.w3.org/2000/svg">
<path d="M19 38C8.5063 38 0 29.4937 0 19C0 8.5082 8.5063 0 19 0C29.4937 0 38 8.5082 38 19C38 29.4937 29.4937 38 19 38ZM19 9.5C18.4961 9.5 18.0128 9.70018 17.6565 10.0565C17.3002 10.4128 17.1 10.8961 17.1 11.4V20.9C17.1 21.4039 17.3002 21.8872 17.6565 22.2435C18.0128 22.5998 18.4961 22.8 19 22.8C19.5039 22.8 19.9872 22.5998 20.3435 22.2435C20.6998 21.8872 20.9 21.4039 20.9 20.9V11.4C20.9 10.8961 20.6998 10.4128 20.3435 10.0565C19.9872 9.70018 19.5039 9.5 19 9.5ZM19 28.5C19.5039 28.5 19.9872 28.2998 20.3435 27.9435C20.6998 27.5872 20.9 27.1039 20.9 26.6C20.9 26.0961 20.6998 25.6128 20.3435 25.2565C19.9872 24.9002 19.5039 24.7 19 24.7C18.4961 24.7 18.0128 24.9002 17.6565 25.2565C17.3002 25.6128 17.1 26.0961 17.1 26.6C17.1 27.1039 17.3002 27.5872 17.6565 27.9435C18.0128 28.2998 18.4961 28.5 19 28.5Z" fill="#E61773"/>
</svg>
